<svg xmlns="http://www.w3.org/2000/svg" width="178.771" height="178.225" viewBox="0 0 178.771 178.225">
  <g id="Group_288" data-name="Group 288" transform="translate(-965 -1808)">
    <g id="Group_206" data-name="Group 206" transform="translate(468 362)">
      <path id="Path_1" data-name="Path 1" d="M219.609,91.989c-4.684.177-9.98-1.112-15.77-3.362A74.791,74.791,0,0,0,219.6,66.809a3.236,3.236,0,0,0-4.179-4.372c-4.345,1.767-9.76,2.363-15.969,2.229a74.829,74.829,0,0,0,7.359-25.89,3.234,3.234,0,0,0-5.42-2.68c-3.481,3.148-8.363,5.559-14.245,7.552A74.973,74.973,0,0,0,185.222,16.8a3.234,3.234,0,0,0-6.011-.666c-2.234,4.222-6.1,8.224-11.076,12.182A74.771,74.771,0,0,0,156.894,3.389a3.233,3.233,0,0,0-5.865,1.466c-.618,4.646-2.782,9.647-5.978,14.975A74.858,74.858,0,0,0,126.207.607,3.232,3.232,0,0,0,121.2,3.986c1.01,4.582.682,10.018-.5,16.119A75.016,75.016,0,0,0,96.423,8.476a3.232,3.232,0,0,0-3.556,4.888c2.514,3.959,4.066,9.185,5.038,15.319a74.877,74.877,0,0,0-26.787-2.632,3.235,3.235,0,0,0-1.67,5.812c3.717,2.863,6.956,7.241,9.969,12.676A74.9,74.9,0,0,0,53.34,51.216a3.234,3.234,0,0,0,.414,6.032c4.469,1.423,9.013,4.426,13.7,8.5A74.931,74.931,0,0,0,45.224,80.935a3.233,3.233,0,0,0,2.449,5.527c4.684-.193,9.985,1.08,15.781,3.314a74.946,74.946,0,0,0-15.7,21.867A3.233,3.233,0,0,0,51.943,116c4.34-1.783,9.754-2.4,15.964-2.277a74.877,74.877,0,0,0-7.284,25.911,3.235,3.235,0,0,0,5.43,2.664c3.47-3.158,8.347-5.581,14.223-7.6a74.825,74.825,0,0,0,2.014,26.841,3.234,3.234,0,0,0,6.011.65c2.181-4.152,5.935-8.1,10.77-12a74.846,74.846,0,0,0,11.065,24.542,3.234,3.234,0,0,0,5.871-1.445c.634-4.646,2.815-9.642,6.021-14.959a74.839,74.839,0,0,0,18.784,19.283,3.233,3.233,0,0,0,5.022-3.362c-.994-4.582-.65-10.023.548-16.114a74.935,74.935,0,0,0,24.241,11.7,3.233,3.233,0,0,0,3.572-4.877c-2.5-3.969-4.034-9.2-4.99-15.335a74.869,74.869,0,0,0,26.781,2.718,3.236,3.236,0,0,0,1.692-5.806c-3.706-2.874-6.934-7.262-9.932-12.7a74.919,74.919,0,0,0,26.094-6.6,3.233,3.233,0,0,0-.4-6.032c-4.464-1.434-9-4.458-13.675-8.546a74.8,74.8,0,0,0,22.27-15.12,3.232,3.232,0,0,0-2.433-5.532Z" transform="translate(452.749 1446)" fill="#fff"/>
      <g id="Group_2" data-name="Group 2" transform="translate(497 1446)">
        <path id="Path_2" data-name="Path 2" d="M202.085,90.81S182.716,61.5,197.96,42.694c11.054-13.638,20.126-25.75,21.507-36.128A3.234,3.234,0,0,1,225.332,5.1c14.857,21.324,15.029,45.544,11.65,56.764-3.9,12.94-18.5,27.824-34.892,28.941Z" transform="translate(-112.689 -1.716)" fill="#14a0b9" opacity="0.5"/>
        <path id="Path_3" data-name="Path 3" d="M191.967,89.094s-28.221-20.927-20.32-43.809c5.731-16.6,10.114-31.079,7.864-41.3A3.233,3.233,0,0,1,184.522.607c21.249,14.965,29.687,37.669,30.343,49.368.752,13.493-7.874,32.47-22.9,39.119Z" transform="translate(-102.571 0)" fill="#14a0b9" opacity="0.5"/>
        <path id="Path_4" data-name="Path 4" d="M175.079,96.293S141.406,86.27,141.014,62.067c-.285-17.559-1.112-32.668-6.72-41.5a3.232,3.232,0,0,1,3.556-4.888c25.084,6.805,40.774,25.256,45.388,36.026C188.555,64.124,186.928,84.906,175.079,96.293Z" transform="translate(-85.683 -7.199)" fill="#14a0b9" opacity="0.5"/>
        <path id="Path_5" data-name="Path 5" d="M154.234,111.315s-35.069,2.084-43.712-20.529c-6.268-16.4-12.209-30.321-20.5-36.708a3.235,3.235,0,0,1,1.67-5.812c25.9-2.175,46.951,9.8,54.965,18.348,9.244,9.862,14.814,29.945,7.574,44.695Z" transform="translate(-64.839 -22.221)" fill="#14a0b9" opacity="0.5"/>
        <path id="Path_6" data-name="Path 6" d="M139.85,127.3s-32.244,13.944-48.095-4.356c-11.495-13.273-21.834-24.321-31.8-27.5a3.234,3.234,0,0,1-.414-6.032c23.6-10.893,47.472-6.832,57.924-1.536C129.521,93.986,141.617,110.96,139.85,127.3Z" transform="translate(-50.455 -38.205)" fill="#14a0b9" opacity="0.5"/>
        <path id="Path_7" data-name="Path 7" d="M133.645,140.328S108.1,164.45,86.957,152.665c-15.341-8.546-28.833-15.4-39.286-14.97a3.232,3.232,0,0,1-2.449-5.527c18.451-18.3,42.283-22.64,53.912-21.238C112.551,112.547,129.724,124.364,133.645,140.328Z" transform="translate(-44.249 -51.233)" fill="#14a0b9" opacity="0.5"/>
        <path id="Path_8" data-name="Path 8" d="M136.388,151.5s-15.759,31.4-39.662,27.55c-17.333-2.793-32.357-4.619-42.036-.645a3.232,3.232,0,0,1-4.19-4.356c11.086-23.5,32-35.725,43.411-38.384C107.077,132.6,127.252,137.836,136.388,151.5Z" transform="translate(-46.993 -62.401)" fill="#14a0b9" opacity="0.5"/>
        <path id="Path_9" data-name="Path 9" d="M147.745,160.177s-4.082,34.892-27.861,39.447c-17.247,3.3-31.986,6.714-39.726,13.756a3.235,3.235,0,0,1-5.43-2.664c2.39-25.879,17.865-44.512,27.684-50.9C113.734,152.432,134.488,150.466,147.745,160.177Z" transform="translate(-58.349 -71.083)" fill="#14a0b9" opacity="0.5"/>
        <path id="Path_10" data-name="Path 10" d="M164.338,164.8s8.084,34.189-12.7,46.591c-15.077,9-27.77,17.242-32.636,26.5a3.232,3.232,0,0,1-6.011-.65c-6.6-25.138,1.585-47.934,8.621-57.3,8.121-10.8,26.948-19.745,42.729-15.147Z" transform="translate(-74.942 -75.707)" fill="#14a0b9" opacity="0.5"/>
        <path id="Path_11" data-name="Path 11" d="M178.956,165.87s19.283,29.37,3.98,48.127c-11.1,13.606-20.207,25.691-21.614,36.058a3.234,3.234,0,0,1-5.871,1.445c-14.793-21.367-14.895-45.592-11.473-56.8,3.943-12.929,18.579-27.764,34.983-28.833Z" transform="translate(-89.56 -76.776)" fill="#14a0b9" opacity="0.5"/>
        <path id="Path_12" data-name="Path 12" d="M190.806,165.865s28.157,21.013,20.185,43.868c-5.78,16.581-10.211,31.052-7.993,41.273a3.231,3.231,0,0,1-5.022,3.362c-21.2-15.029-29.575-37.76-30.192-49.459-.714-13.5,7.977-32.443,23.022-39.05Z" transform="translate(-101.411 -76.771)" fill="#14a0b9" opacity="0.5"/>
        <path id="Path_13" data-name="Path 13" d="M201.082,165.87s33.641,10.125,33.963,34.334c.231,17.559,1.015,32.668,6.591,41.52a3.233,3.233,0,0,1-3.572,4.877c-25.063-6.881-40.7-25.38-45.275-36.165C187.508,198,189.195,177.22,201.082,165.87Z" transform="translate(-111.686 -76.776)" fill="#14a0b9" opacity="0.5"/>
        <path id="Path_14" data-name="Path 14" d="M207.781,165.832s35.075-1.977,43.647,20.658c6.22,16.42,12.118,30.359,20.384,36.772a3.235,3.235,0,0,1-1.692,5.806c-25.9,2.1-46.919-9.948-54.906-18.515-9.217-9.889-14.723-29.988-7.434-44.722Z" transform="translate(-118.385 -76.738)" fill="#14a0b9" opacity="0.5"/>
        <path id="Path_15" data-name="Path 15" d="M210.523,161.553s32.287-13.847,48.079,4.5c11.457,13.31,21.759,24.391,31.723,27.593a3.233,3.233,0,0,1,.4,6.032c-23.629,10.823-47.493,6.687-57.93,1.359C220.755,194.893,208.707,177.887,210.523,161.553Z" transform="translate(-121.127 -72.459)" fill="#14a0b9" opacity="0.5"/>
        <path id="Path_16" data-name="Path 16" d="M210.68,152.532s25.616-24.042,46.725-12.2c15.314,8.594,28.785,15.486,39.238,15.093a3.232,3.232,0,0,1,2.433,5.532c-18.5,18.246-42.353,22.511-53.977,21.072C231.687,180.372,214.553,168.5,210.68,152.532Z" transform="translate(-121.284 -63.438)" fill="#14a0b9" opacity="0.5"/>
        <path id="Path_17" data-name="Path 17" d="M210.68,141.939s15.856-31.352,39.742-27.431c17.328,2.841,32.341,4.721,42.036.773a3.236,3.236,0,0,1,4.179,4.372c-11.156,23.473-32.11,35.628-43.529,38.249C239.932,160.927,219.774,155.625,210.68,141.939Z" transform="translate(-121.284 -52.845)" fill="#14a0b9" opacity="0.5"/>
        <path id="Path_18" data-name="Path 18" d="M210.68,119.453s4.19-34.881,27.979-39.361c17.258-3.25,32.008-6.617,39.769-13.638a3.233,3.233,0,0,1,5.42,2.68c-2.465,25.868-18,44.453-27.84,50.824C244.659,127.3,223.9,129.207,210.68,119.453Z" transform="translate(-121.284 -30.358)" fill="#14a0b9" opacity="0.5"/>
        <path id="Path_19" data-name="Path 19" d="M209.385,101.483S201.4,67.267,222.233,54.929c15.11-8.949,27.824-17.156,32.717-26.405a3.234,3.234,0,0,1,6.01.666c6.521,25.154-1.73,47.928-8.8,57.274-8.154,10.78-27.012,19.664-42.772,15.013Z" transform="translate(-119.99 -12.388)" fill="#14a0b9" opacity="0.5"/>
      </g>
    </g>
    <g id="Group_243" data-name="Group 243" transform="translate(-5264.248 -52.783)">
      <path id="Path_1663" data-name="Path 1663" d="M66.384,13.758c12.055,0,19.429,17.307,12.505,31.027-2.9,5.762-4.41,7.71-5.352,13.3-1.314,7.811-.674,12.364-5.259,21.269-4.25,8.253-11.723,6.188-11.723,0v-8.3c0-4.813-1.687-7.513-5.619-7.513s-5.619,2.7-5.619,7.513v8.3c0,6.188-7.472,8.253-11.724,0-4.581-8.9-3.943-13.458-5.257-21.269-.941-5.589-2.451-7.536-5.355-13.3-6.921-13.719.45-31.027,12.505-31.027,6.556,0,11.724,3.5,15.347,4.031,4.835.718,7.2-4.031,15.551-4.031Z" transform="translate(6270.109 1900.308)" fill="#fff"/>
      <path id="Path_1666" data-name="Path 1666" d="M48.72,40.6c-3.675,0-10.55-.463-12.954-1.605C35.76,43.9,42.113,52.716,48.7,52.71s12.966-8.834,12.972-13.744C59.267,40.115,52.391,40.591,48.72,40.6Z" transform="translate(6272.225 1903.758)" fill="#fff"/>
      <path id="Path_1667" data-name="Path 1667" d="M22.439,24.076a10.472,10.472,0,0,1-7.408,7.4,10.5,10.5,0,0,1,7.408,7.408,10.479,10.479,0,0,1,7.4-7.408,10.462,10.462,0,0,1-7.4-7.4Z" transform="translate(6269.387 1901.72)" fill="#fff"/>
      <path id="Path_1669" data-name="Path 1669" d="M69.264,56.076a10.735,10.735,0,0,1-7.6,7.6,10.746,10.746,0,0,1,7.6,7.6,10.745,10.745,0,0,1,7.6-7.6A10.739,10.739,0,0,1,69.264,56.076Z" transform="translate(6275.768 1906.099)" fill="#fff"/>
      <path id="Path_1670" data-name="Path 1670" d="M60.539,40.689a16.267,16.267,0,0,1-3.624,6.361c-2.279,2.659-5.286,4.613-8.058,4.619s-5.78-1.95-8.048-4.6a16.078,16.078,0,0,1-3.581-6.358,38.13,38.13,0,0,0,4.563.829c2.528.267,5.187.379,7.07.379s4.553-.118,7.088-.384a38.432,38.432,0,0,0,4.589-.842Zm1.248-2.759a1.09,1.09,0,0,0-.468.118,23.455,23.455,0,0,1-5.625,1.131c-2.426.255-5.044.373-6.834.379s-4.4-.118-6.826-.373a22.752,22.752,0,0,1-5.614-1.125,1.183,1.183,0,0,0-1.687,1.066c-.006,2.966,1.723,6.495,4.275,9.479s6.022,5.43,9.848,5.43,7.294-2.464,9.853-5.448,4.293-6.513,4.3-9.473a1.181,1.181,0,0,0-1.221-1.183Z" transform="translate(6272.083 1903.616)" fill="#1ba2bb"/>
      <path id="Path_1671" data-name="Path 1671" d="M69.4,59.331c.64,1.6,2.972,3.695,4.417,4.494A11.884,11.884,0,0,0,69.4,68.277a10.985,10.985,0,0,0-4.483-4.452A10.546,10.546,0,0,0,69.4,59.331Zm.018-4.281a1.216,1.216,0,0,0-1.183.9,9.47,9.47,0,0,1-6.7,6.707,1.205,1.205,0,0,0,0,2.328,9.464,9.464,0,0,1,6.7,6.7,1.208,1.208,0,0,0,2.333,0,9.476,9.476,0,0,1,6.707-6.7,1.205,1.205,0,0,0,0-2.328A9.483,9.483,0,0,1,70.57,55.95,1.212,1.212,0,0,0,69.421,55.05Z" transform="translate(6275.629 1905.959)" fill="#1ba2bb"/>
      <path id="Path_1672" data-name="Path 1672" d="M22.579,27.228a11.641,11.641,0,0,0,4.328,4.4,11.743,11.743,0,0,0-4.328,4.363,10.79,10.79,0,0,0-4.388-4.363,10.3,10.3,0,0,0,4.388-4.4Zm.018-4.193a1.172,1.172,0,0,0-1.154.875,9.288,9.288,0,0,1-6.566,6.573,1.184,1.184,0,0,0,0,2.286,9.271,9.271,0,0,1,6.566,6.561,1.179,1.179,0,0,0,2.278,0A9.272,9.272,0,0,1,30.3,32.77a1.184,1.184,0,0,0,0-2.286,9.287,9.287,0,0,1-6.573-6.573A1.176,1.176,0,0,0,22.6,23.035Z" transform="translate(6269.246 1901.578)" fill="#1ba2bb"/>
      <path id="Path_1673" data-name="Path 1673" d="M35.472,12.629c-5.743,0-10.474,3.664-13.287,8.84A1.181,1.181,0,1,0,24.259,22.6c2.51-4.619,6.471-7.6,11.214-7.6,4.536,0,7.277,1.439,10.386,3.2s6.561,3.838,11.947,4.625a1.181,1.181,0,1,0,.343-2.333,23.822,23.822,0,0,1-6.029-1.693,35.644,35.644,0,0,0,4.95-1.746A22.285,22.285,0,0,1,66.141,15c5.419,0,9.843,3.92,12.181,9.657A24.343,24.343,0,0,1,77.5,44.4c-2.852,5.725-4.464,7.91-5.43,13.67a1.185,1.185,0,0,0,2.335.391c.911-5.448,2.3-7.181,5.216-13a26.64,26.64,0,0,0,.888-21.69c-2.6-6.371-7.809-11.136-14.372-11.136a24.855,24.855,0,0,0-9.959,2.226c-2.628,1.065-4.85,2.032-7.787,2.055-.454-.26-.911-.515-1.366-.771-3.159-1.783-6.5-3.511-11.556-3.511Z" transform="translate(6270.345 1900.154)" fill="#1ba2bb"/>
      <path id="Path_1674" data-name="Path 1674" d="M22.969,39.988a1.182,1.182,0,0,0-.953,1.723c2.907,5.821,4.293,7.554,5.206,13.009,1.28,7.7.687,12.546,5.335,21.659,2.255,4.423,5.594,6.4,8.585,6.075s5.286-3.038,5.286-6.615V67.521a8.706,8.706,0,0,1,1.113-4.891,3.536,3.536,0,0,1,3.28-1.462,3.55,3.55,0,0,1,3.292,1.462,8.664,8.664,0,0,1,1.108,4.891V75.84c0,3.578,2.309,6.29,5.293,6.615s6.324-1.652,8.58-6.075c.5-.978.941-1.9,1.327-2.79a1.183,1.183,0,1,0-2.168-.941c-.366.841-.787,1.718-1.268,2.652-1.966,3.855-4.439,5-6.216,4.8s-3.18-1.628-3.18-4.263V67.521a10.669,10.669,0,0,0-1.544-6.258,6.181,6.181,0,0,0-5.224-2.458,6.16,6.16,0,0,0-5.21,2.458,10.7,10.7,0,0,0-1.545,6.258V75.84c0,2.636-1.409,4.069-3.185,4.263s-4.252-.947-6.217-4.8c-4.458-8.74-3.783-13.015-5.11-20.978-.966-5.762-2.562-7.945-5.424-13.67A1.193,1.193,0,0,0,22.969,39.988Z" transform="translate(6270.325 1903.897)" fill="#1ba2bb"/>
      <path id="Path_1675" data-name="Path 1675" d="M51.228,33.91a1.18,1.18,0,0,1-1.013-1.829,7.774,7.774,0,0,1,12.909-.014,1.184,1.184,0,1,1-2,1.262,5.41,5.41,0,0,0-8.912.007,1.181,1.181,0,0,1-.982.574Z" transform="translate(6274.175 1902.344)" fill="#1ba2bb"/>
      <path id="Path_1676" data-name="Path 1676" d="M45.05,33.914a1.183,1.183,0,0,0,1.023-1.829,7.773,7.773,0,0,0-12.908.013,1.18,1.18,0,1,0,2,1.255,5.409,5.409,0,0,1,8.911-.007A1.189,1.189,0,0,0,45.05,33.914Z" transform="translate(6271.839 1902.346)" fill="#1ba2bb"/>
    </g>
  </g>
</svg>
