<svg xmlns="http://www.w3.org/2000/svg" width="178.771" height="178.225" viewBox="0 0 178.771 178.225">
  <g id="Group_286" data-name="Group 286" transform="translate(-300 -2726)">
    <g id="Group_206" data-name="Group 206" transform="translate(-197 1280)">
      <path id="Path_1" data-name="Path 1" d="M219.609,91.989c-4.684.177-9.98-1.112-15.77-3.362A74.791,74.791,0,0,0,219.6,66.809a3.236,3.236,0,0,0-4.179-4.372c-4.345,1.767-9.76,2.363-15.969,2.229a74.829,74.829,0,0,0,7.359-25.89,3.234,3.234,0,0,0-5.42-2.68c-3.481,3.148-8.363,5.559-14.245,7.552A74.973,74.973,0,0,0,185.222,16.8a3.234,3.234,0,0,0-6.011-.666c-2.234,4.222-6.1,8.224-11.076,12.182A74.771,74.771,0,0,0,156.894,3.389a3.233,3.233,0,0,0-5.865,1.466c-.618,4.646-2.782,9.647-5.978,14.975A74.858,74.858,0,0,0,126.207.607,3.232,3.232,0,0,0,121.2,3.986c1.01,4.582.682,10.018-.5,16.119A75.016,75.016,0,0,0,96.423,8.476a3.232,3.232,0,0,0-3.556,4.888c2.514,3.959,4.066,9.185,5.038,15.319a74.877,74.877,0,0,0-26.787-2.632,3.235,3.235,0,0,0-1.67,5.812c3.717,2.863,6.956,7.241,9.969,12.676A74.9,74.9,0,0,0,53.34,51.216a3.234,3.234,0,0,0,.414,6.032c4.469,1.423,9.013,4.426,13.7,8.5A74.931,74.931,0,0,0,45.224,80.935a3.233,3.233,0,0,0,2.449,5.527c4.684-.193,9.985,1.08,15.781,3.314a74.946,74.946,0,0,0-15.7,21.867A3.233,3.233,0,0,0,51.943,116c4.34-1.783,9.754-2.4,15.964-2.277a74.877,74.877,0,0,0-7.284,25.911,3.235,3.235,0,0,0,5.43,2.664c3.47-3.158,8.347-5.581,14.223-7.6a74.825,74.825,0,0,0,2.014,26.841,3.234,3.234,0,0,0,6.011.65c2.181-4.152,5.935-8.1,10.77-12a74.846,74.846,0,0,0,11.065,24.542,3.234,3.234,0,0,0,5.871-1.445c.634-4.646,2.815-9.642,6.021-14.959a74.839,74.839,0,0,0,18.784,19.283,3.233,3.233,0,0,0,5.022-3.362c-.994-4.582-.65-10.023.548-16.114a74.935,74.935,0,0,0,24.241,11.7,3.233,3.233,0,0,0,3.572-4.877c-2.5-3.969-4.034-9.2-4.99-15.335a74.869,74.869,0,0,0,26.781,2.718,3.236,3.236,0,0,0,1.692-5.806c-3.706-2.874-6.934-7.262-9.932-12.7a74.919,74.919,0,0,0,26.094-6.6,3.233,3.233,0,0,0-.4-6.032c-4.464-1.434-9-4.458-13.675-8.546a74.8,74.8,0,0,0,22.27-15.12,3.232,3.232,0,0,0-2.433-5.532Z" transform="translate(452.749 1446)" fill="#fff"/>
      <g id="Group_2" data-name="Group 2" transform="translate(497 1446)">
        <path id="Path_2" data-name="Path 2" d="M202.085,90.81S182.716,61.5,197.96,42.694c11.054-13.638,20.126-25.75,21.507-36.128A3.234,3.234,0,0,1,225.332,5.1c14.857,21.324,15.029,45.544,11.65,56.764-3.9,12.94-18.5,27.824-34.892,28.941Z" transform="translate(-112.689 -1.716)" fill="#14a0b9" opacity="0.5"/>
        <path id="Path_3" data-name="Path 3" d="M191.967,89.094s-28.221-20.927-20.32-43.809c5.731-16.6,10.114-31.079,7.864-41.3A3.233,3.233,0,0,1,184.522.607c21.249,14.965,29.687,37.669,30.343,49.368.752,13.493-7.874,32.47-22.9,39.119Z" transform="translate(-102.571 0)" fill="#14a0b9" opacity="0.5"/>
        <path id="Path_4" data-name="Path 4" d="M175.079,96.293S141.406,86.27,141.014,62.067c-.285-17.559-1.112-32.668-6.72-41.5a3.232,3.232,0,0,1,3.556-4.888c25.084,6.805,40.774,25.256,45.388,36.026C188.555,64.124,186.928,84.906,175.079,96.293Z" transform="translate(-85.683 -7.199)" fill="#14a0b9" opacity="0.5"/>
        <path id="Path_5" data-name="Path 5" d="M154.234,111.315s-35.069,2.084-43.712-20.529c-6.268-16.4-12.209-30.321-20.5-36.708a3.235,3.235,0,0,1,1.67-5.812c25.9-2.175,46.951,9.8,54.965,18.348,9.244,9.862,14.814,29.945,7.574,44.695Z" transform="translate(-64.839 -22.221)" fill="#14a0b9" opacity="0.5"/>
        <path id="Path_6" data-name="Path 6" d="M139.85,127.3s-32.244,13.944-48.095-4.356c-11.495-13.273-21.834-24.321-31.8-27.5a3.234,3.234,0,0,1-.414-6.032c23.6-10.893,47.472-6.832,57.924-1.536C129.521,93.986,141.617,110.96,139.85,127.3Z" transform="translate(-50.455 -38.205)" fill="#14a0b9" opacity="0.5"/>
        <path id="Path_7" data-name="Path 7" d="M133.645,140.328S108.1,164.45,86.957,152.665c-15.341-8.546-28.833-15.4-39.286-14.97a3.232,3.232,0,0,1-2.449-5.527c18.451-18.3,42.283-22.64,53.912-21.238C112.551,112.547,129.724,124.364,133.645,140.328Z" transform="translate(-44.249 -51.233)" fill="#14a0b9" opacity="0.5"/>
        <path id="Path_8" data-name="Path 8" d="M136.388,151.5s-15.759,31.4-39.662,27.55c-17.333-2.793-32.357-4.619-42.036-.645a3.232,3.232,0,0,1-4.19-4.356c11.086-23.5,32-35.725,43.411-38.384C107.077,132.6,127.252,137.836,136.388,151.5Z" transform="translate(-46.993 -62.401)" fill="#14a0b9" opacity="0.5"/>
        <path id="Path_9" data-name="Path 9" d="M147.745,160.177s-4.082,34.892-27.861,39.447c-17.247,3.3-31.986,6.714-39.726,13.756a3.235,3.235,0,0,1-5.43-2.664c2.39-25.879,17.865-44.512,27.684-50.9C113.734,152.432,134.488,150.466,147.745,160.177Z" transform="translate(-58.349 -71.083)" fill="#14a0b9" opacity="0.5"/>
        <path id="Path_10" data-name="Path 10" d="M164.338,164.8s8.084,34.189-12.7,46.591c-15.077,9-27.77,17.242-32.636,26.5a3.232,3.232,0,0,1-6.011-.65c-6.6-25.138,1.585-47.934,8.621-57.3,8.121-10.8,26.948-19.745,42.729-15.147Z" transform="translate(-74.942 -75.707)" fill="#14a0b9" opacity="0.5"/>
        <path id="Path_11" data-name="Path 11" d="M178.956,165.87s19.283,29.37,3.98,48.127c-11.1,13.606-20.207,25.691-21.614,36.058a3.234,3.234,0,0,1-5.871,1.445c-14.793-21.367-14.895-45.592-11.473-56.8,3.943-12.929,18.579-27.764,34.983-28.833Z" transform="translate(-89.56 -76.776)" fill="#14a0b9" opacity="0.5"/>
        <path id="Path_12" data-name="Path 12" d="M190.806,165.865s28.157,21.013,20.185,43.868c-5.78,16.581-10.211,31.052-7.993,41.273a3.231,3.231,0,0,1-5.022,3.362c-21.2-15.029-29.575-37.76-30.192-49.459-.714-13.5,7.977-32.443,23.022-39.05Z" transform="translate(-101.411 -76.771)" fill="#14a0b9" opacity="0.5"/>
        <path id="Path_13" data-name="Path 13" d="M201.082,165.87s33.641,10.125,33.963,34.334c.231,17.559,1.015,32.668,6.591,41.52a3.233,3.233,0,0,1-3.572,4.877c-25.063-6.881-40.7-25.38-45.275-36.165C187.508,198,189.195,177.22,201.082,165.87Z" transform="translate(-111.686 -76.776)" fill="#14a0b9" opacity="0.5"/>
        <path id="Path_14" data-name="Path 14" d="M207.781,165.832s35.075-1.977,43.647,20.658c6.22,16.42,12.118,30.359,20.384,36.772a3.235,3.235,0,0,1-1.692,5.806c-25.9,2.1-46.919-9.948-54.906-18.515-9.217-9.889-14.723-29.988-7.434-44.722Z" transform="translate(-118.385 -76.738)" fill="#14a0b9" opacity="0.5"/>
        <path id="Path_15" data-name="Path 15" d="M210.523,161.553s32.287-13.847,48.079,4.5c11.457,13.31,21.759,24.391,31.723,27.593a3.233,3.233,0,0,1,.4,6.032c-23.629,10.823-47.493,6.687-57.93,1.359C220.755,194.893,208.707,177.887,210.523,161.553Z" transform="translate(-121.127 -72.459)" fill="#14a0b9" opacity="0.5"/>
        <path id="Path_16" data-name="Path 16" d="M210.68,152.532s25.616-24.042,46.725-12.2c15.314,8.594,28.785,15.486,39.238,15.093a3.232,3.232,0,0,1,2.433,5.532c-18.5,18.246-42.353,22.511-53.977,21.072C231.687,180.372,214.553,168.5,210.68,152.532Z" transform="translate(-121.284 -63.438)" fill="#14a0b9" opacity="0.5"/>
        <path id="Path_17" data-name="Path 17" d="M210.68,141.939s15.856-31.352,39.742-27.431c17.328,2.841,32.341,4.721,42.036.773a3.236,3.236,0,0,1,4.179,4.372c-11.156,23.473-32.11,35.628-43.529,38.249C239.932,160.927,219.774,155.625,210.68,141.939Z" transform="translate(-121.284 -52.845)" fill="#14a0b9" opacity="0.5"/>
        <path id="Path_18" data-name="Path 18" d="M210.68,119.453s4.19-34.881,27.979-39.361c17.258-3.25,32.008-6.617,39.769-13.638a3.233,3.233,0,0,1,5.42,2.68c-2.465,25.868-18,44.453-27.84,50.824C244.659,127.3,223.9,129.207,210.68,119.453Z" transform="translate(-121.284 -30.358)" fill="#14a0b9" opacity="0.5"/>
        <path id="Path_19" data-name="Path 19" d="M209.385,101.483S201.4,67.267,222.233,54.929c15.11-8.949,27.824-17.156,32.717-26.405a3.234,3.234,0,0,1,6.01.666c6.521,25.154-1.73,47.928-8.8,57.274-8.154,10.78-27.012,19.664-42.772,15.013Z" transform="translate(-119.99 -12.388)" fill="#14a0b9" opacity="0.5"/>
      </g>
    </g>
    <g id="Group_241" data-name="Group 241" transform="translate(-6057 520.775)">
      <path id="Path_1624" data-name="Path 1624" d="M86.005,380.443,62.379,383.1a123.974,123.974,0,0,1-27.708,0l-23.629-2.662a4,4,0,0,1-3.459-4.823l2.1-9.645a6.935,6.935,0,0,1,.646-1.773,7.021,7.021,0,0,1,6.215-3.755H80.5a7.022,7.022,0,0,1,6.861,5.528l2.1,9.645A4,4,0,0,1,86.005,380.443Z" transform="translate(6397.747 1933.947)" fill="#fff"/>
      <path id="Path_1630" data-name="Path 1630" d="M160.787,314.771h-9.2a4.38,4.38,0,0,0-4.38,4.38,22.147,22.147,0,0,0,.545,4.881l1.856,8.213a6.748,6.748,0,0,0,13.165,0l1.856-8.213a22.147,22.147,0,0,0,.545-4.881A4.38,4.38,0,0,0,160.787,314.771Z" transform="translate(6281.105 1972.08)" fill="#fff"/>
      <path id="Path_1632" data-name="Path 1632" d="M269.585,314.771h-9.2a4.38,4.38,0,0,0-4.38,4.38,22.147,22.147,0,0,0,.545,4.881l1.856,8.213a6.748,6.748,0,0,0,13.165,0l1.856-8.213a22.147,22.147,0,0,0,.545-4.881A4.38,4.38,0,0,0,269.585,314.771Z" transform="translate(6190.272 1972.08)" fill="#fff"/>
      <path id="Path_1634" data-name="Path 1634" d="M377.117,314.771h-8.359a3.978,3.978,0,0,0-3.978,3.978,20.116,20.116,0,0,0,.495,4.433l1.685,7.458a6.128,6.128,0,0,0,11.955,0l1.685-7.458a20.116,20.116,0,0,0,.495-4.433,3.978,3.978,0,0,0-3.978-3.978Z" transform="translate(6099.454 1972.08)" fill="#fff"/>
      <path id="Path_1636" data-name="Path 1636" d="M64.715,318.745a20.153,20.153,0,0,1-.494,4.432l-.109.484-1.577,6.975a6.128,6.128,0,0,1-11.955,0l-1.686-7.459a20.112,20.112,0,0,1-.494-4.432,3.977,3.977,0,0,1,3.978-3.979h8.359A3.978,3.978,0,0,1,64.715,318.745Z" transform="translate(6363.591 1972.085)" fill="#fff"/>
      <path id="Path_1639" data-name="Path 1639" d="M155.145,50.331h6.093l2.89-9.846L204.466,9.621H194.081l-33.488,27.77Z" transform="translate(6274.473 2226.843)" fill="#fff"/>
      <path id="Path_1640" data-name="Path 1640" d="M114.33,235.68h-9.2a4.38,4.38,0,0,0-4.38,4.38,22.147,22.147,0,0,0,.545,4.881l1.856,8.213a6.748,6.748,0,0,0,13.165,0l1.856-8.213a22.146,22.146,0,0,0,.545-4.881A4.38,4.38,0,0,0,114.33,235.68Z" transform="translate(6319.891 2038.112)" fill="#d2f7fe"/>
      <path id="Path_1642" data-name="Path 1642" d="M155.145,35.186V49.694a.851.851,0,0,0,1.666.246l3.781-12.548,33.488-27.77h-13.6L156.753,31.514a5,5,0,0,0-1.608,3.671Z" transform="translate(6274.473 2226.843)" fill="#fff"/>
      <path id="Path_1646" data-name="Path 1646" d="M84.42,76.2l-2.1-9.644a8.24,8.24,0,0,0-4.75-5.807,21.385,21.385,0,0,0,.216-3.022,5.222,5.222,0,0,0-5.216-5.217H64.211a5.208,5.208,0,0,0-4.083,1.976,5.607,5.607,0,0,0-4.272-1.976h-9.2a5.609,5.609,0,0,0-4.378,2.1,5.807,5.807,0,0,0-4.383-2.1H34.746l.516-2.285a23.349,23.349,0,0,0,.575-5.155,5.772,5.772,0,0,0-1.9-4.207l1.731-5.9L75.69,4.343a1.238,1.238,0,0,0-1.505-1.967L33.846,33.239a1.237,1.237,0,0,0-.436.635l-1.7,5.776a7.029,7.029,0,0,0-1.864-.2l2.291-7.6,33.2-27.531a1.238,1.238,0,0,0-1.581-1.907L30.274,30.175a1.239,1.239,0,0,0-.4.6L26.855,40.8V28.923a3.768,3.768,0,0,1,1.209-2.761L51.793,4.269a1.238,1.238,0,1,0-1.68-1.82L26.385,24.342a6.251,6.251,0,0,0-2.007,4.582V39.447H21.014A5.626,5.626,0,0,0,15.4,45.066a24.087,24.087,0,0,0,.575,5.154l1.856,8.213a7.945,7.945,0,0,0,4.326,5.445l-1.235,5.464a4.89,4.89,0,0,1-9.539,0S9.229,59.123,9.229,57.725a2.739,2.739,0,0,1,2.739-2.741h.189a1.238,1.238,0,1,0,0-2.477h-.189a5.216,5.216,0,0,0-5.216,5.218,21.409,21.409,0,0,0,.215,3.022,8.239,8.239,0,0,0-4.749,5.807L.118,76.2a5.236,5.236,0,0,0,4.531,6.317l23.629,2.662a125.279,125.279,0,0,0,13.992.783,125.287,125.287,0,0,0,13.993-.783L69.45,83.692a1.238,1.238,0,0,0-.277-2.461L55.986,82.716a122.911,122.911,0,0,1-27.431,0L4.925,80.054a2.759,2.759,0,0,1-2.387-3.329l2.1-9.645a5.767,5.767,0,0,1,2.827-3.815l1.5,6.623a7.367,7.367,0,0,0,14.371,0l.9-3.987L25.5,71.494a7.986,7.986,0,0,0,15.58,0l1.193-5.278,1.193,5.277a7.987,7.987,0,0,0,15.581,0l1.262-5.585.9,3.979a7.367,7.367,0,0,0,14.371,0l1.5-6.623A5.767,5.767,0,0,1,79.9,67.08L82,76.725a2.759,2.759,0,0,1-2.388,3.329l-4.668.526a1.239,1.239,0,0,0,.137,2.469,1.26,1.26,0,0,0,.14-.008l4.668-.526A5.236,5.236,0,0,0,84.42,76.2ZM20.243,57.888l-1.856-8.212a21.555,21.555,0,0,1-.515-4.61,3.146,3.146,0,0,1,3.142-3.142h3.364v1.507A2.076,2.076,0,0,0,26.164,45.5a2.125,2.125,0,0,0,.313.023,2.074,2.074,0,0,0,1.992-1.488l.636-2.11h1.114a3.205,3.205,0,0,1,3.142,3.142,20.862,20.862,0,0,1-.515,4.608l-1.854,8.213a5.518,5.518,0,0,1-10.749,0ZM38.662,70.947a5.509,5.509,0,0,1-10.748,0l-1.432-6.337a8.1,8.1,0,0,0,6.926-6.177l.779-3.45h3.7a3.205,3.205,0,0,1,3.142,3.148,20.967,20.967,0,0,1-.514,4.6Zm19.821-8.212-1.856,8.213a5.51,5.51,0,0,1-10.749,0l-1.856-8.212a20.956,20.956,0,0,1-.514-4.6v-.008a3.145,3.145,0,0,1,3.142-3.14h9.2A3.146,3.146,0,0,1,59,58.127a20.932,20.932,0,0,1-.514,4.608ZM73.16,69.342a4.89,4.89,0,0,1-9.54,0l-1.685-7.458a18.907,18.907,0,0,1-.464-4.16,2.743,2.743,0,0,1,2.74-2.74h8.359a2.743,2.743,0,0,1,2.74,2.74,18.894,18.894,0,0,1-.464,4.159Z" transform="translate(6404.001 2233.105)" fill="#1ba2bb"/>
    </g>
  </g>
</svg>
