<svg xmlns="http://www.w3.org/2000/svg" width="178.771" height="178.225" viewBox="0 0 178.771 178.225">
  <g id="Group_282" data-name="Group 282" transform="translate(-300 -1808)">
    <g id="Group_206" data-name="Group 206" transform="translate(-197 362)">
      <path id="Path_1" data-name="Path 1" d="M219.609,91.989c-4.684.177-9.98-1.112-15.77-3.362A74.791,74.791,0,0,0,219.6,66.809a3.236,3.236,0,0,0-4.179-4.372c-4.345,1.767-9.76,2.363-15.969,2.229a74.829,74.829,0,0,0,7.359-25.89,3.234,3.234,0,0,0-5.42-2.68c-3.481,3.148-8.363,5.559-14.245,7.552A74.973,74.973,0,0,0,185.222,16.8a3.234,3.234,0,0,0-6.011-.666c-2.234,4.222-6.1,8.224-11.076,12.182A74.771,74.771,0,0,0,156.894,3.389a3.233,3.233,0,0,0-5.865,1.466c-.618,4.646-2.782,9.647-5.978,14.975A74.858,74.858,0,0,0,126.207.607,3.232,3.232,0,0,0,121.2,3.986c1.01,4.582.682,10.018-.5,16.119A75.016,75.016,0,0,0,96.423,8.476a3.232,3.232,0,0,0-3.556,4.888c2.514,3.959,4.066,9.185,5.038,15.319a74.877,74.877,0,0,0-26.787-2.632,3.235,3.235,0,0,0-1.67,5.812c3.717,2.863,6.956,7.241,9.969,12.676A74.9,74.9,0,0,0,53.34,51.216a3.234,3.234,0,0,0,.414,6.032c4.469,1.423,9.013,4.426,13.7,8.5A74.931,74.931,0,0,0,45.224,80.935a3.233,3.233,0,0,0,2.449,5.527c4.684-.193,9.985,1.08,15.781,3.314a74.946,74.946,0,0,0-15.7,21.867A3.233,3.233,0,0,0,51.943,116c4.34-1.783,9.754-2.4,15.964-2.277a74.877,74.877,0,0,0-7.284,25.911,3.235,3.235,0,0,0,5.43,2.664c3.47-3.158,8.347-5.581,14.223-7.6a74.825,74.825,0,0,0,2.014,26.841,3.234,3.234,0,0,0,6.011.65c2.181-4.152,5.935-8.1,10.77-12a74.846,74.846,0,0,0,11.065,24.542,3.234,3.234,0,0,0,5.871-1.445c.634-4.646,2.815-9.642,6.021-14.959a74.839,74.839,0,0,0,18.784,19.283,3.233,3.233,0,0,0,5.022-3.362c-.994-4.582-.65-10.023.548-16.114a74.935,74.935,0,0,0,24.241,11.7,3.233,3.233,0,0,0,3.572-4.877c-2.5-3.969-4.034-9.2-4.99-15.335a74.869,74.869,0,0,0,26.781,2.718,3.236,3.236,0,0,0,1.692-5.806c-3.706-2.874-6.934-7.262-9.932-12.7a74.919,74.919,0,0,0,26.094-6.6,3.233,3.233,0,0,0-.4-6.032c-4.464-1.434-9-4.458-13.675-8.546a74.8,74.8,0,0,0,22.27-15.12,3.232,3.232,0,0,0-2.433-5.532Z" transform="translate(452.749 1446)" fill="#fff"/>
      <g id="Group_2" data-name="Group 2" transform="translate(497 1446)">
        <path id="Path_2" data-name="Path 2" d="M202.085,90.81S182.716,61.5,197.96,42.694c11.054-13.638,20.126-25.75,21.507-36.128A3.234,3.234,0,0,1,225.332,5.1c14.857,21.324,15.029,45.544,11.65,56.764-3.9,12.94-18.5,27.824-34.892,28.941Z" transform="translate(-112.689 -1.716)" fill="#14a0b9" opacity="0.5"/>
        <path id="Path_3" data-name="Path 3" d="M191.967,89.094s-28.221-20.927-20.32-43.809c5.731-16.6,10.114-31.079,7.864-41.3A3.233,3.233,0,0,1,184.522.607c21.249,14.965,29.687,37.669,30.343,49.368.752,13.493-7.874,32.47-22.9,39.119Z" transform="translate(-102.571 0)" fill="#14a0b9" opacity="0.5"/>
        <path id="Path_4" data-name="Path 4" d="M175.079,96.293S141.406,86.27,141.014,62.067c-.285-17.559-1.112-32.668-6.72-41.5a3.232,3.232,0,0,1,3.556-4.888c25.084,6.805,40.774,25.256,45.388,36.026C188.555,64.124,186.928,84.906,175.079,96.293Z" transform="translate(-85.683 -7.199)" fill="#14a0b9" opacity="0.5"/>
        <path id="Path_5" data-name="Path 5" d="M154.234,111.315s-35.069,2.084-43.712-20.529c-6.268-16.4-12.209-30.321-20.5-36.708a3.235,3.235,0,0,1,1.67-5.812c25.9-2.175,46.951,9.8,54.965,18.348,9.244,9.862,14.814,29.945,7.574,44.695Z" transform="translate(-64.839 -22.221)" fill="#14a0b9" opacity="0.5"/>
        <path id="Path_6" data-name="Path 6" d="M139.85,127.3s-32.244,13.944-48.095-4.356c-11.495-13.273-21.834-24.321-31.8-27.5a3.234,3.234,0,0,1-.414-6.032c23.6-10.893,47.472-6.832,57.924-1.536C129.521,93.986,141.617,110.96,139.85,127.3Z" transform="translate(-50.455 -38.205)" fill="#14a0b9" opacity="0.5"/>
        <path id="Path_7" data-name="Path 7" d="M133.645,140.328S108.1,164.45,86.957,152.665c-15.341-8.546-28.833-15.4-39.286-14.97a3.232,3.232,0,0,1-2.449-5.527c18.451-18.3,42.283-22.64,53.912-21.238C112.551,112.547,129.724,124.364,133.645,140.328Z" transform="translate(-44.249 -51.233)" fill="#14a0b9" opacity="0.5"/>
        <path id="Path_8" data-name="Path 8" d="M136.388,151.5s-15.759,31.4-39.662,27.55c-17.333-2.793-32.357-4.619-42.036-.645a3.232,3.232,0,0,1-4.19-4.356c11.086-23.5,32-35.725,43.411-38.384C107.077,132.6,127.252,137.836,136.388,151.5Z" transform="translate(-46.993 -62.401)" fill="#14a0b9" opacity="0.5"/>
        <path id="Path_9" data-name="Path 9" d="M147.745,160.177s-4.082,34.892-27.861,39.447c-17.247,3.3-31.986,6.714-39.726,13.756a3.235,3.235,0,0,1-5.43-2.664c2.39-25.879,17.865-44.512,27.684-50.9C113.734,152.432,134.488,150.466,147.745,160.177Z" transform="translate(-58.349 -71.083)" fill="#14a0b9" opacity="0.5"/>
        <path id="Path_10" data-name="Path 10" d="M164.338,164.8s8.084,34.189-12.7,46.591c-15.077,9-27.77,17.242-32.636,26.5a3.232,3.232,0,0,1-6.011-.65c-6.6-25.138,1.585-47.934,8.621-57.3,8.121-10.8,26.948-19.745,42.729-15.147Z" transform="translate(-74.942 -75.707)" fill="#14a0b9" opacity="0.5"/>
        <path id="Path_11" data-name="Path 11" d="M178.956,165.87s19.283,29.37,3.98,48.127c-11.1,13.606-20.207,25.691-21.614,36.058a3.234,3.234,0,0,1-5.871,1.445c-14.793-21.367-14.895-45.592-11.473-56.8,3.943-12.929,18.579-27.764,34.983-28.833Z" transform="translate(-89.56 -76.776)" fill="#14a0b9" opacity="0.5"/>
        <path id="Path_12" data-name="Path 12" d="M190.806,165.865s28.157,21.013,20.185,43.868c-5.78,16.581-10.211,31.052-7.993,41.273a3.231,3.231,0,0,1-5.022,3.362c-21.2-15.029-29.575-37.76-30.192-49.459-.714-13.5,7.977-32.443,23.022-39.05Z" transform="translate(-101.411 -76.771)" fill="#14a0b9" opacity="0.5"/>
        <path id="Path_13" data-name="Path 13" d="M201.082,165.87s33.641,10.125,33.963,34.334c.231,17.559,1.015,32.668,6.591,41.52a3.233,3.233,0,0,1-3.572,4.877c-25.063-6.881-40.7-25.38-45.275-36.165C187.508,198,189.195,177.22,201.082,165.87Z" transform="translate(-111.686 -76.776)" fill="#14a0b9" opacity="0.5"/>
        <path id="Path_14" data-name="Path 14" d="M207.781,165.832s35.075-1.977,43.647,20.658c6.22,16.42,12.118,30.359,20.384,36.772a3.235,3.235,0,0,1-1.692,5.806c-25.9,2.1-46.919-9.948-54.906-18.515-9.217-9.889-14.723-29.988-7.434-44.722Z" transform="translate(-118.385 -76.738)" fill="#14a0b9" opacity="0.5"/>
        <path id="Path_15" data-name="Path 15" d="M210.523,161.553s32.287-13.847,48.079,4.5c11.457,13.31,21.759,24.391,31.723,27.593a3.233,3.233,0,0,1,.4,6.032c-23.629,10.823-47.493,6.687-57.93,1.359C220.755,194.893,208.707,177.887,210.523,161.553Z" transform="translate(-121.127 -72.459)" fill="#14a0b9" opacity="0.5"/>
        <path id="Path_16" data-name="Path 16" d="M210.68,152.532s25.616-24.042,46.725-12.2c15.314,8.594,28.785,15.486,39.238,15.093a3.232,3.232,0,0,1,2.433,5.532c-18.5,18.246-42.353,22.511-53.977,21.072C231.687,180.372,214.553,168.5,210.68,152.532Z" transform="translate(-121.284 -63.438)" fill="#14a0b9" opacity="0.5"/>
        <path id="Path_17" data-name="Path 17" d="M210.68,141.939s15.856-31.352,39.742-27.431c17.328,2.841,32.341,4.721,42.036.773a3.236,3.236,0,0,1,4.179,4.372c-11.156,23.473-32.11,35.628-43.529,38.249C239.932,160.927,219.774,155.625,210.68,141.939Z" transform="translate(-121.284 -52.845)" fill="#14a0b9" opacity="0.5"/>
        <path id="Path_18" data-name="Path 18" d="M210.68,119.453s4.19-34.881,27.979-39.361c17.258-3.25,32.008-6.617,39.769-13.638a3.233,3.233,0,0,1,5.42,2.68c-2.465,25.868-18,44.453-27.84,50.824C244.659,127.3,223.9,129.207,210.68,119.453Z" transform="translate(-121.284 -30.358)" fill="#14a0b9" opacity="0.5"/>
        <path id="Path_19" data-name="Path 19" d="M209.385,101.483S201.4,67.267,222.233,54.929c15.11-8.949,27.824-17.156,32.717-26.405a3.234,3.234,0,0,1,6.01.666c6.521,25.154-1.73,47.928-8.8,57.274-8.154,10.78-27.012,19.664-42.772,15.013Z" transform="translate(-119.99 -12.388)" fill="#14a0b9" opacity="0.5"/>
      </g>
    </g>
    <g id="Group_237" data-name="Group 237" transform="translate(-6084.382 -82.746)">
      <path id="Path_1581" data-name="Path 1581" d="M131.58,192.7c-17.9-20.681-41.7-1.518-34.291,18.086,2.475,6.6,8.011,11.52,9.57,18.477.78,3.478.194,7.028,1.1,10.481,1.152,4.406,3.814,8.914,8.989,8.791,11.652-.278,8.3-20.219,14.641-20.959,6.339.738,2.984,20.681,14.641,20.959,5.177.123,7.837-4.385,8.989-8.791.9-3.454.316-7,1.1-10.481,1.559-6.958,7.094-11.879,9.57-18.477,7.4-19.6-16.4-38.767-34.3-18.086Z" transform="translate(6341.724 1763.323)" fill="#fff"/>
      <path id="Path_1582" data-name="Path 1582" d="M497.8,192.942c-6.837-7.9-14.53-9.973-21.021-8.443,2.229,2.753,5.226,7.259,5.149,11.521-.434,7.948,7.6,14.093,15.871,14.093s16.307-6.144,15.872-14.1c-.078-4.262,2.92-8.767,5.149-11.521C512.331,182.969,504.637,185.043,497.8,192.942Z" transform="translate(5975.503 1763.078)" fill="#89cfdc"/>
      <path id="Path_1583" data-name="Path 1583" d="M127.291,151.449c-9.084-5.128-18.082-3.306-26.745,5.6-9.5-10.179-19.973-9.634-26.745-5.6a21.3,21.3,0,0,0-8.7,25.96,43.03,43.03,0,0,0,4.552,8.278c2.127,3.267,4.138,6.351,4.964,10.036a26.176,26.176,0,0,1,.464,4.8,25.95,25.95,0,0,0,.642,5.727c1.644,6.285,5.337,9.822,10.212,9.709,7.674-.177,9.574-7.635,11.1-13.623.91-3.568,1.731-7.318,3.506-7.318s2.6,3.749,3.506,7.318c1.527,5.988,3.428,13.448,11.1,13.623,4.868.112,8.558-3.429,10.212-9.709a25.95,25.95,0,0,0,.642-5.727,26.176,26.176,0,0,1,.464-4.8c.827-3.691,2.837-6.767,4.966-10.037a43.061,43.061,0,0,0,4.552-8.274A21.11,21.11,0,0,0,127.291,151.449Zm6.4,25.1a40.723,40.723,0,0,1-4.315,7.8c-2.154,3.306-4.381,6.724-5.3,10.843a28.244,28.244,0,0,0-.523,5.247,23.712,23.712,0,0,1-.563,5.192c-.781,2.991-2.811,8-7.768,7.874-5.808-.139-7.316-6.052-8.775-11.772-1.174-4.56-2.239-9.187-5.895-9.187s-4.721,4.627-5.891,9.186c-1.459,5.719-2.966,11.639-8.775,11.772-4.921.113-6.987-4.881-7.768-7.874a23.71,23.71,0,0,1-.563-5.192,28.243,28.243,0,0,0-.523-5.247c-.923-4.118-3.15-7.537-5.3-10.842a40.584,40.584,0,0,1-4.316-7.8,18.846,18.846,0,0,1,7.654-22.983,16.635,16.635,0,0,1,4.152-1.746,1.23,1.23,0,0,0,.192.338,18.017,18.017,0,0,1,1.977,2.83,1.23,1.23,0,1,0,2.138-1.218,20.883,20.883,0,0,0-1.631-2.446c5.375-.536,11.712,1.492,17.631,8.276,1.363,2.73,2.868,6.4,9.638,6.467a1.23,1.23,0,1,0,0-2.461c-4.791,0-6.038-2.244-7.136-4.491,5.783-6.378,11.934-8.315,17.173-7.792-.1.123-.2.266-.308.412a1.23,1.23,0,1,0,1.989,1.448,13.771,13.771,0,0,1,1.1-1.339,16.631,16.631,0,0,1,4.06,1.722,18.85,18.85,0,0,1,7.653,22.986Z" transform="translate(6372.758 1797.128)" fill="#1ba2bb"/>
      <g id="Group_235" data-name="Group 235" transform="translate(6441.315 1953.408)">
        <path id="Path_1584" data-name="Path 1584" d="M851.7,807.119a15.576,15.576,0,0,1-3.322-.77,1.23,1.23,0,1,0-.814,2.32,17.92,17.92,0,0,0,3.85.893,1.23,1.23,0,1,0,.289-2.443Z" transform="translate(-821.496 -788.617)" fill="#1ba2bb"/>
        <path id="Path_1585" data-name="Path 1585" d="M1318.165,606.433a1.23,1.23,0,0,0-1.651.552,13.356,13.356,0,0,1-1.877,2.8,1.23,1.23,0,1,0,1.857,1.615,15.8,15.8,0,0,0,2.223-3.313A1.23,1.23,0,0,0,1318.165,606.433Z" transform="translate(-1271.133 -596.352)" fill="#1ba2bb"/>
        <path id="Path_1586" data-name="Path 1586" d="M576.933,418.632a13.482,13.482,0,0,0-.129-1.654,1.231,1.231,0,0,0-2.437.341,10.741,10.741,0,0,1,.106,1.353,14.776,14.776,0,0,0,.229,2.367,1.231,1.231,0,1,0,2.422-.436A12.111,12.111,0,0,1,576.933,418.632Z" transform="translate(-559.632 -413.294)" fill="#1ba2bb"/>
        <path id="Path_1587" data-name="Path 1587" d="M1406.908,358.14a1.23,1.23,0,0,0-1.542.807,14.385,14.385,0,0,0-.677,3.965,1.231,1.231,0,0,0,2.461.055,11.928,11.928,0,0,1,.566-3.286A1.23,1.23,0,0,0,1406.908,358.14Z" transform="translate(-1358.011 -357.685)" fill="#1ba2bb"/>
        <path id="Path_1588" data-name="Path 1588" d="M1102.412,783.359a15.56,15.56,0,0,1-3.19,1.216,1.23,1.23,0,1,0,.615,2.381,18.1,18.1,0,0,0,3.691-1.405,1.231,1.231,0,1,0-1.122-2.191Z" transform="translate(-1063.368 -766.463)" fill="#1ba2bb"/>
        <path id="Path_1589" data-name="Path 1589" d="M647.4,657.5a1.23,1.23,0,0,0-2,1.435,16.638,16.638,0,0,0,2.689,2.926,1.23,1.23,0,0,0,1.6-1.86A14.235,14.235,0,0,1,647.4,657.5Z" transform="translate(-627.722 -645.08)" fill="#1ba2bb"/>
        <circle id="Ellipse_81" data-name="Ellipse 81" cx="1.23" cy="1.23" r="1.23" transform="translate(0 11.224)" fill="#1ba2bb"/>
        <path id="Path_1590" data-name="Path 1590" d="M219.577,347.961A16.2,16.2,0,0,0,214,355.55a1.231,1.231,0,1,0,2.322.818,13.716,13.716,0,0,1,4.72-6.428,1.23,1.23,0,1,0-1.463-1.978Z" transform="translate(-213.078 -347.72)" fill="#1ba2bb"/>
      </g>
    </g>
  </g>
</svg>
