<svg xmlns="http://www.w3.org/2000/svg" width="178.771" height="178.225" viewBox="0 0 178.771 178.225">
  <g id="Group_289" data-name="Group 289" transform="translate(-965 -2038)">
    <g id="Group_206" data-name="Group 206" transform="translate(468 592)">
      <path id="Path_1" data-name="Path 1" d="M219.609,91.989c-4.684.177-9.98-1.112-15.77-3.362A74.791,74.791,0,0,0,219.6,66.809a3.236,3.236,0,0,0-4.179-4.372c-4.345,1.767-9.76,2.363-15.969,2.229a74.829,74.829,0,0,0,7.359-25.89,3.234,3.234,0,0,0-5.42-2.68c-3.481,3.148-8.363,5.559-14.245,7.552A74.973,74.973,0,0,0,185.222,16.8a3.234,3.234,0,0,0-6.011-.666c-2.234,4.222-6.1,8.224-11.076,12.182A74.771,74.771,0,0,0,156.894,3.389a3.233,3.233,0,0,0-5.865,1.466c-.618,4.646-2.782,9.647-5.978,14.975A74.858,74.858,0,0,0,126.207.607,3.232,3.232,0,0,0,121.2,3.986c1.01,4.582.682,10.018-.5,16.119A75.016,75.016,0,0,0,96.423,8.476a3.232,3.232,0,0,0-3.556,4.888c2.514,3.959,4.066,9.185,5.038,15.319a74.877,74.877,0,0,0-26.787-2.632,3.235,3.235,0,0,0-1.67,5.812c3.717,2.863,6.956,7.241,9.969,12.676A74.9,74.9,0,0,0,53.34,51.216a3.234,3.234,0,0,0,.414,6.032c4.469,1.423,9.013,4.426,13.7,8.5A74.931,74.931,0,0,0,45.224,80.935a3.233,3.233,0,0,0,2.449,5.527c4.684-.193,9.985,1.08,15.781,3.314a74.946,74.946,0,0,0-15.7,21.867A3.233,3.233,0,0,0,51.943,116c4.34-1.783,9.754-2.4,15.964-2.277a74.877,74.877,0,0,0-7.284,25.911,3.235,3.235,0,0,0,5.43,2.664c3.47-3.158,8.347-5.581,14.223-7.6a74.825,74.825,0,0,0,2.014,26.841,3.234,3.234,0,0,0,6.011.65c2.181-4.152,5.935-8.1,10.77-12a74.846,74.846,0,0,0,11.065,24.542,3.234,3.234,0,0,0,5.871-1.445c.634-4.646,2.815-9.642,6.021-14.959a74.839,74.839,0,0,0,18.784,19.283,3.233,3.233,0,0,0,5.022-3.362c-.994-4.582-.65-10.023.548-16.114a74.935,74.935,0,0,0,24.241,11.7,3.233,3.233,0,0,0,3.572-4.877c-2.5-3.969-4.034-9.2-4.99-15.335a74.869,74.869,0,0,0,26.781,2.718,3.236,3.236,0,0,0,1.692-5.806c-3.706-2.874-6.934-7.262-9.932-12.7a74.919,74.919,0,0,0,26.094-6.6,3.233,3.233,0,0,0-.4-6.032c-4.464-1.434-9-4.458-13.675-8.546a74.8,74.8,0,0,0,22.27-15.12,3.232,3.232,0,0,0-2.433-5.532Z" transform="translate(452.749 1446)" fill="#fff"/>
      <g id="Group_2" data-name="Group 2" transform="translate(497 1446)">
        <path id="Path_2" data-name="Path 2" d="M202.085,90.81S182.716,61.5,197.96,42.694c11.054-13.638,20.126-25.75,21.507-36.128A3.234,3.234,0,0,1,225.332,5.1c14.857,21.324,15.029,45.544,11.65,56.764-3.9,12.94-18.5,27.824-34.892,28.941Z" transform="translate(-112.689 -1.716)" fill="#14a0b9" opacity="0.5"/>
        <path id="Path_3" data-name="Path 3" d="M191.967,89.094s-28.221-20.927-20.32-43.809c5.731-16.6,10.114-31.079,7.864-41.3A3.233,3.233,0,0,1,184.522.607c21.249,14.965,29.687,37.669,30.343,49.368.752,13.493-7.874,32.47-22.9,39.119Z" transform="translate(-102.571 0)" fill="#14a0b9" opacity="0.5"/>
        <path id="Path_4" data-name="Path 4" d="M175.079,96.293S141.406,86.27,141.014,62.067c-.285-17.559-1.112-32.668-6.72-41.5a3.232,3.232,0,0,1,3.556-4.888c25.084,6.805,40.774,25.256,45.388,36.026C188.555,64.124,186.928,84.906,175.079,96.293Z" transform="translate(-85.683 -7.199)" fill="#14a0b9" opacity="0.5"/>
        <path id="Path_5" data-name="Path 5" d="M154.234,111.315s-35.069,2.084-43.712-20.529c-6.268-16.4-12.209-30.321-20.5-36.708a3.235,3.235,0,0,1,1.67-5.812c25.9-2.175,46.951,9.8,54.965,18.348,9.244,9.862,14.814,29.945,7.574,44.695Z" transform="translate(-64.839 -22.221)" fill="#14a0b9" opacity="0.5"/>
        <path id="Path_6" data-name="Path 6" d="M139.85,127.3s-32.244,13.944-48.095-4.356c-11.495-13.273-21.834-24.321-31.8-27.5a3.234,3.234,0,0,1-.414-6.032c23.6-10.893,47.472-6.832,57.924-1.536C129.521,93.986,141.617,110.96,139.85,127.3Z" transform="translate(-50.455 -38.205)" fill="#14a0b9" opacity="0.5"/>
        <path id="Path_7" data-name="Path 7" d="M133.645,140.328S108.1,164.45,86.957,152.665c-15.341-8.546-28.833-15.4-39.286-14.97a3.232,3.232,0,0,1-2.449-5.527c18.451-18.3,42.283-22.64,53.912-21.238C112.551,112.547,129.724,124.364,133.645,140.328Z" transform="translate(-44.249 -51.233)" fill="#14a0b9" opacity="0.5"/>
        <path id="Path_8" data-name="Path 8" d="M136.388,151.5s-15.759,31.4-39.662,27.55c-17.333-2.793-32.357-4.619-42.036-.645a3.232,3.232,0,0,1-4.19-4.356c11.086-23.5,32-35.725,43.411-38.384C107.077,132.6,127.252,137.836,136.388,151.5Z" transform="translate(-46.993 -62.401)" fill="#14a0b9" opacity="0.5"/>
        <path id="Path_9" data-name="Path 9" d="M147.745,160.177s-4.082,34.892-27.861,39.447c-17.247,3.3-31.986,6.714-39.726,13.756a3.235,3.235,0,0,1-5.43-2.664c2.39-25.879,17.865-44.512,27.684-50.9C113.734,152.432,134.488,150.466,147.745,160.177Z" transform="translate(-58.349 -71.083)" fill="#14a0b9" opacity="0.5"/>
        <path id="Path_10" data-name="Path 10" d="M164.338,164.8s8.084,34.189-12.7,46.591c-15.077,9-27.77,17.242-32.636,26.5a3.232,3.232,0,0,1-6.011-.65c-6.6-25.138,1.585-47.934,8.621-57.3,8.121-10.8,26.948-19.745,42.729-15.147Z" transform="translate(-74.942 -75.707)" fill="#14a0b9" opacity="0.5"/>
        <path id="Path_11" data-name="Path 11" d="M178.956,165.87s19.283,29.37,3.98,48.127c-11.1,13.606-20.207,25.691-21.614,36.058a3.234,3.234,0,0,1-5.871,1.445c-14.793-21.367-14.895-45.592-11.473-56.8,3.943-12.929,18.579-27.764,34.983-28.833Z" transform="translate(-89.56 -76.776)" fill="#14a0b9" opacity="0.5"/>
        <path id="Path_12" data-name="Path 12" d="M190.806,165.865s28.157,21.013,20.185,43.868c-5.78,16.581-10.211,31.052-7.993,41.273a3.231,3.231,0,0,1-5.022,3.362c-21.2-15.029-29.575-37.76-30.192-49.459-.714-13.5,7.977-32.443,23.022-39.05Z" transform="translate(-101.411 -76.771)" fill="#14a0b9" opacity="0.5"/>
        <path id="Path_13" data-name="Path 13" d="M201.082,165.87s33.641,10.125,33.963,34.334c.231,17.559,1.015,32.668,6.591,41.52a3.233,3.233,0,0,1-3.572,4.877c-25.063-6.881-40.7-25.38-45.275-36.165C187.508,198,189.195,177.22,201.082,165.87Z" transform="translate(-111.686 -76.776)" fill="#14a0b9" opacity="0.5"/>
        <path id="Path_14" data-name="Path 14" d="M207.781,165.832s35.075-1.977,43.647,20.658c6.22,16.42,12.118,30.359,20.384,36.772a3.235,3.235,0,0,1-1.692,5.806c-25.9,2.1-46.919-9.948-54.906-18.515-9.217-9.889-14.723-29.988-7.434-44.722Z" transform="translate(-118.385 -76.738)" fill="#14a0b9" opacity="0.5"/>
        <path id="Path_15" data-name="Path 15" d="M210.523,161.553s32.287-13.847,48.079,4.5c11.457,13.31,21.759,24.391,31.723,27.593a3.233,3.233,0,0,1,.4,6.032c-23.629,10.823-47.493,6.687-57.93,1.359C220.755,194.893,208.707,177.887,210.523,161.553Z" transform="translate(-121.127 -72.459)" fill="#14a0b9" opacity="0.5"/>
        <path id="Path_16" data-name="Path 16" d="M210.68,152.532s25.616-24.042,46.725-12.2c15.314,8.594,28.785,15.486,39.238,15.093a3.232,3.232,0,0,1,2.433,5.532c-18.5,18.246-42.353,22.511-53.977,21.072C231.687,180.372,214.553,168.5,210.68,152.532Z" transform="translate(-121.284 -63.438)" fill="#14a0b9" opacity="0.5"/>
        <path id="Path_17" data-name="Path 17" d="M210.68,141.939s15.856-31.352,39.742-27.431c17.328,2.841,32.341,4.721,42.036.773a3.236,3.236,0,0,1,4.179,4.372c-11.156,23.473-32.11,35.628-43.529,38.249C239.932,160.927,219.774,155.625,210.68,141.939Z" transform="translate(-121.284 -52.845)" fill="#14a0b9" opacity="0.5"/>
        <path id="Path_18" data-name="Path 18" d="M210.68,119.453s4.19-34.881,27.979-39.361c17.258-3.25,32.008-6.617,39.769-13.638a3.233,3.233,0,0,1,5.42,2.68c-2.465,25.868-18,44.453-27.84,50.824C244.659,127.3,223.9,129.207,210.68,119.453Z" transform="translate(-121.284 -30.358)" fill="#14a0b9" opacity="0.5"/>
        <path id="Path_19" data-name="Path 19" d="M209.385,101.483S201.4,67.267,222.233,54.929c15.11-8.949,27.824-17.156,32.717-26.405a3.234,3.234,0,0,1,6.01.666c6.521,25.154-1.73,47.928-8.8,57.274-8.154,10.78-27.012,19.664-42.772,15.013Z" transform="translate(-119.99 -12.388)" fill="#14a0b9" opacity="0.5"/>
      </g>
    </g>
    <g id="Group_244" data-name="Group 244" transform="translate(-5364.343 181.442)">
      <path id="Path_1677" data-name="Path 1677" d="M61.465,14.072c9.6,0,15.474,13.684,9.964,24.536-1.353,2.658-2.086,4.4-3.048,6.065-1.335,2.3-2.418,4.453-6.133,4.453H36.237c-3.715,0-4.8-2.154-6.133-4.453-.964-1.663-1.7-3.406-3.042-6.065-5.512-10.851.359-24.536,9.958-24.536,5.22,0,9.34,2.763,12.223,3.186,2.889-.423,7.007-3.186,12.223-3.186Z" transform="translate(6369.756 1893.784)" fill="#fff"/>
      <path id="Path_1678" data-name="Path 1678" d="M59,48.409,55.369,75.963c-.711,4.277-3.885,5.724-8.275,5.724s-7.412-1.474-8.269-5.724L35.2,48.409Z" transform="translate(6371.902 1900.967)" fill="#fff" fill-rule="evenodd"/>
      <path id="Path_1679" data-name="Path 1679" d="M62.365,43.154v3.231a4,4,0,0,1-4.01,4H36.835a4,4,0,0,1-4.011-4V43.154Z" transform="translate(6371.406 1899.868)" fill="#fff" fill-rule="evenodd"/>
      <path id="Path_1680" data-name="Path 1680" d="M35.516,56.485l23.3-3.056a2.806,2.806,0,1,1,.751,5.561l-23.3,3.062A2.818,2.818,0,0,1,33.1,59.634a2.782,2.782,0,0,1,2.412-3.149Z" transform="translate(6371.458 1902.012)" fill="#fff" fill-rule="evenodd"/>
      <path id="Path_1681" data-name="Path 1681" d="M36.627,66.061l20.531-3.053a2.561,2.561,0,0,1,2.79,2.412,2.751,2.751,0,0,1-2.128,3.149L37.289,71.63A2.564,2.564,0,0,1,34.5,69.211a2.751,2.751,0,0,1,2.129-3.15Z" transform="translate(6371.751 1904.016)" fill="#fff" fill-rule="evenodd"/>
      <path id="Path_1684" data-name="Path 1684" d="M56.906,80.8l-.4,2.406a4.746,4.746,0,0,1-2.185,3.6,9.262,9.262,0,0,1-4.85,1.07c-2.053,0-3.735-.244-4.78-1.07a6.143,6.143,0,0,1-2.318-3.842ZM59.57,74.73c.612-.088,1.247.378,1.36,1.323a1.5,1.5,0,0,1-1.065,1.757L39.336,80.876c-.612.088-1.242-.371-1.356-1.322a1.519,1.519,0,0,1,1.058-1.77Zm-1.134-5.6-.416,3.287-16.778,2.5-.433-3.469Zm4.239-4.654a1.608,1.608,0,0,1-1.336,1.745l-23.294,3.06a1.554,1.554,0,0,1-1.763-1.354A1.5,1.5,0,0,1,37.61,66.2l23.309-3.063A1.435,1.435,0,0,1,62.675,64.477ZM39.027,57.953h20.89L59.5,60.785,39.782,63.374Zm-3.068-7.376c.169.006.34.019.509.019h26.01c.177,0,.347-.013.51-.019v2.116a2.714,2.714,0,0,1-2.746,2.752H38.711a2.72,2.72,0,0,1-2.752-2.752Zm1.254-35.067a14.645,14.645,0,0,1,8.156,2.514c3.068,1.784,6.455,3.363,9.659,3.734a1.259,1.259,0,0,0,.366-2.492,16.011,16.011,0,0,1-3.866-.989c.9-.3,2.242-.814,3.073-1.154a17.529,17.529,0,0,1,7.134-1.612c4.195,0,7.614,2.96,9.447,7.387a18.808,18.808,0,0,1-.647,15.354c-1.368,2.689-2.1,4.441-3.011,6.007A12.012,12.012,0,0,1,65.6,47.051a4.1,4.1,0,0,1-3.117,1.037H36.47a4.091,4.091,0,0,1-3.11-1.037,11.941,11.941,0,0,1-1.935-2.791c-.907-1.566-1.643-3.318-3-6.007A18.811,18.811,0,0,1,27.767,22.9c1.833-4.429,5.253-7.388,9.446-7.388Zm0-2.512c-5.38,0-9.654,3.83-11.766,8.937s-2.2,11.607-.069,15.839,2.854,5.989,3.874,7.747a13.149,13.149,0,0,0,2.406,3.387,6.178,6.178,0,0,0,1.788,1.122V52.7a5.262,5.262,0,0,0,2.96,4.7l.882,6.3a4.069,4.069,0,0,0,1.019,8.074l.446,3.515-.086.008a4,4,0,0,0-3.187,4.549,3.842,3.842,0,0,0,4.22,3.513l.247-.037a1.176,1.176,0,0,0,.025.334,7.817,7.817,0,0,0,3.376,5.265,11.231,11.231,0,0,0,6.127,1.468,11.563,11.563,0,0,0,6.191-1.45,7.539,7.539,0,0,0,3.318-5.327l.536-3.207.711-.106a4.13,4.13,0,0,0,.34-7.971l.446-3.542.649-.08a4.053,4.053,0,0,0,.377-7.973l.484-3.33A5.261,5.261,0,0,0,65.509,52.7V50.032a6.052,6.052,0,0,0,1.781-1.122A13.232,13.232,0,0,0,69.7,45.523c1.013-1.758,1.742-3.509,3.873-7.747s2.041-10.732-.071-15.839S67.12,13,61.735,13a20.323,20.323,0,0,0-8.073,1.794,16.5,16.5,0,0,1-5.82,1.519c-.353-.2-.875-.283-1.235-.479A17.818,17.818,0,0,0,37.213,13Z" transform="translate(6369.522 1893.559)" fill="#1ba2bb"/>
    </g>
  </g>
</svg>
