<svg xmlns="http://www.w3.org/2000/svg" width="178.771" height="178.225" viewBox="0 0 178.771 178.225">
  <g id="Group_287" data-name="Group 287" transform="translate(-965 -1578)">
    <g id="Group_206" data-name="Group 206" transform="translate(468 132)">
      <path id="Path_1" data-name="Path 1" d="M219.609,91.989c-4.684.177-9.98-1.112-15.77-3.362A74.791,74.791,0,0,0,219.6,66.809a3.236,3.236,0,0,0-4.179-4.372c-4.345,1.767-9.76,2.363-15.969,2.229a74.829,74.829,0,0,0,7.359-25.89,3.234,3.234,0,0,0-5.42-2.68c-3.481,3.148-8.363,5.559-14.245,7.552A74.973,74.973,0,0,0,185.222,16.8a3.234,3.234,0,0,0-6.011-.666c-2.234,4.222-6.1,8.224-11.076,12.182A74.771,74.771,0,0,0,156.894,3.389a3.233,3.233,0,0,0-5.865,1.466c-.618,4.646-2.782,9.647-5.978,14.975A74.858,74.858,0,0,0,126.207.607,3.232,3.232,0,0,0,121.2,3.986c1.01,4.582.682,10.018-.5,16.119A75.016,75.016,0,0,0,96.423,8.476a3.232,3.232,0,0,0-3.556,4.888c2.514,3.959,4.066,9.185,5.038,15.319a74.877,74.877,0,0,0-26.787-2.632,3.235,3.235,0,0,0-1.67,5.812c3.717,2.863,6.956,7.241,9.969,12.676A74.9,74.9,0,0,0,53.34,51.216a3.234,3.234,0,0,0,.414,6.032c4.469,1.423,9.013,4.426,13.7,8.5A74.931,74.931,0,0,0,45.224,80.935a3.233,3.233,0,0,0,2.449,5.527c4.684-.193,9.985,1.08,15.781,3.314a74.946,74.946,0,0,0-15.7,21.867A3.233,3.233,0,0,0,51.943,116c4.34-1.783,9.754-2.4,15.964-2.277a74.877,74.877,0,0,0-7.284,25.911,3.235,3.235,0,0,0,5.43,2.664c3.47-3.158,8.347-5.581,14.223-7.6a74.825,74.825,0,0,0,2.014,26.841,3.234,3.234,0,0,0,6.011.65c2.181-4.152,5.935-8.1,10.77-12a74.846,74.846,0,0,0,11.065,24.542,3.234,3.234,0,0,0,5.871-1.445c.634-4.646,2.815-9.642,6.021-14.959a74.839,74.839,0,0,0,18.784,19.283,3.233,3.233,0,0,0,5.022-3.362c-.994-4.582-.65-10.023.548-16.114a74.935,74.935,0,0,0,24.241,11.7,3.233,3.233,0,0,0,3.572-4.877c-2.5-3.969-4.034-9.2-4.99-15.335a74.869,74.869,0,0,0,26.781,2.718,3.236,3.236,0,0,0,1.692-5.806c-3.706-2.874-6.934-7.262-9.932-12.7a74.919,74.919,0,0,0,26.094-6.6,3.233,3.233,0,0,0-.4-6.032c-4.464-1.434-9-4.458-13.675-8.546a74.8,74.8,0,0,0,22.27-15.12,3.232,3.232,0,0,0-2.433-5.532Z" transform="translate(452.749 1446)" fill="#fff"/>
      <g id="Group_2" data-name="Group 2" transform="translate(497 1446)">
        <path id="Path_2" data-name="Path 2" d="M202.085,90.81S182.716,61.5,197.96,42.694c11.054-13.638,20.126-25.75,21.507-36.128A3.234,3.234,0,0,1,225.332,5.1c14.857,21.324,15.029,45.544,11.65,56.764-3.9,12.94-18.5,27.824-34.892,28.941Z" transform="translate(-112.689 -1.716)" fill="#14a0b9" opacity="0.5"/>
        <path id="Path_3" data-name="Path 3" d="M191.967,89.094s-28.221-20.927-20.32-43.809c5.731-16.6,10.114-31.079,7.864-41.3A3.233,3.233,0,0,1,184.522.607c21.249,14.965,29.687,37.669,30.343,49.368.752,13.493-7.874,32.47-22.9,39.119Z" transform="translate(-102.571 0)" fill="#14a0b9" opacity="0.5"/>
        <path id="Path_4" data-name="Path 4" d="M175.079,96.293S141.406,86.27,141.014,62.067c-.285-17.559-1.112-32.668-6.72-41.5a3.232,3.232,0,0,1,3.556-4.888c25.084,6.805,40.774,25.256,45.388,36.026C188.555,64.124,186.928,84.906,175.079,96.293Z" transform="translate(-85.683 -7.199)" fill="#14a0b9" opacity="0.5"/>
        <path id="Path_5" data-name="Path 5" d="M154.234,111.315s-35.069,2.084-43.712-20.529c-6.268-16.4-12.209-30.321-20.5-36.708a3.235,3.235,0,0,1,1.67-5.812c25.9-2.175,46.951,9.8,54.965,18.348,9.244,9.862,14.814,29.945,7.574,44.695Z" transform="translate(-64.839 -22.221)" fill="#14a0b9" opacity="0.5"/>
        <path id="Path_6" data-name="Path 6" d="M139.85,127.3s-32.244,13.944-48.095-4.356c-11.495-13.273-21.834-24.321-31.8-27.5a3.234,3.234,0,0,1-.414-6.032c23.6-10.893,47.472-6.832,57.924-1.536C129.521,93.986,141.617,110.96,139.85,127.3Z" transform="translate(-50.455 -38.205)" fill="#14a0b9" opacity="0.5"/>
        <path id="Path_7" data-name="Path 7" d="M133.645,140.328S108.1,164.45,86.957,152.665c-15.341-8.546-28.833-15.4-39.286-14.97a3.232,3.232,0,0,1-2.449-5.527c18.451-18.3,42.283-22.64,53.912-21.238C112.551,112.547,129.724,124.364,133.645,140.328Z" transform="translate(-44.249 -51.233)" fill="#14a0b9" opacity="0.5"/>
        <path id="Path_8" data-name="Path 8" d="M136.388,151.5s-15.759,31.4-39.662,27.55c-17.333-2.793-32.357-4.619-42.036-.645a3.232,3.232,0,0,1-4.19-4.356c11.086-23.5,32-35.725,43.411-38.384C107.077,132.6,127.252,137.836,136.388,151.5Z" transform="translate(-46.993 -62.401)" fill="#14a0b9" opacity="0.5"/>
        <path id="Path_9" data-name="Path 9" d="M147.745,160.177s-4.082,34.892-27.861,39.447c-17.247,3.3-31.986,6.714-39.726,13.756a3.235,3.235,0,0,1-5.43-2.664c2.39-25.879,17.865-44.512,27.684-50.9C113.734,152.432,134.488,150.466,147.745,160.177Z" transform="translate(-58.349 -71.083)" fill="#14a0b9" opacity="0.5"/>
        <path id="Path_10" data-name="Path 10" d="M164.338,164.8s8.084,34.189-12.7,46.591c-15.077,9-27.77,17.242-32.636,26.5a3.232,3.232,0,0,1-6.011-.65c-6.6-25.138,1.585-47.934,8.621-57.3,8.121-10.8,26.948-19.745,42.729-15.147Z" transform="translate(-74.942 -75.707)" fill="#14a0b9" opacity="0.5"/>
        <path id="Path_11" data-name="Path 11" d="M178.956,165.87s19.283,29.37,3.98,48.127c-11.1,13.606-20.207,25.691-21.614,36.058a3.234,3.234,0,0,1-5.871,1.445c-14.793-21.367-14.895-45.592-11.473-56.8,3.943-12.929,18.579-27.764,34.983-28.833Z" transform="translate(-89.56 -76.776)" fill="#14a0b9" opacity="0.5"/>
        <path id="Path_12" data-name="Path 12" d="M190.806,165.865s28.157,21.013,20.185,43.868c-5.78,16.581-10.211,31.052-7.993,41.273a3.231,3.231,0,0,1-5.022,3.362c-21.2-15.029-29.575-37.76-30.192-49.459-.714-13.5,7.977-32.443,23.022-39.05Z" transform="translate(-101.411 -76.771)" fill="#14a0b9" opacity="0.5"/>
        <path id="Path_13" data-name="Path 13" d="M201.082,165.87s33.641,10.125,33.963,34.334c.231,17.559,1.015,32.668,6.591,41.52a3.233,3.233,0,0,1-3.572,4.877c-25.063-6.881-40.7-25.38-45.275-36.165C187.508,198,189.195,177.22,201.082,165.87Z" transform="translate(-111.686 -76.776)" fill="#14a0b9" opacity="0.5"/>
        <path id="Path_14" data-name="Path 14" d="M207.781,165.832s35.075-1.977,43.647,20.658c6.22,16.42,12.118,30.359,20.384,36.772a3.235,3.235,0,0,1-1.692,5.806c-25.9,2.1-46.919-9.948-54.906-18.515-9.217-9.889-14.723-29.988-7.434-44.722Z" transform="translate(-118.385 -76.738)" fill="#14a0b9" opacity="0.5"/>
        <path id="Path_15" data-name="Path 15" d="M210.523,161.553s32.287-13.847,48.079,4.5c11.457,13.31,21.759,24.391,31.723,27.593a3.233,3.233,0,0,1,.4,6.032c-23.629,10.823-47.493,6.687-57.93,1.359C220.755,194.893,208.707,177.887,210.523,161.553Z" transform="translate(-121.127 -72.459)" fill="#14a0b9" opacity="0.5"/>
        <path id="Path_16" data-name="Path 16" d="M210.68,152.532s25.616-24.042,46.725-12.2c15.314,8.594,28.785,15.486,39.238,15.093a3.232,3.232,0,0,1,2.433,5.532c-18.5,18.246-42.353,22.511-53.977,21.072C231.687,180.372,214.553,168.5,210.68,152.532Z" transform="translate(-121.284 -63.438)" fill="#14a0b9" opacity="0.5"/>
        <path id="Path_17" data-name="Path 17" d="M210.68,141.939s15.856-31.352,39.742-27.431c17.328,2.841,32.341,4.721,42.036.773a3.236,3.236,0,0,1,4.179,4.372c-11.156,23.473-32.11,35.628-43.529,38.249C239.932,160.927,219.774,155.625,210.68,141.939Z" transform="translate(-121.284 -52.845)" fill="#14a0b9" opacity="0.5"/>
        <path id="Path_18" data-name="Path 18" d="M210.68,119.453s4.19-34.881,27.979-39.361c17.258-3.25,32.008-6.617,39.769-13.638a3.233,3.233,0,0,1,5.42,2.68c-2.465,25.868-18,44.453-27.84,50.824C244.659,127.3,223.9,129.207,210.68,119.453Z" transform="translate(-121.284 -30.358)" fill="#14a0b9" opacity="0.5"/>
        <path id="Path_19" data-name="Path 19" d="M209.385,101.483S201.4,67.267,222.233,54.929c15.11-8.949,27.824-17.156,32.717-26.405a3.234,3.234,0,0,1,6.01.666c6.521,25.154-1.73,47.928-8.8,57.274-8.154,10.78-27.012,19.664-42.772,15.013Z" transform="translate(-119.99 -12.388)" fill="#14a0b9" opacity="0.5"/>
      </g>
    </g>
    <g id="Group_242" data-name="Group 242" transform="translate(-5208 -100)">
      <path id="Path_1647" data-name="Path 1647" d="M48.3,1A19.839,19.839,0,0,0,34.936,5.858,19.839,19.839,0,0,0,21.575,1S7,1,7,11.931v3.086a30.276,30.276,0,0,0,4.73,16.509c.214.329.435.658.667.986a10.216,10.216,0,0,1,1.512,8.665,47.507,47.507,0,0,0-2.05,12.05s-.53,12.08,4.858,17.765a1.483,1.483,0,0,0,2.494-.632c1.747-6.225,7.783-24.421,15.725-24.421s13.979,18.2,15.725,24.421a1.483,1.483,0,0,0,2.494.632c5.388-5.684,4.858-17.765,4.858-17.765a47.561,47.561,0,0,0-2.049-12.05,10.212,10.212,0,0,1,1.512-8.665c.231-.328.454-.657.667-.986a30.285,30.285,0,0,0,4.728-16.509V11.931C62.872,1,48.3,1,48.3,1Z" transform="translate(6227.502 1731.215)" fill="#fff"/>
      <path id="Path_1648" data-name="Path 1648" d="M1,22H22.863v4.858H1Z" transform="translate(6226.215 1735.721)" fill="#fff"/>
      <path id="Path_1649" data-name="Path 1649" d="M41,22H62.863v4.858H41Z" transform="translate(6234.799 1735.721)" fill="#fff"/>
      <path id="Path_1650" data-name="Path 1650" d="M18,16H47.15V35.434H18Z" transform="translate(6229.863 1734.434)" fill="#fff"/>
      <path id="Path_1651" data-name="Path 1651" d="M23,20h4.858v9.717H23Z" transform="translate(6230.936 1735.292)" fill="#fff"/>
      <path id="Path_1652" data-name="Path 1652" d="M33,20h4.858v9.717H33Z" transform="translate(6233.082 1735.292)" fill="#fff"/>
      <path id="Path_1653" data-name="Path 1653" d="M21.215,13.717a1.215,1.215,0,0,1,0-2.429c3.511,0,8.407-4.946,10-6.852a1.215,1.215,0,0,1,1.866,1.556C32.42,6.783,26.49,13.717,21.215,13.717Z" transform="translate(6230.292 1731.858)" fill="#1ba2bb"/>
      <path id="Path_1654" data-name="Path 1654" d="M47.365,36.863H18.215A1.215,1.215,0,0,1,17,35.648V16.215A1.215,1.215,0,0,1,18.215,15h29.15a1.215,1.215,0,0,1,1.215,1.215V35.648A1.215,1.215,0,0,1,47.365,36.863ZM19.429,34.434H46.15v-17H19.429Z" transform="translate(6229.648 1734.219)" fill="#1ba2bb"/>
      <path id="Path_1655" data-name="Path 1655" d="M28.073,31.146H23.215A1.215,1.215,0,0,1,22,29.931V20.215A1.215,1.215,0,0,1,23.215,19h4.858a1.215,1.215,0,0,1,1.215,1.215v9.717A1.215,1.215,0,0,1,28.073,31.146Zm-3.644-2.429h2.429V21.429H24.429Z" transform="translate(6230.721 1735.077)" fill="#1ba2bb"/>
      <path id="Path_1656" data-name="Path 1656" d="M38.073,31.146H33.215A1.215,1.215,0,0,1,32,29.931V20.215A1.215,1.215,0,0,1,33.215,19h4.858a1.215,1.215,0,0,1,1.215,1.215v9.717A1.215,1.215,0,0,1,38.073,31.146Zm-3.644-2.429h2.429V21.429H34.429Z" transform="translate(6232.867 1735.077)" fill="#1ba2bb"/>
      <path id="Path_1657" data-name="Path 1657" d="M21.863,28.288H1.215A1.215,1.215,0,0,1,0,27.073V22.215A1.215,1.215,0,0,1,1.215,21H21.863a1.215,1.215,0,0,1,1.215,1.215v4.858A1.215,1.215,0,0,1,21.863,28.288ZM2.429,25.858H20.648V23.429H2.429Z" transform="translate(6226 1735.507)" fill="#1ba2bb"/>
      <path id="Path_1658" data-name="Path 1658" d="M62.863,28.288H42.215A1.215,1.215,0,0,1,41,27.073V22.215A1.215,1.215,0,0,1,42.215,21H62.863a1.215,1.215,0,0,1,1.215,1.215v4.858A1.215,1.215,0,0,1,62.863,28.288ZM43.429,25.858H61.648V23.429H43.429Z" transform="translate(6234.799 1735.507)" fill="#1ba2bb"/>
      <path id="Path_1659" data-name="Path 1659" d="M24.288,25.429H18.215a1.215,1.215,0,0,1,0-2.429h6.073a1.215,1.215,0,0,1,0,2.429Z" transform="translate(6229.648 1735.936)" fill="#1ba2bb"/>
      <path id="Path_1660" data-name="Path 1660" d="M34.5,25.429H27.215a1.215,1.215,0,0,1,0-2.429H34.5a1.215,1.215,0,0,1,0,2.429Z" transform="translate(6231.58 1735.936)" fill="#1ba2bb"/>
      <path id="Path_1661" data-name="Path 1661" d="M43.288,25.429H37.215a1.215,1.215,0,0,1,0-2.429h6.073a1.215,1.215,0,0,1,0,2.429Z" transform="translate(6233.726 1735.936)" fill="#1ba2bb"/>
      <path id="Path_1662" data-name="Path 1662" d="M52.325,72.877a2.808,2.808,0,0,1-.661-.08A2.708,2.708,0,0,1,49.707,70.9c-2.453-8.74-8.28-23.534-14.557-23.534S23.047,62.163,20.595,70.9A2.712,2.712,0,0,1,18.638,72.8a2.654,2.654,0,0,1-2.587-.754c-5.676-5.989-5.213-18.139-5.19-18.653A48.939,48.939,0,0,1,12.954,41.06a8.957,8.957,0,0,0-1.336-7.633q-.361-.512-.692-1.024c-.012-.019-.075-.124-.086-.143a1.288,1.288,0,0,1-.018-1.251,1.216,1.216,0,0,1,1.026-.644h7.514V27.936H9.38a1.214,1.214,0,0,1-1.13-.768A32.289,32.289,0,0,1,6,15.232V12.146C6,2.539,16.329,0,21.79,0A21.545,21.545,0,0,1,35.15,4.467,21.545,21.545,0,0,1,48.511,0C53.972,0,64.3,2.539,64.3,12.146v3.086a32.266,32.266,0,0,1-2.252,11.936,1.211,1.211,0,0,1-1.128.768H50.94v2.429h7.514a1.216,1.216,0,0,1,1.024,1.869l-.1.168q-.332.514-.694,1.026a8.949,8.949,0,0,0-1.336,7.633,49.04,49.04,0,0,1,2.1,12.382c.022.462.485,12.611-5.191,18.6A2.636,2.636,0,0,1,52.325,72.877ZM35.15,44.94c9.086,0,15.229,19.37,16.9,25.307a.268.268,0,0,0,.2.191.232.232,0,0,0,.24-.066c4.976-5.25,4.532-16.76,4.527-16.877a46.786,46.786,0,0,0-2-11.771,11.342,11.342,0,0,1,1.19-8.931H49.726a1.215,1.215,0,0,1-1.215-1.215V26.721a1.215,1.215,0,0,1,1.215-1.215H60.082a29.912,29.912,0,0,0,1.789-10.274V12.146c0-9.58-12.816-9.716-13.362-9.717a18.851,18.851,0,0,0-12.5,4.5,1.217,1.217,0,0,1-1.715,0,18.854,18.854,0,0,0-12.5-4.5c-.544,0-13.361.137-13.361,9.717v3.086a29.912,29.912,0,0,0,1.789,10.274H20.575a1.215,1.215,0,0,1,1.215,1.215V31.58a1.215,1.215,0,0,1-1.215,1.215H14.1a11.336,11.336,0,0,1,1.19,8.931,46.713,46.713,0,0,0-2,11.717c-.006.169-.44,11.691,4.526,16.929a.238.238,0,0,0,.242.067.264.264,0,0,0,.2-.191c1.666-5.937,7.809-25.307,16.9-25.307Z" transform="translate(6227.288 1731)" fill="#1ba2bb"/>
    </g>
  </g>
</svg>
