<svg xmlns="http://www.w3.org/2000/svg" width="178.771" height="178.225" viewBox="0 0 178.771 178.225">
  <g id="Group_283" data-name="Group 283" transform="translate(-300 -2037)">
    <g id="Group_206" data-name="Group 206" transform="translate(-197 591)">
      <path id="Path_1" data-name="Path 1" d="M219.609,91.989c-4.684.177-9.98-1.112-15.77-3.362A74.791,74.791,0,0,0,219.6,66.809a3.236,3.236,0,0,0-4.179-4.372c-4.345,1.767-9.76,2.363-15.969,2.229a74.829,74.829,0,0,0,7.359-25.89,3.234,3.234,0,0,0-5.42-2.68c-3.481,3.148-8.363,5.559-14.245,7.552A74.973,74.973,0,0,0,185.222,16.8a3.234,3.234,0,0,0-6.011-.666c-2.234,4.222-6.1,8.224-11.076,12.182A74.771,74.771,0,0,0,156.894,3.389a3.233,3.233,0,0,0-5.865,1.466c-.618,4.646-2.782,9.647-5.978,14.975A74.858,74.858,0,0,0,126.207.607,3.232,3.232,0,0,0,121.2,3.986c1.01,4.582.682,10.018-.5,16.119A75.016,75.016,0,0,0,96.423,8.476a3.232,3.232,0,0,0-3.556,4.888c2.514,3.959,4.066,9.185,5.038,15.319a74.877,74.877,0,0,0-26.787-2.632,3.235,3.235,0,0,0-1.67,5.812c3.717,2.863,6.956,7.241,9.969,12.676A74.9,74.9,0,0,0,53.34,51.216a3.234,3.234,0,0,0,.414,6.032c4.469,1.423,9.013,4.426,13.7,8.5A74.931,74.931,0,0,0,45.224,80.935a3.233,3.233,0,0,0,2.449,5.527c4.684-.193,9.985,1.08,15.781,3.314a74.946,74.946,0,0,0-15.7,21.867A3.233,3.233,0,0,0,51.943,116c4.34-1.783,9.754-2.4,15.964-2.277a74.877,74.877,0,0,0-7.284,25.911,3.235,3.235,0,0,0,5.43,2.664c3.47-3.158,8.347-5.581,14.223-7.6a74.825,74.825,0,0,0,2.014,26.841,3.234,3.234,0,0,0,6.011.65c2.181-4.152,5.935-8.1,10.77-12a74.846,74.846,0,0,0,11.065,24.542,3.234,3.234,0,0,0,5.871-1.445c.634-4.646,2.815-9.642,6.021-14.959a74.839,74.839,0,0,0,18.784,19.283,3.233,3.233,0,0,0,5.022-3.362c-.994-4.582-.65-10.023.548-16.114a74.935,74.935,0,0,0,24.241,11.7,3.233,3.233,0,0,0,3.572-4.877c-2.5-3.969-4.034-9.2-4.99-15.335a74.869,74.869,0,0,0,26.781,2.718,3.236,3.236,0,0,0,1.692-5.806c-3.706-2.874-6.934-7.262-9.932-12.7a74.919,74.919,0,0,0,26.094-6.6,3.233,3.233,0,0,0-.4-6.032c-4.464-1.434-9-4.458-13.675-8.546a74.8,74.8,0,0,0,22.27-15.12,3.232,3.232,0,0,0-2.433-5.532Z" transform="translate(452.749 1446)" fill="#fff"/>
      <g id="Group_2" data-name="Group 2" transform="translate(497 1446)">
        <path id="Path_2" data-name="Path 2" d="M202.085,90.81S182.716,61.5,197.96,42.694c11.054-13.638,20.126-25.75,21.507-36.128A3.234,3.234,0,0,1,225.332,5.1c14.857,21.324,15.029,45.544,11.65,56.764-3.9,12.94-18.5,27.824-34.892,28.941Z" transform="translate(-112.689 -1.716)" fill="#14a0b9" opacity="0.5"/>
        <path id="Path_3" data-name="Path 3" d="M191.967,89.094s-28.221-20.927-20.32-43.809c5.731-16.6,10.114-31.079,7.864-41.3A3.233,3.233,0,0,1,184.522.607c21.249,14.965,29.687,37.669,30.343,49.368.752,13.493-7.874,32.47-22.9,39.119Z" transform="translate(-102.571 0)" fill="#14a0b9" opacity="0.5"/>
        <path id="Path_4" data-name="Path 4" d="M175.079,96.293S141.406,86.27,141.014,62.067c-.285-17.559-1.112-32.668-6.72-41.5a3.232,3.232,0,0,1,3.556-4.888c25.084,6.805,40.774,25.256,45.388,36.026C188.555,64.124,186.928,84.906,175.079,96.293Z" transform="translate(-85.683 -7.199)" fill="#14a0b9" opacity="0.5"/>
        <path id="Path_5" data-name="Path 5" d="M154.234,111.315s-35.069,2.084-43.712-20.529c-6.268-16.4-12.209-30.321-20.5-36.708a3.235,3.235,0,0,1,1.67-5.812c25.9-2.175,46.951,9.8,54.965,18.348,9.244,9.862,14.814,29.945,7.574,44.695Z" transform="translate(-64.839 -22.221)" fill="#14a0b9" opacity="0.5"/>
        <path id="Path_6" data-name="Path 6" d="M139.85,127.3s-32.244,13.944-48.095-4.356c-11.495-13.273-21.834-24.321-31.8-27.5a3.234,3.234,0,0,1-.414-6.032c23.6-10.893,47.472-6.832,57.924-1.536C129.521,93.986,141.617,110.96,139.85,127.3Z" transform="translate(-50.455 -38.205)" fill="#14a0b9" opacity="0.5"/>
        <path id="Path_7" data-name="Path 7" d="M133.645,140.328S108.1,164.45,86.957,152.665c-15.341-8.546-28.833-15.4-39.286-14.97a3.232,3.232,0,0,1-2.449-5.527c18.451-18.3,42.283-22.64,53.912-21.238C112.551,112.547,129.724,124.364,133.645,140.328Z" transform="translate(-44.249 -51.233)" fill="#14a0b9" opacity="0.5"/>
        <path id="Path_8" data-name="Path 8" d="M136.388,151.5s-15.759,31.4-39.662,27.55c-17.333-2.793-32.357-4.619-42.036-.645a3.232,3.232,0,0,1-4.19-4.356c11.086-23.5,32-35.725,43.411-38.384C107.077,132.6,127.252,137.836,136.388,151.5Z" transform="translate(-46.993 -62.401)" fill="#14a0b9" opacity="0.5"/>
        <path id="Path_9" data-name="Path 9" d="M147.745,160.177s-4.082,34.892-27.861,39.447c-17.247,3.3-31.986,6.714-39.726,13.756a3.235,3.235,0,0,1-5.43-2.664c2.39-25.879,17.865-44.512,27.684-50.9C113.734,152.432,134.488,150.466,147.745,160.177Z" transform="translate(-58.349 -71.083)" fill="#14a0b9" opacity="0.5"/>
        <path id="Path_10" data-name="Path 10" d="M164.338,164.8s8.084,34.189-12.7,46.591c-15.077,9-27.77,17.242-32.636,26.5a3.232,3.232,0,0,1-6.011-.65c-6.6-25.138,1.585-47.934,8.621-57.3,8.121-10.8,26.948-19.745,42.729-15.147Z" transform="translate(-74.942 -75.707)" fill="#14a0b9" opacity="0.5"/>
        <path id="Path_11" data-name="Path 11" d="M178.956,165.87s19.283,29.37,3.98,48.127c-11.1,13.606-20.207,25.691-21.614,36.058a3.234,3.234,0,0,1-5.871,1.445c-14.793-21.367-14.895-45.592-11.473-56.8,3.943-12.929,18.579-27.764,34.983-28.833Z" transform="translate(-89.56 -76.776)" fill="#14a0b9" opacity="0.5"/>
        <path id="Path_12" data-name="Path 12" d="M190.806,165.865s28.157,21.013,20.185,43.868c-5.78,16.581-10.211,31.052-7.993,41.273a3.231,3.231,0,0,1-5.022,3.362c-21.2-15.029-29.575-37.76-30.192-49.459-.714-13.5,7.977-32.443,23.022-39.05Z" transform="translate(-101.411 -76.771)" fill="#14a0b9" opacity="0.5"/>
        <path id="Path_13" data-name="Path 13" d="M201.082,165.87s33.641,10.125,33.963,34.334c.231,17.559,1.015,32.668,6.591,41.52a3.233,3.233,0,0,1-3.572,4.877c-25.063-6.881-40.7-25.38-45.275-36.165C187.508,198,189.195,177.22,201.082,165.87Z" transform="translate(-111.686 -76.776)" fill="#14a0b9" opacity="0.5"/>
        <path id="Path_14" data-name="Path 14" d="M207.781,165.832s35.075-1.977,43.647,20.658c6.22,16.42,12.118,30.359,20.384,36.772a3.235,3.235,0,0,1-1.692,5.806c-25.9,2.1-46.919-9.948-54.906-18.515-9.217-9.889-14.723-29.988-7.434-44.722Z" transform="translate(-118.385 -76.738)" fill="#14a0b9" opacity="0.5"/>
        <path id="Path_15" data-name="Path 15" d="M210.523,161.553s32.287-13.847,48.079,4.5c11.457,13.31,21.759,24.391,31.723,27.593a3.233,3.233,0,0,1,.4,6.032c-23.629,10.823-47.493,6.687-57.93,1.359C220.755,194.893,208.707,177.887,210.523,161.553Z" transform="translate(-121.127 -72.459)" fill="#14a0b9" opacity="0.5"/>
        <path id="Path_16" data-name="Path 16" d="M210.68,152.532s25.616-24.042,46.725-12.2c15.314,8.594,28.785,15.486,39.238,15.093a3.232,3.232,0,0,1,2.433,5.532c-18.5,18.246-42.353,22.511-53.977,21.072C231.687,180.372,214.553,168.5,210.68,152.532Z" transform="translate(-121.284 -63.438)" fill="#14a0b9" opacity="0.5"/>
        <path id="Path_17" data-name="Path 17" d="M210.68,141.939s15.856-31.352,39.742-27.431c17.328,2.841,32.341,4.721,42.036.773a3.236,3.236,0,0,1,4.179,4.372c-11.156,23.473-32.11,35.628-43.529,38.249C239.932,160.927,219.774,155.625,210.68,141.939Z" transform="translate(-121.284 -52.845)" fill="#14a0b9" opacity="0.5"/>
        <path id="Path_18" data-name="Path 18" d="M210.68,119.453s4.19-34.881,27.979-39.361c17.258-3.25,32.008-6.617,39.769-13.638a3.233,3.233,0,0,1,5.42,2.68c-2.465,25.868-18,44.453-27.84,50.824C244.659,127.3,223.9,129.207,210.68,119.453Z" transform="translate(-121.284 -30.358)" fill="#14a0b9" opacity="0.5"/>
        <path id="Path_19" data-name="Path 19" d="M209.385,101.483S201.4,67.267,222.233,54.929c15.11-8.949,27.824-17.156,32.717-26.405a3.234,3.234,0,0,1,6.01.666c6.521,25.154-1.73,47.928-8.8,57.274-8.154,10.78-27.012,19.664-42.772,15.013Z" transform="translate(-119.99 -12.388)" fill="#14a0b9" opacity="0.5"/>
      </g>
    </g>
    <g id="Group_238" data-name="Group 238" transform="translate(-6047 436.951)">
      <path id="Path_1591" data-name="Path 1591" d="M44.427,232.81H73.141l2.477-3.17c.892-1.6,1.97-2.019,3.2-1.415a3.628,3.628,0,0,1,1.6,1.613c.92,1.727,1.077,9.813,1.072,14.923-.016,18.961-73.971,18.957-73.987,0,0-5.11.153-13.2,1.072-14.923a3.628,3.628,0,0,1,1.6-1.613c1.225-.6,2.3-.183,3.2,1.415l2.477,3.17H44.561" transform="translate(6391.615 1456.786)" fill="#fff"/>
      <path id="Path_1593" data-name="Path 1593" d="M154.287,78.8c-1.118-.042-4.854-.042-5.972,0-2.954.112-5.347.569-5.413,3.563-.1,4.692,1.737,19.576,2.788,23.924,1.1,4.558,10.084,4.959,11.221-.152.972-4.367,2.892-19.08,2.788-23.772C159.634,79.365,157.241,78.908,154.287,78.8Z" transform="translate(6276.337 1583.814)" fill="#fff"/>
      <path id="Path_1595" data-name="Path 1595" d="M267.388,78.8c-1.118-.042-4.854-.042-5.972,0-2.954.112-5.347.569-5.413,3.563-.1,4.692,1.737,19.576,2.788,23.924,1.1,4.558,10.084,4.959,11.221-.152.972-4.367,2.892-19.08,2.788-23.772C272.735,79.365,270.343,78.908,267.388,78.8Z" transform="translate(6180.042 1583.814)" fill="#fff"/>
      <path id="Path_1597" data-name="Path 1597" d="M380.49,76.008c-1.118-.043-4.854-.043-5.972,0-2.954.112-5.347.569-5.413,3.563-.1,4.692,1.737,17.919,2.788,22.268,1.1,4.558,10.084,4.959,11.221-.152.972-4.367,2.892-17.424,2.788-22.115C385.837,76.578,383.444,76.121,380.49,76.008Z" transform="translate(6083.748 1586.187)" fill="#fff"/>
      <path id="Path_1599" data-name="Path 1599" d="M41.186,76.008c-1.118-.043-4.854-.043-5.972,0-2.954.112-5.347.569-5.413,3.563-.1,4.692,1.737,17.919,2.788,22.268,1.1,4.558,10.084,4.959,11.221-.152C44.783,97.32,46.7,84.263,46.6,79.572,46.533,76.578,44.14,76.121,41.186,76.008Z" transform="translate(6372.631 1586.187)" fill="#fff"/>
      <path id="Path_1601" data-name="Path 1601" d="M59.144,208.4c2.369,0,3.046,3.078,8.376,3.077,6.176,0,6.718-6.361,12.267-3.077s10.874,1.807,13.1-2.233c2.05-3.715-.476-5.2-2.111-3.195-2.976,3.653-10.958,2.9-12.1-2.238-.091-.408-.19-.866-.295-1.366a2.318,2.318,0,0,0-4.548.073c-.259,1.4-.508,2.616-.724,3.508-1.1,4.543-10.051,4.943-11.185-.152-.2-.915-.449-2.154-.708-3.585a2.071,2.071,0,0,0-2.037-1.7h-.076a2.071,2.071,0,0,0-2.037,1.7c-.26,1.431-.5,2.67-.708,3.585-1.134,5.095-10.086,4.695-11.185.152-.216-.892-.465-2.1-.724-3.508a2.318,2.318,0,0,0-4.548-.073c-.105.5-.2.958-.295,1.366-1.144,5.142-9.126,5.89-12.1,2.238-1.635-2.006-4.161-.52-2.111,3.195,2.23,4.04,7.555,5.516,13.1,2.233s6.091,3.077,12.267,3.077c5.33,0,6.007-3.077,8.376-3.077Z" transform="translate(6377.03 1482.715)" fill="#fff"/>
      <path id="Path_1602" data-name="Path 1602" d="M75.01,93.526c-.766-1.439-2.5-2.81-4.236-2.4.991-5.927,2.068-14.339,1.988-17.964-.1-4.409-4.412-4.574-6.485-4.652-1.132-.043-4.925-.043-6.056,0-1.5.057-4.171.16-5.572,1.88-1.464-1.324-3.809-1.414-5.178-1.466-1.16-.044-4.9-.044-6.056,0-1.432.055-3.933.15-5.375,1.657-1.442-1.507-3.943-1.6-5.375-1.657-1.16-.044-4.9-.044-6.056,0-1.369.052-3.715.142-5.179,1.466-1.4-1.72-4.072-1.823-5.572-1.88-1.16-.044-4.9-.044-6.057,0-2.073.079-6.388.243-6.485,4.652C3.233,76.867,4.3,85.415,5.245,91.1A4.222,4.222,0,0,0,1.2,93.526C.395,95.039-.01,100.237,0,108.973c0,2.982,1.557,5.642,4.619,7.907,5.178,3.83,14.886,6.457,26.636,7.209,10.332.661,21.213.118,31.169-2.921a1.115,1.115,0,0,0-.651-2.132c-8.092,2.47-19.448,3.528-30.376,2.829-11.334-.725-20.611-3.195-25.453-6.776-2.463-1.822-3.713-3.88-3.715-6.117-.006-7.334.3-11.517.651-13.382a8.833,8.833,0,0,0,1.686,2.84,1.115,1.115,0,0,0,1.674-1.472c-.335-.38-2.211-3.392-1.337-3.622a.909.909,0,0,1,.734.491C7.707,96.426,11.662,97,14.7,96.1c3.218-.951,4.671-3.252,5.326-6.367a1.211,1.211,0,0,1,2.362.046c.265,1.439.52,2.673.736,3.568,1.449,5.992,12.024,5.813,13.356-.171.208-.935.456-2.19.717-3.628a1.007,1.007,0,0,1,1.957,0c.26,1.433.508,2.688.717,3.628,1.331,5.982,11.906,6.169,13.356.172.217-.9.471-2.129.736-3.568a1.208,1.208,0,0,1,2.362-.046c.693,3.294,2.328,5.684,5.789,6.5a9.091,9.091,0,0,0,7.376-1.3c.381-.09,1.574-1.855,1.957-1.6.135.091.346.9-.5,2.429a6.6,6.6,0,0,1-4.076,3.2,9.794,9.794,0,0,1-7.484-1.384c-3.744-2.215-5.849-.61-7.706.805a7.884,7.884,0,0,1-5.129,2.117,7.8,7.8,0,0,1-5.283-1.781,4.641,4.641,0,0,0-6.184,0A7.8,7.8,0,0,1,29.8,100.5h0a7.883,7.883,0,0,1-5.129-2.117c-1.857-1.416-3.963-3.02-7.706-.805A10.73,10.73,0,0,1,11.2,99.217a1.115,1.115,0,0,0-.08,2.227,12.927,12.927,0,0,0,6.98-1.95c2.452-1.45,3.435-.7,5.22.66a9.973,9.973,0,0,0,6.48,2.573h0a9.949,9.949,0,0,0,6.594-2.207c1.393-1.013,2.145-1.031,3.562,0a10.141,10.141,0,0,0,13.075-.366c1.785-1.361,2.768-2.11,5.22-.66a11.983,11.983,0,0,0,9.205,1.616,8.923,8.923,0,0,0,5.923-5.282,92.155,92.155,0,0,1,.608,13.142c0,2.961-2.154,5.572-6.395,7.762a1.116,1.116,0,0,0,1.023,1.981c4.969-2.566,7.6-5.935,7.6-9.741.007-8.737-.4-13.934-1.2-15.448ZM17.842,89.275c-.1.495-.2.949-.292,1.353a4.863,4.863,0,0,1-3.829,3.439A6.686,6.686,0,0,1,7.78,92.8a1.122,1.122,0,0,0-.017-.239C6.67,86.6,5.463,76.846,5.544,73.208c.035-1.566.693-2.335,4.342-2.474,1.1-.042,4.787-.042,5.887,0,3.649.139,4.307.908,4.341,2.474a115.789,115.789,0,0,1-1.478,14.5,3.4,3.4,0,0,0-.794,1.565ZM35,89.15c-.256,1.41-.5,2.635-.7,3.542-.3,1.346-1.6,2.793-4.359,2.818h-.058c-1.971,0-4.169-.916-4.6-2.686-.207-.857-.453-2.049-.711-3.448a3.433,3.433,0,0,0-1.035-1.889,122.476,122.476,0,0,1-1.192-13.864c.035-1.566.693-2.335,4.342-2.474,1.1-.042,4.787-.042,5.887,0,3.649.139,4.307.908,4.342,2.474a123.423,123.423,0,0,1-1.269,14.105A3.177,3.177,0,0,0,35,89.15Zm16.767.226c-.258,1.4-.5,2.592-.711,3.448-.428,1.77-2.625,2.686-4.6,2.686H46.4c-2.757-.025-4.059-1.472-4.359-2.818-.2-.912-.445-2.137-.7-3.542a3.177,3.177,0,0,0-1.013-1.8,121.274,121.274,0,0,1-1.174-13.723c.035-1.566.693-2.335,4.342-2.474,1.1-.042,4.787-.042,5.887,0,3.649.139,4.307.908,4.342,2.474a124.326,124.326,0,0,1-1.291,14.266A3.439,3.439,0,0,0,51.768,89.375Zm10.856,4.692a4.863,4.863,0,0,1-3.829-3.439c-.09-.4-.188-.858-.292-1.353a3.417,3.417,0,0,0-1.165-1.924,113.448,113.448,0,0,1-1.373-14.143c.034-1.566.693-2.335,4.342-2.474,1.1-.042,4.786-.042,5.887,0,3.649.139,4.307.908,4.342,2.474.087,3.954-1.341,14.361-2.378,19.934a6.914,6.914,0,0,1-5.532.925Z" transform="translate(6398.002 1592.576)" fill="#1ba2bb"/>
      <path id="Path_1603" data-name="Path 1603" d="M444.8,100.044a1.115,1.115,0,0,0-2.227-.1c-.1,2.253-.149,2.956-.589,6.734a1.115,1.115,0,0,0,2.214.258C444.644,103.112,444.7,102.331,444.8,100.044Z" transform="translate(6021.701 1566.657)" fill="#1ba2bb"/>
      <path id="Path_1604" data-name="Path 1604" d="M105.838,98.689a1.116,1.116,0,0,0-1.161,1.066c-.1,2.251-.149,2.954-.589,6.734a1.115,1.115,0,0,0,2.214.258c.446-3.83.5-4.612.6-6.9A1.115,1.115,0,0,0,105.838,98.689Z" transform="translate(6309.387 1566.851)" fill="#1ba2bb"/>
      <path id="Path_1605" data-name="Path 1605" d="M331.987,98.665a1.11,1.11,0,0,0-1.148,1.08c-.069,2.253-.112,2.957-.506,6.741a1.115,1.115,0,0,0,2.217.23c.4-3.834.447-4.616.517-6.9A1.115,1.115,0,0,0,331.987,98.665Z" transform="translate(6116.76 1566.871)" fill="#1ba2bb"/>
      <path id="Path_1606" data-name="Path 1606" d="M219.458,98.665a1.111,1.111,0,0,0-1.148,1.08c-.069,2.253-.112,2.957-.506,6.741a1.115,1.115,0,0,0,2.217.23c.4-3.834.447-4.616.517-6.9A1.114,1.114,0,0,0,219.458,98.665Z" transform="translate(6212.567 1566.871)" fill="#1ba2bb"/>
    </g>
  </g>
</svg>
