<svg xmlns="http://www.w3.org/2000/svg" width="178.771" height="178.225" viewBox="0 0 178.771 178.225">
  <g id="Group_285" data-name="Group 285" transform="translate(-300 -2496)">
    <g id="Group_206" data-name="Group 206" transform="translate(-197 1050)">
      <path id="Path_1" data-name="Path 1" d="M219.609,91.989c-4.684.177-9.98-1.112-15.77-3.362A74.791,74.791,0,0,0,219.6,66.809a3.236,3.236,0,0,0-4.179-4.372c-4.345,1.767-9.76,2.363-15.969,2.229a74.829,74.829,0,0,0,7.359-25.89,3.234,3.234,0,0,0-5.42-2.68c-3.481,3.148-8.363,5.559-14.245,7.552A74.973,74.973,0,0,0,185.222,16.8a3.234,3.234,0,0,0-6.011-.666c-2.234,4.222-6.1,8.224-11.076,12.182A74.771,74.771,0,0,0,156.894,3.389a3.233,3.233,0,0,0-5.865,1.466c-.618,4.646-2.782,9.647-5.978,14.975A74.858,74.858,0,0,0,126.207.607,3.232,3.232,0,0,0,121.2,3.986c1.01,4.582.682,10.018-.5,16.119A75.016,75.016,0,0,0,96.423,8.476a3.232,3.232,0,0,0-3.556,4.888c2.514,3.959,4.066,9.185,5.038,15.319a74.877,74.877,0,0,0-26.787-2.632,3.235,3.235,0,0,0-1.67,5.812c3.717,2.863,6.956,7.241,9.969,12.676A74.9,74.9,0,0,0,53.34,51.216a3.234,3.234,0,0,0,.414,6.032c4.469,1.423,9.013,4.426,13.7,8.5A74.931,74.931,0,0,0,45.224,80.935a3.233,3.233,0,0,0,2.449,5.527c4.684-.193,9.985,1.08,15.781,3.314a74.946,74.946,0,0,0-15.7,21.867A3.233,3.233,0,0,0,51.943,116c4.34-1.783,9.754-2.4,15.964-2.277a74.877,74.877,0,0,0-7.284,25.911,3.235,3.235,0,0,0,5.43,2.664c3.47-3.158,8.347-5.581,14.223-7.6a74.825,74.825,0,0,0,2.014,26.841,3.234,3.234,0,0,0,6.011.65c2.181-4.152,5.935-8.1,10.77-12a74.846,74.846,0,0,0,11.065,24.542,3.234,3.234,0,0,0,5.871-1.445c.634-4.646,2.815-9.642,6.021-14.959a74.839,74.839,0,0,0,18.784,19.283,3.233,3.233,0,0,0,5.022-3.362c-.994-4.582-.65-10.023.548-16.114a74.935,74.935,0,0,0,24.241,11.7,3.233,3.233,0,0,0,3.572-4.877c-2.5-3.969-4.034-9.2-4.99-15.335a74.869,74.869,0,0,0,26.781,2.718,3.236,3.236,0,0,0,1.692-5.806c-3.706-2.874-6.934-7.262-9.932-12.7a74.919,74.919,0,0,0,26.094-6.6,3.233,3.233,0,0,0-.4-6.032c-4.464-1.434-9-4.458-13.675-8.546a74.8,74.8,0,0,0,22.27-15.12,3.232,3.232,0,0,0-2.433-5.532Z" transform="translate(452.749 1446)" fill="#fff"/>
      <g id="Group_2" data-name="Group 2" transform="translate(497 1446)">
        <path id="Path_2" data-name="Path 2" d="M202.085,90.81S182.716,61.5,197.96,42.694c11.054-13.638,20.126-25.75,21.507-36.128A3.234,3.234,0,0,1,225.332,5.1c14.857,21.324,15.029,45.544,11.65,56.764-3.9,12.94-18.5,27.824-34.892,28.941Z" transform="translate(-112.689 -1.716)" fill="#14a0b9" opacity="0.5"/>
        <path id="Path_3" data-name="Path 3" d="M191.967,89.094s-28.221-20.927-20.32-43.809c5.731-16.6,10.114-31.079,7.864-41.3A3.233,3.233,0,0,1,184.522.607c21.249,14.965,29.687,37.669,30.343,49.368.752,13.493-7.874,32.47-22.9,39.119Z" transform="translate(-102.571 0)" fill="#14a0b9" opacity="0.5"/>
        <path id="Path_4" data-name="Path 4" d="M175.079,96.293S141.406,86.27,141.014,62.067c-.285-17.559-1.112-32.668-6.72-41.5a3.232,3.232,0,0,1,3.556-4.888c25.084,6.805,40.774,25.256,45.388,36.026C188.555,64.124,186.928,84.906,175.079,96.293Z" transform="translate(-85.683 -7.199)" fill="#14a0b9" opacity="0.5"/>
        <path id="Path_5" data-name="Path 5" d="M154.234,111.315s-35.069,2.084-43.712-20.529c-6.268-16.4-12.209-30.321-20.5-36.708a3.235,3.235,0,0,1,1.67-5.812c25.9-2.175,46.951,9.8,54.965,18.348,9.244,9.862,14.814,29.945,7.574,44.695Z" transform="translate(-64.839 -22.221)" fill="#14a0b9" opacity="0.5"/>
        <path id="Path_6" data-name="Path 6" d="M139.85,127.3s-32.244,13.944-48.095-4.356c-11.495-13.273-21.834-24.321-31.8-27.5a3.234,3.234,0,0,1-.414-6.032c23.6-10.893,47.472-6.832,57.924-1.536C129.521,93.986,141.617,110.96,139.85,127.3Z" transform="translate(-50.455 -38.205)" fill="#14a0b9" opacity="0.5"/>
        <path id="Path_7" data-name="Path 7" d="M133.645,140.328S108.1,164.45,86.957,152.665c-15.341-8.546-28.833-15.4-39.286-14.97a3.232,3.232,0,0,1-2.449-5.527c18.451-18.3,42.283-22.64,53.912-21.238C112.551,112.547,129.724,124.364,133.645,140.328Z" transform="translate(-44.249 -51.233)" fill="#14a0b9" opacity="0.5"/>
        <path id="Path_8" data-name="Path 8" d="M136.388,151.5s-15.759,31.4-39.662,27.55c-17.333-2.793-32.357-4.619-42.036-.645a3.232,3.232,0,0,1-4.19-4.356c11.086-23.5,32-35.725,43.411-38.384C107.077,132.6,127.252,137.836,136.388,151.5Z" transform="translate(-46.993 -62.401)" fill="#14a0b9" opacity="0.5"/>
        <path id="Path_9" data-name="Path 9" d="M147.745,160.177s-4.082,34.892-27.861,39.447c-17.247,3.3-31.986,6.714-39.726,13.756a3.235,3.235,0,0,1-5.43-2.664c2.39-25.879,17.865-44.512,27.684-50.9C113.734,152.432,134.488,150.466,147.745,160.177Z" transform="translate(-58.349 -71.083)" fill="#14a0b9" opacity="0.5"/>
        <path id="Path_10" data-name="Path 10" d="M164.338,164.8s8.084,34.189-12.7,46.591c-15.077,9-27.77,17.242-32.636,26.5a3.232,3.232,0,0,1-6.011-.65c-6.6-25.138,1.585-47.934,8.621-57.3,8.121-10.8,26.948-19.745,42.729-15.147Z" transform="translate(-74.942 -75.707)" fill="#14a0b9" opacity="0.5"/>
        <path id="Path_11" data-name="Path 11" d="M178.956,165.87s19.283,29.37,3.98,48.127c-11.1,13.606-20.207,25.691-21.614,36.058a3.234,3.234,0,0,1-5.871,1.445c-14.793-21.367-14.895-45.592-11.473-56.8,3.943-12.929,18.579-27.764,34.983-28.833Z" transform="translate(-89.56 -76.776)" fill="#14a0b9" opacity="0.5"/>
        <path id="Path_12" data-name="Path 12" d="M190.806,165.865s28.157,21.013,20.185,43.868c-5.78,16.581-10.211,31.052-7.993,41.273a3.231,3.231,0,0,1-5.022,3.362c-21.2-15.029-29.575-37.76-30.192-49.459-.714-13.5,7.977-32.443,23.022-39.05Z" transform="translate(-101.411 -76.771)" fill="#14a0b9" opacity="0.5"/>
        <path id="Path_13" data-name="Path 13" d="M201.082,165.87s33.641,10.125,33.963,34.334c.231,17.559,1.015,32.668,6.591,41.52a3.233,3.233,0,0,1-3.572,4.877c-25.063-6.881-40.7-25.38-45.275-36.165C187.508,198,189.195,177.22,201.082,165.87Z" transform="translate(-111.686 -76.776)" fill="#14a0b9" opacity="0.5"/>
        <path id="Path_14" data-name="Path 14" d="M207.781,165.832s35.075-1.977,43.647,20.658c6.22,16.42,12.118,30.359,20.384,36.772a3.235,3.235,0,0,1-1.692,5.806c-25.9,2.1-46.919-9.948-54.906-18.515-9.217-9.889-14.723-29.988-7.434-44.722Z" transform="translate(-118.385 -76.738)" fill="#14a0b9" opacity="0.5"/>
        <path id="Path_15" data-name="Path 15" d="M210.523,161.553s32.287-13.847,48.079,4.5c11.457,13.31,21.759,24.391,31.723,27.593a3.233,3.233,0,0,1,.4,6.032c-23.629,10.823-47.493,6.687-57.93,1.359C220.755,194.893,208.707,177.887,210.523,161.553Z" transform="translate(-121.127 -72.459)" fill="#14a0b9" opacity="0.5"/>
        <path id="Path_16" data-name="Path 16" d="M210.68,152.532s25.616-24.042,46.725-12.2c15.314,8.594,28.785,15.486,39.238,15.093a3.232,3.232,0,0,1,2.433,5.532c-18.5,18.246-42.353,22.511-53.977,21.072C231.687,180.372,214.553,168.5,210.68,152.532Z" transform="translate(-121.284 -63.438)" fill="#14a0b9" opacity="0.5"/>
        <path id="Path_17" data-name="Path 17" d="M210.68,141.939s15.856-31.352,39.742-27.431c17.328,2.841,32.341,4.721,42.036.773a3.236,3.236,0,0,1,4.179,4.372c-11.156,23.473-32.11,35.628-43.529,38.249C239.932,160.927,219.774,155.625,210.68,141.939Z" transform="translate(-121.284 -52.845)" fill="#14a0b9" opacity="0.5"/>
        <path id="Path_18" data-name="Path 18" d="M210.68,119.453s4.19-34.881,27.979-39.361c17.258-3.25,32.008-6.617,39.769-13.638a3.233,3.233,0,0,1,5.42,2.68c-2.465,25.868-18,44.453-27.84,50.824C244.659,127.3,223.9,129.207,210.68,119.453Z" transform="translate(-121.284 -30.358)" fill="#14a0b9" opacity="0.5"/>
        <path id="Path_19" data-name="Path 19" d="M209.385,101.483S201.4,67.267,222.233,54.929c15.11-8.949,27.824-17.156,32.717-26.405a3.234,3.234,0,0,1,6.01.666c6.521,25.154-1.73,47.928-8.8,57.274-8.154,10.78-27.012,19.664-42.772,15.013Z" transform="translate(-119.99 -12.388)" fill="#14a0b9" opacity="0.5"/>
      </g>
    </g>
    <g id="Group_240" data-name="Group 240" transform="translate(-6058.075 347.482)">
      <path id="Path_1613" data-name="Path 1613" d="M57.609,31.628l2.323-15.1A12.613,12.613,0,0,0,47.467,2h-1.9a12.652,12.652,0,0,0-8.944,3.7A12.65,12.65,0,0,0,27.679,2h-1.9A12.613,12.613,0,0,0,13.312,16.532l2.325,15.1" transform="translate(6411.144 2198.752)" fill="#fff"/>
      <path id="Path_1616" data-name="Path 1616" d="M18.636,13.641H16.167A8.651,8.651,0,0,1,24.808,5V7.469A6.179,6.179,0,0,0,18.636,13.641Z" transform="translate(6411.847 2199.456)" fill="#fff"/>
      <path id="Path_1617" data-name="Path 1617" d="M15.445,26.089c2.141,2.741,10.468,4.787,20.437,4.787,10.33,0,18.9-2.2,20.643-5.089C54.385,23.047,46.057,21,36.088,21,25.758,21,17.189,23.2,15.445,26.089Z" transform="translate(6411.678 2203.208)" fill="#fff"/>
      <path id="Path_1618" data-name="Path 1618" d="M48.326,38.345a8.317,8.317,0,0,1-3.7-6.921V29.7a3.7,3.7,0,0,0-3.7-3.7H28.574a3.7,3.7,0,0,0-3.7,3.7v1.721a8.319,8.319,0,0,1-3.7,6.921" transform="translate(6413.02 2204.38)" fill="#89cfdc"/>
      <path id="Path_1620" data-name="Path 1620" d="M35.919,36H55.671l-4.144,9.324a9.215,9.215,0,0,0-.794,3.742A38.791,38.791,0,0,1,46.638,66.41a3.052,3.052,0,0,1-5.781-1.365,62.173,62.173,0,0,0-1.48-13.486l-.453-2.038a3.078,3.078,0,0,0-6.01,0l-.453,2.038a62.172,62.172,0,0,0-1.48,13.486A3.051,3.051,0,0,1,25.2,66.408,38.787,38.787,0,0,1,21.1,49.063a9.215,9.215,0,0,0-.794-3.742L16.167,36Z" transform="translate(6411.847 2206.725)" fill="#fff"/>
      <path id="Path_1622" data-name="Path 1622" d="M59.055,32.049h.009l2.323-15.1A13.851,13.851,0,0,0,47.7,1H45.8a13.784,13.784,0,0,0-8.944,3.263A13.778,13.778,0,0,0,27.914,1h-1.9A13.846,13.846,0,0,0,12.328,16.956l2.323,15.1h.009c.226,3.768,7.044,5.563,11,6.286a7.048,7.048,0,0,1-2.795,4.637h-5.76a1.234,1.234,0,0,0-1.127,1.736l4.144,9.324a7.935,7.935,0,0,1,.688,3.241,40.238,40.238,0,0,0,4.224,17.9,4.285,4.285,0,0,0,8.118-1.917A61.115,61.115,0,0,1,34.6,60.035L35.057,58a1.844,1.844,0,0,1,3.6,0l.453,2.039a61.089,61.089,0,0,1,1.451,13.218,4.287,4.287,0,0,0,8.12,1.917,40.217,40.217,0,0,0,4.224-17.9,7.925,7.925,0,0,1,.689-3.241l4.143-9.324a1.235,1.235,0,0,0-1.128-1.736h-5.76a7.048,7.048,0,0,1-2.795-4.637c3.958-.723,10.775-2.518,11-6.287ZM26.015,3.469h1.9a11.338,11.338,0,0,1,8.07,3.342,1.234,1.234,0,0,0,1.746,0A11.341,11.341,0,0,1,45.8,3.469h1.9a11.381,11.381,0,0,1,11.246,13.11L57.1,28.612c-3.692-2.739-12-4.157-20.238-4.157s-16.546,1.417-20.238,4.157L14.767,16.579A11.381,11.381,0,0,1,26.015,3.469Zm25.323,49.56a10.381,10.381,0,0,0-.9,4.243,37.737,37.737,0,0,1-3.964,16.793,1.817,1.817,0,0,1-3.443-.812A63.453,63.453,0,0,0,41.52,59.5l-.453-2.039a4.312,4.312,0,0,0-8.419,0L32.194,59.5a63.47,63.47,0,0,0-1.51,13.753,1.817,1.817,0,0,1-3.442.812,37.737,37.737,0,0,1-3.964-16.793,10.4,10.4,0,0,0-.9-4.243l-3.374-7.587H54.71ZM26.327,42.973a9.524,9.524,0,0,0,1.889-5.685V35.566A2.471,2.471,0,0,1,30.685,33.1H43.03A2.471,2.471,0,0,1,45.5,35.566v1.722a9.521,9.521,0,0,0,1.889,5.685Zm21.641-7.129v-.278a4.943,4.943,0,0,0-4.938-4.938H30.685a4.943,4.943,0,0,0-4.938,4.938v.278c-6.263-1.18-8.641-3.028-8.641-3.981,0-1.723,6.784-4.938,19.752-4.938s19.752,3.215,19.752,4.938C56.609,32.815,54.23,34.663,47.968,35.844Z" transform="translate(6410.909 2198.518)" fill="#1ba2bb"/>
      <path id="Path_1623" data-name="Path 1623" d="M24.808,7.469V5a8.651,8.651,0,0,0-8.641,8.641h2.469A6.179,6.179,0,0,1,24.808,7.469Z" transform="translate(6411.847 2199.456)" fill="#1ba2bb"/>
    </g>
  </g>
</svg>
