<svg xmlns="http://www.w3.org/2000/svg" width="178.771" height="178.225" viewBox="0 0 178.771 178.225">
  <g id="Group_291" data-name="Group 291" transform="translate(-965 -2497)">
    <g id="Group_206" data-name="Group 206" transform="translate(468 1051)">
      <path id="Path_1" data-name="Path 1" d="M219.609,91.989c-4.684.177-9.98-1.112-15.77-3.362A74.791,74.791,0,0,0,219.6,66.809a3.236,3.236,0,0,0-4.179-4.372c-4.345,1.767-9.76,2.363-15.969,2.229a74.829,74.829,0,0,0,7.359-25.89,3.234,3.234,0,0,0-5.42-2.68c-3.481,3.148-8.363,5.559-14.245,7.552A74.973,74.973,0,0,0,185.222,16.8a3.234,3.234,0,0,0-6.011-.666c-2.234,4.222-6.1,8.224-11.076,12.182A74.771,74.771,0,0,0,156.894,3.389a3.233,3.233,0,0,0-5.865,1.466c-.618,4.646-2.782,9.647-5.978,14.975A74.858,74.858,0,0,0,126.207.607,3.232,3.232,0,0,0,121.2,3.986c1.01,4.582.682,10.018-.5,16.119A75.016,75.016,0,0,0,96.423,8.476a3.232,3.232,0,0,0-3.556,4.888c2.514,3.959,4.066,9.185,5.038,15.319a74.877,74.877,0,0,0-26.787-2.632,3.235,3.235,0,0,0-1.67,5.812c3.717,2.863,6.956,7.241,9.969,12.676A74.9,74.9,0,0,0,53.34,51.216a3.234,3.234,0,0,0,.414,6.032c4.469,1.423,9.013,4.426,13.7,8.5A74.931,74.931,0,0,0,45.224,80.935a3.233,3.233,0,0,0,2.449,5.527c4.684-.193,9.985,1.08,15.781,3.314a74.946,74.946,0,0,0-15.7,21.867A3.233,3.233,0,0,0,51.943,116c4.34-1.783,9.754-2.4,15.964-2.277a74.877,74.877,0,0,0-7.284,25.911,3.235,3.235,0,0,0,5.43,2.664c3.47-3.158,8.347-5.581,14.223-7.6a74.825,74.825,0,0,0,2.014,26.841,3.234,3.234,0,0,0,6.011.65c2.181-4.152,5.935-8.1,10.77-12a74.846,74.846,0,0,0,11.065,24.542,3.234,3.234,0,0,0,5.871-1.445c.634-4.646,2.815-9.642,6.021-14.959a74.839,74.839,0,0,0,18.784,19.283,3.233,3.233,0,0,0,5.022-3.362c-.994-4.582-.65-10.023.548-16.114a74.935,74.935,0,0,0,24.241,11.7,3.233,3.233,0,0,0,3.572-4.877c-2.5-3.969-4.034-9.2-4.99-15.335a74.869,74.869,0,0,0,26.781,2.718,3.236,3.236,0,0,0,1.692-5.806c-3.706-2.874-6.934-7.262-9.932-12.7a74.919,74.919,0,0,0,26.094-6.6,3.233,3.233,0,0,0-.4-6.032c-4.464-1.434-9-4.458-13.675-8.546a74.8,74.8,0,0,0,22.27-15.12,3.232,3.232,0,0,0-2.433-5.532Z" transform="translate(452.749 1446)" fill="#fff"/>
      <g id="Group_2" data-name="Group 2" transform="translate(497 1446)">
        <path id="Path_2" data-name="Path 2" d="M202.085,90.81S182.716,61.5,197.96,42.694c11.054-13.638,20.126-25.75,21.507-36.128A3.234,3.234,0,0,1,225.332,5.1c14.857,21.324,15.029,45.544,11.65,56.764-3.9,12.94-18.5,27.824-34.892,28.941Z" transform="translate(-112.689 -1.716)" fill="#14a0b9" opacity="0.5"/>
        <path id="Path_3" data-name="Path 3" d="M191.967,89.094s-28.221-20.927-20.32-43.809c5.731-16.6,10.114-31.079,7.864-41.3A3.233,3.233,0,0,1,184.522.607c21.249,14.965,29.687,37.669,30.343,49.368.752,13.493-7.874,32.47-22.9,39.119Z" transform="translate(-102.571 0)" fill="#14a0b9" opacity="0.5"/>
        <path id="Path_4" data-name="Path 4" d="M175.079,96.293S141.406,86.27,141.014,62.067c-.285-17.559-1.112-32.668-6.72-41.5a3.232,3.232,0,0,1,3.556-4.888c25.084,6.805,40.774,25.256,45.388,36.026C188.555,64.124,186.928,84.906,175.079,96.293Z" transform="translate(-85.683 -7.199)" fill="#14a0b9" opacity="0.5"/>
        <path id="Path_5" data-name="Path 5" d="M154.234,111.315s-35.069,2.084-43.712-20.529c-6.268-16.4-12.209-30.321-20.5-36.708a3.235,3.235,0,0,1,1.67-5.812c25.9-2.175,46.951,9.8,54.965,18.348,9.244,9.862,14.814,29.945,7.574,44.695Z" transform="translate(-64.839 -22.221)" fill="#14a0b9" opacity="0.5"/>
        <path id="Path_6" data-name="Path 6" d="M139.85,127.3s-32.244,13.944-48.095-4.356c-11.495-13.273-21.834-24.321-31.8-27.5a3.234,3.234,0,0,1-.414-6.032c23.6-10.893,47.472-6.832,57.924-1.536C129.521,93.986,141.617,110.96,139.85,127.3Z" transform="translate(-50.455 -38.205)" fill="#14a0b9" opacity="0.5"/>
        <path id="Path_7" data-name="Path 7" d="M133.645,140.328S108.1,164.45,86.957,152.665c-15.341-8.546-28.833-15.4-39.286-14.97a3.232,3.232,0,0,1-2.449-5.527c18.451-18.3,42.283-22.64,53.912-21.238C112.551,112.547,129.724,124.364,133.645,140.328Z" transform="translate(-44.249 -51.233)" fill="#14a0b9" opacity="0.5"/>
        <path id="Path_8" data-name="Path 8" d="M136.388,151.5s-15.759,31.4-39.662,27.55c-17.333-2.793-32.357-4.619-42.036-.645a3.232,3.232,0,0,1-4.19-4.356c11.086-23.5,32-35.725,43.411-38.384C107.077,132.6,127.252,137.836,136.388,151.5Z" transform="translate(-46.993 -62.401)" fill="#14a0b9" opacity="0.5"/>
        <path id="Path_9" data-name="Path 9" d="M147.745,160.177s-4.082,34.892-27.861,39.447c-17.247,3.3-31.986,6.714-39.726,13.756a3.235,3.235,0,0,1-5.43-2.664c2.39-25.879,17.865-44.512,27.684-50.9C113.734,152.432,134.488,150.466,147.745,160.177Z" transform="translate(-58.349 -71.083)" fill="#14a0b9" opacity="0.5"/>
        <path id="Path_10" data-name="Path 10" d="M164.338,164.8s8.084,34.189-12.7,46.591c-15.077,9-27.77,17.242-32.636,26.5a3.232,3.232,0,0,1-6.011-.65c-6.6-25.138,1.585-47.934,8.621-57.3,8.121-10.8,26.948-19.745,42.729-15.147Z" transform="translate(-74.942 -75.707)" fill="#14a0b9" opacity="0.5"/>
        <path id="Path_11" data-name="Path 11" d="M178.956,165.87s19.283,29.37,3.98,48.127c-11.1,13.606-20.207,25.691-21.614,36.058a3.234,3.234,0,0,1-5.871,1.445c-14.793-21.367-14.895-45.592-11.473-56.8,3.943-12.929,18.579-27.764,34.983-28.833Z" transform="translate(-89.56 -76.776)" fill="#14a0b9" opacity="0.5"/>
        <path id="Path_12" data-name="Path 12" d="M190.806,165.865s28.157,21.013,20.185,43.868c-5.78,16.581-10.211,31.052-7.993,41.273a3.231,3.231,0,0,1-5.022,3.362c-21.2-15.029-29.575-37.76-30.192-49.459-.714-13.5,7.977-32.443,23.022-39.05Z" transform="translate(-101.411 -76.771)" fill="#14a0b9" opacity="0.5"/>
        <path id="Path_13" data-name="Path 13" d="M201.082,165.87s33.641,10.125,33.963,34.334c.231,17.559,1.015,32.668,6.591,41.52a3.233,3.233,0,0,1-3.572,4.877c-25.063-6.881-40.7-25.38-45.275-36.165C187.508,198,189.195,177.22,201.082,165.87Z" transform="translate(-111.686 -76.776)" fill="#14a0b9" opacity="0.5"/>
        <path id="Path_14" data-name="Path 14" d="M207.781,165.832s35.075-1.977,43.647,20.658c6.22,16.42,12.118,30.359,20.384,36.772a3.235,3.235,0,0,1-1.692,5.806c-25.9,2.1-46.919-9.948-54.906-18.515-9.217-9.889-14.723-29.988-7.434-44.722Z" transform="translate(-118.385 -76.738)" fill="#14a0b9" opacity="0.5"/>
        <path id="Path_15" data-name="Path 15" d="M210.523,161.553s32.287-13.847,48.079,4.5c11.457,13.31,21.759,24.391,31.723,27.593a3.233,3.233,0,0,1,.4,6.032c-23.629,10.823-47.493,6.687-57.93,1.359C220.755,194.893,208.707,177.887,210.523,161.553Z" transform="translate(-121.127 -72.459)" fill="#14a0b9" opacity="0.5"/>
        <path id="Path_16" data-name="Path 16" d="M210.68,152.532s25.616-24.042,46.725-12.2c15.314,8.594,28.785,15.486,39.238,15.093a3.232,3.232,0,0,1,2.433,5.532c-18.5,18.246-42.353,22.511-53.977,21.072C231.687,180.372,214.553,168.5,210.68,152.532Z" transform="translate(-121.284 -63.438)" fill="#14a0b9" opacity="0.5"/>
        <path id="Path_17" data-name="Path 17" d="M210.68,141.939s15.856-31.352,39.742-27.431c17.328,2.841,32.341,4.721,42.036.773a3.236,3.236,0,0,1,4.179,4.372c-11.156,23.473-32.11,35.628-43.529,38.249C239.932,160.927,219.774,155.625,210.68,141.939Z" transform="translate(-121.284 -52.845)" fill="#14a0b9" opacity="0.5"/>
        <path id="Path_18" data-name="Path 18" d="M210.68,119.453s4.19-34.881,27.979-39.361c17.258-3.25,32.008-6.617,39.769-13.638a3.233,3.233,0,0,1,5.42,2.68c-2.465,25.868-18,44.453-27.84,50.824C244.659,127.3,223.9,129.207,210.68,119.453Z" transform="translate(-121.284 -30.358)" fill="#14a0b9" opacity="0.5"/>
        <path id="Path_19" data-name="Path 19" d="M209.385,101.483S201.4,67.267,222.233,54.929c15.11-8.949,27.824-17.156,32.717-26.405a3.234,3.234,0,0,1,6.01.666c6.521,25.154-1.73,47.928-8.8,57.274-8.154,10.78-27.012,19.664-42.772,15.013Z" transform="translate(-119.99 -12.388)" fill="#14a0b9" opacity="0.5"/>
      </g>
    </g>
    <g id="Group_246" data-name="Group 246" transform="translate(-5177.926 4.144)">
      <path id="Path_1705" data-name="Path 1705" d="M6237.245,2546.283a1.2,1.2,0,0,1-1.03-.583l-1.775-2.959a1.2,1.2,0,1,1,2.058-1.235l1.775,2.959a1.2,1.2,0,0,1-1.028,1.818Z" transform="translate(0.55 2.677)" fill="#fff"/>
      <path id="Path_1705-2" data-name="Path 1705" d="M6235.468,2546.283a1.2,1.2,0,0,0,1.03-.583l1.775-2.959a1.2,1.2,0,1,0-2.058-1.235l-1.775,2.959a1.2,1.2,0,0,0,1.028,1.818Z" transform="translate(11.831 2.677)" fill="#fff"/>
      <path id="Path_1705-3" data-name="Path 1705" d="M6237.245,2546.283a1.2,1.2,0,0,1-1.03-.583l-1.775-2.959a1.2,1.2,0,1,1,2.058-1.235l1.775,2.959a1.2,1.2,0,0,1-1.028,1.818Z" transform="translate(2113.505 -2776.723) rotate(30)" fill="#fff"/>
      <path id="Path_1694" data-name="Path 1694" d="M72.242,170.637l-5.435-13.225a4.813,4.813,0,0,0-4.452-2.984H12.313A4.813,4.813,0,0,0,7.5,159.241v32.49a4.813,4.813,0,0,0,4.813,4.813H82.428a4.813,4.813,0,0,0,4.813-4.813V180.279a4.814,4.814,0,0,0-3.291-4.566L74.2,172.461A3.209,3.209,0,0,1,72.242,170.637Z" transform="translate(6185.629 2405.203)" fill="#fff"/>
      <path id="Path_1696" data-name="Path 1696" d="M261,196.381V185.23a.8.8,0,0,1,.8-.8h12.615a.8.8,0,0,1,.744.5l4.488,11.151a.8.8,0,0,1-.744,1.1H261.8A.8.8,0,0,1,261,196.381Z" transform="translate(5972.802 2380.017)" fill="#fff"/>
      <path id="Path_1698" data-name="Path 1698" d="M474.5,323.928h4.813v2.407H474.5Z" transform="translate(5793.557 2262.899)" fill="#da4a54"/>
      <path id="Path_1699" data-name="Path 1699" d="M297.843,114.969H289.5V111.6a4.172,4.172,0,1,1,8.343,0Z" transform="translate(5948.875 2444.662)" fill="#fff"/>
      <circle id="Ellipse_82" data-name="Ellipse 82" cx="8.905" cy="8.905" r="8.905" transform="translate(6244.151 2592.843)" fill="#fff"/>
      <circle id="Ellipse_83" data-name="Ellipse 83" cx="2.407" cy="2.407" r="2.407" transform="translate(6250.649 2599.341)" fill="#f7f6f7"/>
      <circle id="Ellipse_84" data-name="Ellipse 84" cx="8.905" cy="8.905" r="8.905" transform="translate(6202.155 2592.843)" fill="#fff"/>
      <circle id="Ellipse_85" data-name="Ellipse 85" cx="2.407" cy="2.407" r="2.407" transform="translate(6208.653 2599.341)" fill="#f7f6f7"/>
      <path id="Path_1704" data-name="Path 1704" d="M78.034,71.847,68.279,68.6a2,2,0,0,1-1.22-1.142L61.623,54.229A6,6,0,0,0,56.058,50.5H56V48.334a5.375,5.375,0,0,0-10.75,0V50.5H6.017A6.023,6.023,0,0,0,0,56.517v7.942a1.2,1.2,0,1,0,2.407,0V56.517a3.614,3.614,0,0,1,3.61-3.61H35.859V78.9H2.407V70.074a1.2,1.2,0,1,0-2.407,0V89.007a6.023,6.023,0,0,0,6.017,6.017H9.1a10.106,10.106,0,0,0,20.068,0H51.1a10.106,10.106,0,0,0,20.068,0h4.968a6.023,6.023,0,0,0,6.017-6.017V77.554A6.007,6.007,0,0,0,78.034,71.847Zm-58.9,29.675a7.7,7.7,0,1,1,7.7-7.7A7.71,7.71,0,0,1,19.133,101.521Zm16.726-8.9H29.167a10.105,10.105,0,0,0-20.068,0H6.017a3.614,3.614,0,0,1-3.61-3.61v-7.7H35.859ZM47.652,48.334a2.968,2.968,0,0,1,5.936,0V50.5H47.652Zm13.477,53.187a7.7,7.7,0,1,1,7.7-7.7A7.71,7.71,0,0,1,61.129,101.521ZM79.741,78.9H61.387a1.2,1.2,0,0,0,0,2.407H79.741v7.7a3.614,3.614,0,0,1-3.61,3.61H71.163a10.105,10.105,0,0,0-20.068,0H38.266V81.305h17.5a1.2,1.2,0,0,0,0-2.407h-17.5V52.907H56.058A3.6,3.6,0,0,1,59.4,55.144l5.436,13.225a4.409,4.409,0,0,0,2.685,2.51l9.755,3.251a3.6,3.6,0,0,1,2.468,3.425ZM57.153,56.57a2,2,0,0,0-1.861-1.257H42.678a2.008,2.008,0,0,0-2.006,2.006V68.47a2.008,2.008,0,0,0,2.006,2.006h17.1a2.027,2.027,0,0,0,1.861-2.755Zm-14.074,11.5V57.72H55.022l4.166,10.349ZM61.129,90.21a3.61,3.61,0,1,0,3.61,3.61A3.614,3.614,0,0,0,61.129,90.21Zm0,4.813a1.2,1.2,0,1,1,1.2-1.2A1.2,1.2,0,0,1,61.129,95.023ZM20.577,55.313H17.689a2.168,2.168,0,0,0-2.166,2.166v4.813H10.71a2.168,2.168,0,0,0-2.166,2.166v2.888a2.168,2.168,0,0,0,2.166,2.166h4.813v4.813a2.168,2.168,0,0,0,2.166,2.166h2.888a2.168,2.168,0,0,0,2.166-2.166V69.513h4.813a2.168,2.168,0,0,0,2.166-2.166V64.459a2.168,2.168,0,0,0-2.166-2.166H22.743V57.479A2.168,2.168,0,0,0,20.577,55.313ZM27.316,64.7v2.407H22.021a1.687,1.687,0,0,0-1.685,1.685v5.295H17.93V68.791a1.687,1.687,0,0,0-1.685-1.685H10.95V64.7h5.295a1.687,1.687,0,0,0,1.685-1.685V57.72h2.407v5.295A1.687,1.687,0,0,0,22.021,64.7ZM19.133,90.21a3.61,3.61,0,1,0,3.61,3.61A3.614,3.614,0,0,0,19.133,90.21Zm0,4.813a1.2,1.2,0,1,1,1.2-1.2A1.2,1.2,0,0,1,19.133,95.023Z" transform="translate(6191.926 2507.928)" fill="#1ba2bb"/>
    </g>
  </g>
</svg>
