<svg xmlns="http://www.w3.org/2000/svg" width="178.771" height="178.225" viewBox="0 0 178.771 178.225">
  <g id="Group_281" data-name="Group 281" transform="translate(-300 -1578)">
    <g id="Group_206" data-name="Group 206" transform="translate(-197 132)">
      <path id="Path_1" data-name="Path 1" d="M219.609,91.989c-4.684.177-9.98-1.112-15.77-3.362A74.791,74.791,0,0,0,219.6,66.809a3.236,3.236,0,0,0-4.179-4.372c-4.345,1.767-9.76,2.363-15.969,2.229a74.829,74.829,0,0,0,7.359-25.89,3.234,3.234,0,0,0-5.42-2.68c-3.481,3.148-8.363,5.559-14.245,7.552A74.973,74.973,0,0,0,185.222,16.8a3.234,3.234,0,0,0-6.011-.666c-2.234,4.222-6.1,8.224-11.076,12.182A74.771,74.771,0,0,0,156.894,3.389a3.233,3.233,0,0,0-5.865,1.466c-.618,4.646-2.782,9.647-5.978,14.975A74.858,74.858,0,0,0,126.207.607,3.232,3.232,0,0,0,121.2,3.986c1.01,4.582.682,10.018-.5,16.119A75.016,75.016,0,0,0,96.423,8.476a3.232,3.232,0,0,0-3.556,4.888c2.514,3.959,4.066,9.185,5.038,15.319a74.877,74.877,0,0,0-26.787-2.632,3.235,3.235,0,0,0-1.67,5.812c3.717,2.863,6.956,7.241,9.969,12.676A74.9,74.9,0,0,0,53.34,51.216a3.234,3.234,0,0,0,.414,6.032c4.469,1.423,9.013,4.426,13.7,8.5A74.931,74.931,0,0,0,45.224,80.935a3.233,3.233,0,0,0,2.449,5.527c4.684-.193,9.985,1.08,15.781,3.314a74.946,74.946,0,0,0-15.7,21.867A3.233,3.233,0,0,0,51.943,116c4.34-1.783,9.754-2.4,15.964-2.277a74.877,74.877,0,0,0-7.284,25.911,3.235,3.235,0,0,0,5.43,2.664c3.47-3.158,8.347-5.581,14.223-7.6a74.825,74.825,0,0,0,2.014,26.841,3.234,3.234,0,0,0,6.011.65c2.181-4.152,5.935-8.1,10.77-12a74.846,74.846,0,0,0,11.065,24.542,3.234,3.234,0,0,0,5.871-1.445c.634-4.646,2.815-9.642,6.021-14.959a74.839,74.839,0,0,0,18.784,19.283,3.233,3.233,0,0,0,5.022-3.362c-.994-4.582-.65-10.023.548-16.114a74.935,74.935,0,0,0,24.241,11.7,3.233,3.233,0,0,0,3.572-4.877c-2.5-3.969-4.034-9.2-4.99-15.335a74.869,74.869,0,0,0,26.781,2.718,3.236,3.236,0,0,0,1.692-5.806c-3.706-2.874-6.934-7.262-9.932-12.7a74.919,74.919,0,0,0,26.094-6.6,3.233,3.233,0,0,0-.4-6.032c-4.464-1.434-9-4.458-13.675-8.546a74.8,74.8,0,0,0,22.27-15.12,3.232,3.232,0,0,0-2.433-5.532Z" transform="translate(452.749 1446)" fill="#fff"/>
      <g id="Group_2" data-name="Group 2" transform="translate(497 1446)">
        <path id="Path_2" data-name="Path 2" d="M202.085,90.81S182.716,61.5,197.96,42.694c11.054-13.638,20.126-25.75,21.507-36.128A3.234,3.234,0,0,1,225.332,5.1c14.857,21.324,15.029,45.544,11.65,56.764-3.9,12.94-18.5,27.824-34.892,28.941Z" transform="translate(-112.689 -1.716)" fill="#14a0b9" opacity="0.5"/>
        <path id="Path_3" data-name="Path 3" d="M191.967,89.094s-28.221-20.927-20.32-43.809c5.731-16.6,10.114-31.079,7.864-41.3A3.233,3.233,0,0,1,184.522.607c21.249,14.965,29.687,37.669,30.343,49.368.752,13.493-7.874,32.47-22.9,39.119Z" transform="translate(-102.571 0)" fill="#14a0b9" opacity="0.5"/>
        <path id="Path_4" data-name="Path 4" d="M175.079,96.293S141.406,86.27,141.014,62.067c-.285-17.559-1.112-32.668-6.72-41.5a3.232,3.232,0,0,1,3.556-4.888c25.084,6.805,40.774,25.256,45.388,36.026C188.555,64.124,186.928,84.906,175.079,96.293Z" transform="translate(-85.683 -7.199)" fill="#14a0b9" opacity="0.5"/>
        <path id="Path_5" data-name="Path 5" d="M154.234,111.315s-35.069,2.084-43.712-20.529c-6.268-16.4-12.209-30.321-20.5-36.708a3.235,3.235,0,0,1,1.67-5.812c25.9-2.175,46.951,9.8,54.965,18.348,9.244,9.862,14.814,29.945,7.574,44.695Z" transform="translate(-64.839 -22.221)" fill="#14a0b9" opacity="0.5"/>
        <path id="Path_6" data-name="Path 6" d="M139.85,127.3s-32.244,13.944-48.095-4.356c-11.495-13.273-21.834-24.321-31.8-27.5a3.234,3.234,0,0,1-.414-6.032c23.6-10.893,47.472-6.832,57.924-1.536C129.521,93.986,141.617,110.96,139.85,127.3Z" transform="translate(-50.455 -38.205)" fill="#14a0b9" opacity="0.5"/>
        <path id="Path_7" data-name="Path 7" d="M133.645,140.328S108.1,164.45,86.957,152.665c-15.341-8.546-28.833-15.4-39.286-14.97a3.232,3.232,0,0,1-2.449-5.527c18.451-18.3,42.283-22.64,53.912-21.238C112.551,112.547,129.724,124.364,133.645,140.328Z" transform="translate(-44.249 -51.233)" fill="#14a0b9" opacity="0.5"/>
        <path id="Path_8" data-name="Path 8" d="M136.388,151.5s-15.759,31.4-39.662,27.55c-17.333-2.793-32.357-4.619-42.036-.645a3.232,3.232,0,0,1-4.19-4.356c11.086-23.5,32-35.725,43.411-38.384C107.077,132.6,127.252,137.836,136.388,151.5Z" transform="translate(-46.993 -62.401)" fill="#14a0b9" opacity="0.5"/>
        <path id="Path_9" data-name="Path 9" d="M147.745,160.177s-4.082,34.892-27.861,39.447c-17.247,3.3-31.986,6.714-39.726,13.756a3.235,3.235,0,0,1-5.43-2.664c2.39-25.879,17.865-44.512,27.684-50.9C113.734,152.432,134.488,150.466,147.745,160.177Z" transform="translate(-58.349 -71.083)" fill="#14a0b9" opacity="0.5"/>
        <path id="Path_10" data-name="Path 10" d="M164.338,164.8s8.084,34.189-12.7,46.591c-15.077,9-27.77,17.242-32.636,26.5a3.232,3.232,0,0,1-6.011-.65c-6.6-25.138,1.585-47.934,8.621-57.3,8.121-10.8,26.948-19.745,42.729-15.147Z" transform="translate(-74.942 -75.707)" fill="#14a0b9" opacity="0.5"/>
        <path id="Path_11" data-name="Path 11" d="M178.956,165.87s19.283,29.37,3.98,48.127c-11.1,13.606-20.207,25.691-21.614,36.058a3.234,3.234,0,0,1-5.871,1.445c-14.793-21.367-14.895-45.592-11.473-56.8,3.943-12.929,18.579-27.764,34.983-28.833Z" transform="translate(-89.56 -76.776)" fill="#14a0b9" opacity="0.5"/>
        <path id="Path_12" data-name="Path 12" d="M190.806,165.865s28.157,21.013,20.185,43.868c-5.78,16.581-10.211,31.052-7.993,41.273a3.231,3.231,0,0,1-5.022,3.362c-21.2-15.029-29.575-37.76-30.192-49.459-.714-13.5,7.977-32.443,23.022-39.05Z" transform="translate(-101.411 -76.771)" fill="#14a0b9" opacity="0.5"/>
        <path id="Path_13" data-name="Path 13" d="M201.082,165.87s33.641,10.125,33.963,34.334c.231,17.559,1.015,32.668,6.591,41.52a3.233,3.233,0,0,1-3.572,4.877c-25.063-6.881-40.7-25.38-45.275-36.165C187.508,198,189.195,177.22,201.082,165.87Z" transform="translate(-111.686 -76.776)" fill="#14a0b9" opacity="0.5"/>
        <path id="Path_14" data-name="Path 14" d="M207.781,165.832s35.075-1.977,43.647,20.658c6.22,16.42,12.118,30.359,20.384,36.772a3.235,3.235,0,0,1-1.692,5.806c-25.9,2.1-46.919-9.948-54.906-18.515-9.217-9.889-14.723-29.988-7.434-44.722Z" transform="translate(-118.385 -76.738)" fill="#14a0b9" opacity="0.5"/>
        <path id="Path_15" data-name="Path 15" d="M210.523,161.553s32.287-13.847,48.079,4.5c11.457,13.31,21.759,24.391,31.723,27.593a3.233,3.233,0,0,1,.4,6.032c-23.629,10.823-47.493,6.687-57.93,1.359C220.755,194.893,208.707,177.887,210.523,161.553Z" transform="translate(-121.127 -72.459)" fill="#14a0b9" opacity="0.5"/>
        <path id="Path_16" data-name="Path 16" d="M210.68,152.532s25.616-24.042,46.725-12.2c15.314,8.594,28.785,15.486,39.238,15.093a3.232,3.232,0,0,1,2.433,5.532c-18.5,18.246-42.353,22.511-53.977,21.072C231.687,180.372,214.553,168.5,210.68,152.532Z" transform="translate(-121.284 -63.438)" fill="#14a0b9" opacity="0.5"/>
        <path id="Path_17" data-name="Path 17" d="M210.68,141.939s15.856-31.352,39.742-27.431c17.328,2.841,32.341,4.721,42.036.773a3.236,3.236,0,0,1,4.179,4.372c-11.156,23.473-32.11,35.628-43.529,38.249C239.932,160.927,219.774,155.625,210.68,141.939Z" transform="translate(-121.284 -52.845)" fill="#14a0b9" opacity="0.5"/>
        <path id="Path_18" data-name="Path 18" d="M210.68,119.453s4.19-34.881,27.979-39.361c17.258-3.25,32.008-6.617,39.769-13.638a3.233,3.233,0,0,1,5.42,2.68c-2.465,25.868-18,44.453-27.84,50.824C244.659,127.3,223.9,129.207,210.68,119.453Z" transform="translate(-121.284 -30.358)" fill="#14a0b9" opacity="0.5"/>
        <path id="Path_19" data-name="Path 19" d="M209.385,101.483S201.4,67.267,222.233,54.929c15.11-8.949,27.824-17.156,32.717-26.405a3.234,3.234,0,0,1,6.01.666c6.521,25.154-1.73,47.928-8.8,57.274-8.154,10.78-27.012,19.664-42.772,15.013Z" transform="translate(-119.99 -12.388)" fill="#14a0b9" opacity="0.5"/>
      </g>
    </g>
    <g id="Group_234" data-name="Group 234" transform="translate(-6378.561 285.612)">
      <path id="Path_1574" data-name="Path 1574" d="M83.885,151.859a12.225,12.225,0,0,0-4.427.778,21.092,21.092,0,0,1-15.184,0,12.225,12.225,0,0,0-4.427-.778c-11.165,0-16.489,14.968-11.355,27.328s6.465,30.266,13.881,30.266c6.465,0,5.6-14.729,7.2-23.116a2.334,2.334,0,0,1,4.588,0c1.6,8.387.763,23.116,7.2,23.116,7.416,0,8.747-17.906,13.881-30.266S95.049,151.859,83.885,151.859Z" transform="translate(6692.189 1212.486)" fill="#fff"/>
      <path id="Path_1576" data-name="Path 1576" d="M66,104.574a6.115,6.115,0,0,0-6.053-7c-.067,0-.134,0-.2.005a8,8,0,0,0-12.1-4.979,11.209,11.209,0,0,0-15.027,1.061,8,8,0,0,0-12.391,4.642,6.117,6.117,0,0,0-8.2,8.432,6.119,6.119,0,1,0,6.9,2.862,6.131,6.131,0,0,0,3.931-3.271,8,8,0,0,0,8.442,1.178,11.219,11.219,0,0,0,19.043-.3,8.048,8.048,0,0,0,4.382-.335,6.136,6.136,0,0,0,3.245,2.611A6.117,6.117,0,1,0,66,104.574Z" transform="translate(6724.744 1263.914)" fill="#fff"/>
      <path id="Path_1578" data-name="Path 1578" d="M187.552,25.913a1.219,1.219,0,0,1-1.219,1.219H164.409a3.151,3.151,0,0,1-2.228-.923L154.168,18.2H125.949a1.219,1.219,0,0,1-1.219-1.219V13.113a1.219,1.219,0,0,1,1.219-1.219h29.524a3.152,3.152,0,0,1,2.228.923l8.013,8.013h20.619a1.219,1.219,0,0,1,1.219,1.219v3.865Z" transform="translate(6626.957 1329.238)" fill="#fff"/>
      <path id="Path_1579" data-name="Path 1579" d="M141.825,49.895h23.734v11.11H141.825Z" transform="translate(6612.697 1297.539)" fill="#fefefe"/>
      <circle id="Ellipse_77" data-name="Ellipse 77" cx="1.244" cy="1.244" r="1.244" transform="translate(6738.744 1352.214)" fill="#fff"/>
      <circle id="Ellipse_78" data-name="Ellipse 78" cx="1.244" cy="1.244" r="1.244" transform="translate(6796.668 1364.918)" fill="#fff"/>
      <circle id="Ellipse_79" data-name="Ellipse 79" cx="1.244" cy="1.244" r="1.244" transform="translate(6750.443 1377.875)" fill="#1ba2bb"/>
      <circle id="Ellipse_80" data-name="Ellipse 80" cx="1.244" cy="1.244" r="1.244" transform="translate(6762.812 1364.918)" fill="#1ba2bb"/>
      <path id="Path_1580" data-name="Path 1580" d="M82.29,13.331h-20.1L54.538,5.682A4.367,4.367,0,0,0,51.43,4.395H36.017a1.244,1.244,0,1,0,0,2.488H51.43a1.9,1.9,0,0,1,1.349.559l8.013,8.013a1.244,1.244,0,0,0,.88.364H82.265v3.815h-21.9a1.9,1.9,0,0,1-1.349-.559L51,11.062a1.244,1.244,0,0,0-.88-.364H21.931V6.883h9.11a1.244,1.244,0,0,0,0-2.488H21.905a2.465,2.465,0,0,0-2.463,2.463v3.865a2.465,2.465,0,0,0,2.463,2.463h.373v6.208c-.175-.01-.35-.016-.525-.016a9.223,9.223,0,0,0-8.542,5.693,7.36,7.36,0,0,0-9.111,9.4A7.361,7.361,0,0,0,6.554,48.383a26.91,26.91,0,0,0,1.979,8.274,111.491,111.491,0,0,1,4.1,12.9l.12.435a1.244,1.244,0,1,0,2.4-.66l-.119-.435a113.311,113.311,0,0,0-4.2-13.2,24.432,24.432,0,0,1-1.793-7.47,7.358,7.358,0,0,0,5.3-9.517,7.35,7.35,0,0,0,2.624-2.177,9.251,9.251,0,0,0,7.621.9,12.463,12.463,0,0,0,20.107-.458,9.31,9.31,0,0,0,3.283-.232A7.394,7.394,0,0,0,50.4,38.7c0,.027,0,.053,0,.08a7.369,7.369,0,0,0,6.747,7.334A24.652,24.652,0,0,1,55.28,55.7a113.3,113.3,0,0,0-4.2,13.2c-2.3,8.383-4.48,16.3-8.529,16.3-3.635,0-4.379-7.727-5.037-14.544-.264-2.739-.514-5.327-.94-7.561a3.5,3.5,0,0,0-3.516-2.915h0A3.5,3.5,0,0,0,29.539,63.1c-.427,2.239-.675,4.832-.937,7.577-.65,6.809-1.387,14.527-5.04,14.527-3.287,0-5.32-5.281-7.027-10.988a1.244,1.244,0,1,0-2.383.713C16,81.1,18.4,87.69,23.562,87.69c2.726,0,4.7-1.975,5.853-5.869a61.738,61.738,0,0,0,1.663-10.909c.256-2.686.5-5.223.9-7.348a1.09,1.09,0,0,1,2.144,0c.4,2.121.649,4.653.907,7.334a62.106,62.106,0,0,0,1.671,10.917c1.158,3.9,3.124,5.876,5.842,5.876,2.783,0,5.048-1.934,6.927-5.914a80.886,80.886,0,0,0,4-12.216,111.486,111.486,0,0,1,4.1-12.9A27.153,27.153,0,0,0,59.632,45.9a7.361,7.361,0,0,0,1.42-13.7c0-.027,0-.054,0-.081a7.371,7.371,0,0,0-6.613-7.323A9.2,9.2,0,0,0,48.5,18.97V13.185h1.109l7.648,7.648a4.367,4.367,0,0,0,3.108,1.287H82.29a2.466,2.466,0,0,0,2.463-2.463V15.793A2.465,2.465,0,0,0,82.29,13.33Zm-45.7,8.477V13.185h3.73v8.622Zm-6.218,0V13.185H34.1v8.622Zm-2.488-8.622v8.622H24.766V13.185ZM52.278,26.278a1.238,1.238,0,0,0,1.252.968h.047l.115,0a4.879,4.879,0,0,1,4.873,4.873,4.945,4.945,0,0,1-.051.7,1.244,1.244,0,0,0,.828,1.354,4.873,4.873,0,1,1-6.453,4.61,4.946,4.946,0,0,1,.051-.7,1.244,1.244,0,0,0-.828-1.353,4.892,4.892,0,0,1-2.586-2.081,1.244,1.244,0,0,0-1.494-.519,6.74,6.74,0,0,1-2.347.419,6.811,6.811,0,0,1-1.355-.136,1.244,1.244,0,0,0-1.313.577,9.975,9.975,0,0,1-16.933.268,1.244,1.244,0,0,0-1.556-.459,6.758,6.758,0,0,1-7.13-1,1.244,1.244,0,0,0-1.924.414,4.869,4.869,0,0,1-3.131,2.606,1.244,1.244,0,0,0-.755,1.822,4.873,4.873,0,1,1-5.494-2.281,1.244,1.244,0,0,0,.755-1.822,4.874,4.874,0,0,1,6.536-6.717,1.244,1.244,0,0,0,1.8-.8,6.742,6.742,0,0,1,6.569-5.157c.175,0,.35.009.525.022v1.163A1.244,1.244,0,0,0,23.522,24.3H47.256A1.244,1.244,0,0,0,48.5,23.051V21.638a6.825,6.825,0,0,1,3.778,4.641Zm-6.266-4.471h-3.2V13.185h3.2Z" transform="translate(6731 1335.493)" fill="#1ba2bb"/>
    </g>
  </g>
</svg>
