<svg xmlns="http://www.w3.org/2000/svg" width="178.771" height="178.225" viewBox="0 0 178.771 178.225">
  <g id="Group_290" data-name="Group 290" transform="translate(-965 -2267)">
    <g id="Group_206" data-name="Group 206" transform="translate(468 821)">
      <path id="Path_1" data-name="Path 1" d="M219.609,91.989c-4.684.177-9.98-1.112-15.77-3.362A74.791,74.791,0,0,0,219.6,66.809a3.236,3.236,0,0,0-4.179-4.372c-4.345,1.767-9.76,2.363-15.969,2.229a74.829,74.829,0,0,0,7.359-25.89,3.234,3.234,0,0,0-5.42-2.68c-3.481,3.148-8.363,5.559-14.245,7.552A74.973,74.973,0,0,0,185.222,16.8a3.234,3.234,0,0,0-6.011-.666c-2.234,4.222-6.1,8.224-11.076,12.182A74.771,74.771,0,0,0,156.894,3.389a3.233,3.233,0,0,0-5.865,1.466c-.618,4.646-2.782,9.647-5.978,14.975A74.858,74.858,0,0,0,126.207.607,3.232,3.232,0,0,0,121.2,3.986c1.01,4.582.682,10.018-.5,16.119A75.016,75.016,0,0,0,96.423,8.476a3.232,3.232,0,0,0-3.556,4.888c2.514,3.959,4.066,9.185,5.038,15.319a74.877,74.877,0,0,0-26.787-2.632,3.235,3.235,0,0,0-1.67,5.812c3.717,2.863,6.956,7.241,9.969,12.676A74.9,74.9,0,0,0,53.34,51.216a3.234,3.234,0,0,0,.414,6.032c4.469,1.423,9.013,4.426,13.7,8.5A74.931,74.931,0,0,0,45.224,80.935a3.233,3.233,0,0,0,2.449,5.527c4.684-.193,9.985,1.08,15.781,3.314a74.946,74.946,0,0,0-15.7,21.867A3.233,3.233,0,0,0,51.943,116c4.34-1.783,9.754-2.4,15.964-2.277a74.877,74.877,0,0,0-7.284,25.911,3.235,3.235,0,0,0,5.43,2.664c3.47-3.158,8.347-5.581,14.223-7.6a74.825,74.825,0,0,0,2.014,26.841,3.234,3.234,0,0,0,6.011.65c2.181-4.152,5.935-8.1,10.77-12a74.846,74.846,0,0,0,11.065,24.542,3.234,3.234,0,0,0,5.871-1.445c.634-4.646,2.815-9.642,6.021-14.959a74.839,74.839,0,0,0,18.784,19.283,3.233,3.233,0,0,0,5.022-3.362c-.994-4.582-.65-10.023.548-16.114a74.935,74.935,0,0,0,24.241,11.7,3.233,3.233,0,0,0,3.572-4.877c-2.5-3.969-4.034-9.2-4.99-15.335a74.869,74.869,0,0,0,26.781,2.718,3.236,3.236,0,0,0,1.692-5.806c-3.706-2.874-6.934-7.262-9.932-12.7a74.919,74.919,0,0,0,26.094-6.6,3.233,3.233,0,0,0-.4-6.032c-4.464-1.434-9-4.458-13.675-8.546a74.8,74.8,0,0,0,22.27-15.12,3.232,3.232,0,0,0-2.433-5.532Z" transform="translate(452.749 1446)" fill="#fff"/>
      <g id="Group_2" data-name="Group 2" transform="translate(497 1446)">
        <path id="Path_2" data-name="Path 2" d="M202.085,90.81S182.716,61.5,197.96,42.694c11.054-13.638,20.126-25.75,21.507-36.128A3.234,3.234,0,0,1,225.332,5.1c14.857,21.324,15.029,45.544,11.65,56.764-3.9,12.94-18.5,27.824-34.892,28.941Z" transform="translate(-112.689 -1.716)" fill="#14a0b9" opacity="0.5"/>
        <path id="Path_3" data-name="Path 3" d="M191.967,89.094s-28.221-20.927-20.32-43.809c5.731-16.6,10.114-31.079,7.864-41.3A3.233,3.233,0,0,1,184.522.607c21.249,14.965,29.687,37.669,30.343,49.368.752,13.493-7.874,32.47-22.9,39.119Z" transform="translate(-102.571 0)" fill="#14a0b9" opacity="0.5"/>
        <path id="Path_4" data-name="Path 4" d="M175.079,96.293S141.406,86.27,141.014,62.067c-.285-17.559-1.112-32.668-6.72-41.5a3.232,3.232,0,0,1,3.556-4.888c25.084,6.805,40.774,25.256,45.388,36.026C188.555,64.124,186.928,84.906,175.079,96.293Z" transform="translate(-85.683 -7.199)" fill="#14a0b9" opacity="0.5"/>
        <path id="Path_5" data-name="Path 5" d="M154.234,111.315s-35.069,2.084-43.712-20.529c-6.268-16.4-12.209-30.321-20.5-36.708a3.235,3.235,0,0,1,1.67-5.812c25.9-2.175,46.951,9.8,54.965,18.348,9.244,9.862,14.814,29.945,7.574,44.695Z" transform="translate(-64.839 -22.221)" fill="#14a0b9" opacity="0.5"/>
        <path id="Path_6" data-name="Path 6" d="M139.85,127.3s-32.244,13.944-48.095-4.356c-11.495-13.273-21.834-24.321-31.8-27.5a3.234,3.234,0,0,1-.414-6.032c23.6-10.893,47.472-6.832,57.924-1.536C129.521,93.986,141.617,110.96,139.85,127.3Z" transform="translate(-50.455 -38.205)" fill="#14a0b9" opacity="0.5"/>
        <path id="Path_7" data-name="Path 7" d="M133.645,140.328S108.1,164.45,86.957,152.665c-15.341-8.546-28.833-15.4-39.286-14.97a3.232,3.232,0,0,1-2.449-5.527c18.451-18.3,42.283-22.64,53.912-21.238C112.551,112.547,129.724,124.364,133.645,140.328Z" transform="translate(-44.249 -51.233)" fill="#14a0b9" opacity="0.5"/>
        <path id="Path_8" data-name="Path 8" d="M136.388,151.5s-15.759,31.4-39.662,27.55c-17.333-2.793-32.357-4.619-42.036-.645a3.232,3.232,0,0,1-4.19-4.356c11.086-23.5,32-35.725,43.411-38.384C107.077,132.6,127.252,137.836,136.388,151.5Z" transform="translate(-46.993 -62.401)" fill="#14a0b9" opacity="0.5"/>
        <path id="Path_9" data-name="Path 9" d="M147.745,160.177s-4.082,34.892-27.861,39.447c-17.247,3.3-31.986,6.714-39.726,13.756a3.235,3.235,0,0,1-5.43-2.664c2.39-25.879,17.865-44.512,27.684-50.9C113.734,152.432,134.488,150.466,147.745,160.177Z" transform="translate(-58.349 -71.083)" fill="#14a0b9" opacity="0.5"/>
        <path id="Path_10" data-name="Path 10" d="M164.338,164.8s8.084,34.189-12.7,46.591c-15.077,9-27.77,17.242-32.636,26.5a3.232,3.232,0,0,1-6.011-.65c-6.6-25.138,1.585-47.934,8.621-57.3,8.121-10.8,26.948-19.745,42.729-15.147Z" transform="translate(-74.942 -75.707)" fill="#14a0b9" opacity="0.5"/>
        <path id="Path_11" data-name="Path 11" d="M178.956,165.87s19.283,29.37,3.98,48.127c-11.1,13.606-20.207,25.691-21.614,36.058a3.234,3.234,0,0,1-5.871,1.445c-14.793-21.367-14.895-45.592-11.473-56.8,3.943-12.929,18.579-27.764,34.983-28.833Z" transform="translate(-89.56 -76.776)" fill="#14a0b9" opacity="0.5"/>
        <path id="Path_12" data-name="Path 12" d="M190.806,165.865s28.157,21.013,20.185,43.868c-5.78,16.581-10.211,31.052-7.993,41.273a3.231,3.231,0,0,1-5.022,3.362c-21.2-15.029-29.575-37.76-30.192-49.459-.714-13.5,7.977-32.443,23.022-39.05Z" transform="translate(-101.411 -76.771)" fill="#14a0b9" opacity="0.5"/>
        <path id="Path_13" data-name="Path 13" d="M201.082,165.87s33.641,10.125,33.963,34.334c.231,17.559,1.015,32.668,6.591,41.52a3.233,3.233,0,0,1-3.572,4.877c-25.063-6.881-40.7-25.38-45.275-36.165C187.508,198,189.195,177.22,201.082,165.87Z" transform="translate(-111.686 -76.776)" fill="#14a0b9" opacity="0.5"/>
        <path id="Path_14" data-name="Path 14" d="M207.781,165.832s35.075-1.977,43.647,20.658c6.22,16.42,12.118,30.359,20.384,36.772a3.235,3.235,0,0,1-1.692,5.806c-25.9,2.1-46.919-9.948-54.906-18.515-9.217-9.889-14.723-29.988-7.434-44.722Z" transform="translate(-118.385 -76.738)" fill="#14a0b9" opacity="0.5"/>
        <path id="Path_15" data-name="Path 15" d="M210.523,161.553s32.287-13.847,48.079,4.5c11.457,13.31,21.759,24.391,31.723,27.593a3.233,3.233,0,0,1,.4,6.032c-23.629,10.823-47.493,6.687-57.93,1.359C220.755,194.893,208.707,177.887,210.523,161.553Z" transform="translate(-121.127 -72.459)" fill="#14a0b9" opacity="0.5"/>
        <path id="Path_16" data-name="Path 16" d="M210.68,152.532s25.616-24.042,46.725-12.2c15.314,8.594,28.785,15.486,39.238,15.093a3.232,3.232,0,0,1,2.433,5.532c-18.5,18.246-42.353,22.511-53.977,21.072C231.687,180.372,214.553,168.5,210.68,152.532Z" transform="translate(-121.284 -63.438)" fill="#14a0b9" opacity="0.5"/>
        <path id="Path_17" data-name="Path 17" d="M210.68,141.939s15.856-31.352,39.742-27.431c17.328,2.841,32.341,4.721,42.036.773a3.236,3.236,0,0,1,4.179,4.372c-11.156,23.473-32.11,35.628-43.529,38.249C239.932,160.927,219.774,155.625,210.68,141.939Z" transform="translate(-121.284 -52.845)" fill="#14a0b9" opacity="0.5"/>
        <path id="Path_18" data-name="Path 18" d="M210.68,119.453s4.19-34.881,27.979-39.361c17.258-3.25,32.008-6.617,39.769-13.638a3.233,3.233,0,0,1,5.42,2.68c-2.465,25.868-18,44.453-27.84,50.824C244.659,127.3,223.9,129.207,210.68,119.453Z" transform="translate(-121.284 -30.358)" fill="#14a0b9" opacity="0.5"/>
        <path id="Path_19" data-name="Path 19" d="M209.385,101.483S201.4,67.267,222.233,54.929c15.11-8.949,27.824-17.156,32.717-26.405a3.234,3.234,0,0,1,6.01.666c6.521,25.154-1.73,47.928-8.8,57.274-8.154,10.78-27.012,19.664-42.772,15.013Z" transform="translate(-119.99 -12.388)" fill="#14a0b9" opacity="0.5"/>
      </g>
    </g>
    <g id="Group_245" data-name="Group 245" transform="translate(-5610 106)">
      <path id="Path_1685" data-name="Path 1685" d="M64.163,101.178c-.989.538-1.6,1.773-.281,4.409,2.071,4.159,3.564,3.026,5.112,2.09.1-.057.186-.115.272-.173l.036.044a4,4,0,0,0-1.167,1.853c-.651,1.949-.331,7.05,5.655,8.132a4.33,4.33,0,0,0,.725.067l.055.138a5.642,5.642,0,0,0-1.113.493c-2.691,1.547-.937,4.8,0,6.057s3.127,3.438,6.7,1.2a4.174,4.174,0,0,0,1.268-1.156,44.507,44.507,0,0,1,.458,6.328,7.847,7.847,0,1,1-15.692,0c0-11.329-8.785-22.5-19.62-22.5s-19.731,11.17-19.731,22.5a7.847,7.847,0,1,1-15.692,0l.411-6.168a4.369,4.369,0,0,0,1.15,1c3.577,2.234,5.759.07,6.7-1.2s2.691-4.51,0-6.057a5.36,5.36,0,0,0-1.634-.627l.019-.044a4,4,0,0,0,1.283-.028c5.986-1.082,6.306-6.184,5.655-8.132a4.247,4.247,0,0,0-.93-1.627l.078-.092c1.545.935,3.036,2.059,5.1-2.094,1.4-2.805.623-4.023-.474-4.5,1.935.682,6.1,1.267,4.828-4.4,0,0,4.926.832,5.263-4.088,0,0,4.659,4.169,7.829-1.5,0,0,2.93,5.477,7.205,1.5,0,0,.53,6.415,5.908,3.588,0,0-3.384,5.365,4.613,5Z" transform="translate(6618.455 2135.363)" fill="#fff"/>
      <path id="Path_1686" data-name="Path 1686" d="M18.431,281.228c-.946,1.273-3.127,3.437-6.7,1.2s-.7-5.453.651-6.573a5.1,5.1,0,0,1,6.053-.687c2.69,1.547.937,4.8,0,6.058Z" transform="translate(6619.44 1978.423)" fill="#fff"/>
      <path id="Path_1687" data-name="Path 1687" d="M48.5,203.177c.651,1.949.33,7.05-5.656,8.132-2.555.462-5.574-1.449-2.869-6.895C41.552,201.232,46.923,198.465,48.5,203.177Z" transform="translate(6594.697 2041.586)" fill="#fff"/>
      <path id="Path_1688" data-name="Path 1688" d="M91.506,158.467c-2.068.063-7.817,3.985-3.036,6.875,1.548.936,3.041,2.069,5.113-2.09S92.95,158.424,91.506,158.467Z" transform="translate(6553.863 2077.697)" fill="#fff"/>
      <path id="Path_1689" data-name="Path 1689" d="M434.993,281.228c.946,1.273,3.127,3.437,6.7,1.2s.7-5.453-.651-6.573a5.1,5.1,0,0,0-6.053-.687c-2.69,1.547-.937,4.8,0,6.058Z" transform="translate(6256.918 1978.423)" fill="#fff"/>
      <path id="Path_1690" data-name="Path 1690" d="M405.15,203.177c-.651,1.949-.33,7.05,5.656,8.132,2.555.462,5.574-1.449,2.869-6.895C412.094,201.232,406.723,198.465,405.15,203.177Z" transform="translate(6281.44 2041.586)" fill="#fff"/>
      <path id="Path_1691" data-name="Path 1691" d="M374.658,158.467c2.068.063,7.817,3.985,3.036,6.875-1.548.936-3.041,2.069-5.113-2.09S373.213,158.424,374.658,158.467Z" transform="translate(6309.756 2077.698)" fill="#fff"/>
      <path id="Path_1692" data-name="Path 1692" d="M248.453,199.473h0a1.446,1.446,0,1,0,1.019.426A1.433,1.433,0,0,0,248.453,199.473Z" transform="translate(6416.587 2042.599)" fill="#1ba2bb"/>
      <path id="Path_1693" data-name="Path 1693" d="M73.776,114.511c.171-2.6-2.174-4.753-2.9-5.351a8.037,8.037,0,0,0-1.771-1.124c.665-1.306.915-3.422-.7-6.683A8.833,8.833,0,0,0,62.721,96.9a3.8,3.8,0,0,0-.1-1.371c-.687-2.661-4.211-4.755-6.162-4.814a5.264,5.264,0,0,0-2.342.451l-.256-.059a28.316,28.316,0,0,1-2.806-.569.744.744,0,0,1-.249-.3.959.959,0,0,1-.069-.384,2.982,2.982,0,0,1,.245-1.041c.073-.176.146-.316.182-.384.019-.033.036-.065.053-.095l.007-.012s0,0,0-.006a1.468,1.468,0,0,0-.157-1.758,1.432,1.432,0,0,0-1.728-.307q-.175.092-.337.166a3.606,3.606,0,0,1-1.458.39h0a1.288,1.288,0,0,1-.9-.324,3.4,3.4,0,0,1-.883-1.584,6.517,6.517,0,0,1-.182-.787c-.016-.1-.026-.177-.032-.227,0-.022,0-.038-.006-.048v0a1.437,1.437,0,0,0-2.411-.95A3.149,3.149,0,0,1,41,83.953a2.088,2.088,0,0,1-1.02-.285,4.713,4.713,0,0,1-1.329-1.185,6.079,6.079,0,0,1-.382-.537c-.042-.067-.073-.118-.091-.148l-.01-.017a.1.1,0,0,0-.009-.015s0,0,0,0A1.437,1.437,0,0,0,36.906,81h-.013a1.441,1.441,0,0,0-1.255.74,5.108,5.108,0,0,1-1.577,1.838,2.414,2.414,0,0,1-1.343.4H32.7a4,4,0,0,1-1.865-.558,5.909,5.909,0,0,1-.627-.4c-.056-.042-.11-.084-.159-.124l-.032-.028h0a1.435,1.435,0,0,0-.952-.362,1.407,1.407,0,0,0-.543.108,1.467,1.467,0,0,0-.893,1.246,3.655,3.655,0,0,1-.416,1.571,2.176,2.176,0,0,1-1.166.971,4.182,4.182,0,0,1-1.431.244h-.022c-.189,0-.342-.01-.437-.019-.04,0-.072-.009-.094-.01l-.022,0h-.01a1.44,1.44,0,0,0-1.275.436,1.462,1.462,0,0,0-.357,1.32,7.354,7.354,0,0,1,.2,1.571,2.476,2.476,0,0,1-.134.894.712.712,0,0,1-.365.423,1.9,1.9,0,0,1-.84.161h-.033a5.782,5.782,0,0,1-1.682-.31,5.344,5.344,0,0,0-2.216-.394h0c-1.95.059-5.475,2.153-6.162,4.814a3.8,3.8,0,0,0-.1,1.371,8.828,8.828,0,0,0-5.684,4.452c-1.619,3.261-1.37,5.377-.7,6.683a8.042,8.042,0,0,0-1.771,1.124c-.723.6-3.067,2.751-2.9,5.351a3.98,3.98,0,0,0,.538,1.747L.17,121.933l0,.1a9.449,9.449,0,0,0,2.718,6.653A9.257,9.257,0,0,0,5.838,130.7a9.2,9.2,0,0,0,10.185-2.019,9.449,9.449,0,0,0,2.718-6.652,22.726,22.726,0,0,1,3.571-11.988,20.065,20.065,0,0,1,8.969-7.879,1.437,1.437,0,0,0,.78-.787,1.457,1.457,0,0,0,0-1.113,1.439,1.439,0,0,0-1.332-.9,1.412,1.412,0,0,0-.55.112h0a20.935,20.935,0,0,0-5.777,3.666,24.893,24.893,0,0,0-4.518,5.333,26.357,26.357,0,0,0-2.957,6.464,24.6,24.6,0,0,0-1.066,7.09,6.524,6.524,0,0,1-1.878,4.6,6.337,6.337,0,0,1-9.053,0,6.522,6.522,0,0,1-1.879-4.558l.193-3.516a6.581,6.581,0,0,0,2.9.727,6.059,6.059,0,0,0,4.884-2.757c.5-.679,2.115-3.079,1.63-5.431a3.938,3.938,0,0,0-.6-1.425,7.7,7.7,0,0,0,3.744-3.2,8.122,8.122,0,0,0,1-5.11,3.135,3.135,0,0,0,.525-.1c1.27-.369,2.353-1.529,3.409-3.649a7.461,7.461,0,0,0,.907-3.238v-.055a4.147,4.147,0,0,0,2.467-.935,3.668,3.668,0,0,0,1.033-1.473,5.4,5.4,0,0,0,.337-1.966c0-.143,0-.288-.013-.435a6.076,6.076,0,0,0,2.558-.864A5.012,5.012,0,0,0,29.7,86.886a5.379,5.379,0,0,0,.307-.627,6.5,6.5,0,0,0,2.708.631h.021a5.278,5.278,0,0,0,2.869-.855,6.575,6.575,0,0,0,1.317-1.13l.039.041A6.865,6.865,0,0,0,38.6,86.223,4.915,4.915,0,0,0,41,86.861h.025a5.057,5.057,0,0,0,2.177-.521c.046.122.1.244.148.365A5.557,5.557,0,0,0,44.765,88.7a4.192,4.192,0,0,0,2.744,1.022c.115,0,.232,0,.35-.01,0,.049,0,.1,0,.148a3.831,3.831,0,0,0,.319,1.571,3.9,3.9,0,0,0,2.033,1.952,7.024,7.024,0,0,0,1.961.529h0a6.83,6.83,0,0,0,.881,3.7c1.056,2.121,2.14,3.28,3.409,3.649a3.137,3.137,0,0,0,.525.1,8.124,8.124,0,0,0,1,5.11,7.7,7.7,0,0,0,3.744,3.2,3.936,3.936,0,0,0-.6,1.425c-.484,2.352,1.126,4.752,1.63,5.431a6.059,6.059,0,0,0,4.884,2.757,6.684,6.684,0,0,0,3.084-.82c.087,1.219.175,2.718.175,3.566a6.522,6.522,0,0,1-1.879,4.6,6.335,6.335,0,0,1-9.051,0,6.517,6.517,0,0,1-1.879-4.6,24.8,24.8,0,0,0-1.052-7.078,26.4,26.4,0,0,0-2.922-6.457,24.692,24.692,0,0,0-4.475-5.334A20.758,20.758,0,0,0,43.9,99.49a1.407,1.407,0,0,0-.555-.113,1.437,1.437,0,0,0-1.33.894,1.453,1.453,0,0,0,0,1.113,1.438,1.438,0,0,0,.777.79,19.909,19.909,0,0,1,8.892,7.876,22.868,22.868,0,0,1,3.528,11.98,9.449,9.449,0,0,0,2.718,6.653,9.258,9.258,0,0,0,2.953,2.017,9.191,9.191,0,0,0,7.234,0,9.265,9.265,0,0,0,2.951-2.017,9.449,9.449,0,0,0,2.718-6.653,45.886,45.886,0,0,0-.4-6.036,3.966,3.966,0,0,0,.4-1.483Zm-65.056.271c-1.327,1.786-2.85,2.052-4.792.839-1-.623-1.031-1.134-1.042-1.3-.059-.9.916-2.139,1.848-2.91a4.091,4.091,0,0,1,2.6-1.07,3.627,3.627,0,0,1,1.821.522,1.192,1.192,0,0,1,.675.826A4.764,4.764,0,0,1,8.72,114.782Zm4.6-9.793a5.517,5.517,0,0,1-4.035,2.478,1.985,1.985,0,0,1-1.923-.564c-.576-.777-.358-2.326.6-4.248A5.6,5.6,0,0,1,12.123,99.7c.048,0,.1,0,.142,0,.464.033,1.131.226,1.565,1.525a5,5,0,0,1-.509,3.758ZM18.16,96.3c-.935,1.877-1.524,2.129-1.632,2.161-.247.071-.786-.259-1.264-.551l-.188-.115c-1.312-.793-1.168-1.35-1.12-1.534.321-1.246,2.6-2.614,3.459-2.64h0a1.63,1.63,0,0,1,1.266.369C18.843,94.249,18.8,95.008,18.16,96.3Zm37.466,0c-.644-1.293-.683-2.052-.52-2.309a1.555,1.555,0,0,1,1.179-.37h.088c.857.026,3.138,1.394,3.459,2.64.047.183.191.741-1.12,1.534l-.188.115c-.478.292-1.018.623-1.264.551C57.15,98.43,56.561,98.178,55.626,96.3Zm4.84,8.688a5,5,0,0,1-.509-3.758c.434-1.3,1.1-1.492,1.565-1.525,1.411-.1,3.5,1.334,4.306,2.95.955,1.922,1.172,3.471.6,4.248a1.984,1.984,0,0,1-1.923.564A5.518,5.518,0,0,1,60.466,104.989Zm9.392,10.632c-1.942,1.214-3.465.947-4.792-.839a4.764,4.764,0,0,1-1.114-3.1,1.192,1.192,0,0,1,.675-.826,3.623,3.623,0,0,1,4.426.548c.931.771,1.907,2.01,1.848,2.91C70.889,114.487,70.856,115,69.858,115.621Z" transform="translate(6627.999 2143.996)" fill="#1ba2bb"/>
    </g>
  </g>
</svg>
