<svg xmlns="http://www.w3.org/2000/svg" width="178.771" height="178.225" viewBox="0 0 178.771 178.225">
  <g id="Group_284" data-name="Group 284" transform="translate(-300 -2267)">
    <g id="Group_206" data-name="Group 206" transform="translate(-197 821)">
      <path id="Path_1" data-name="Path 1" d="M219.609,91.989c-4.684.177-9.98-1.112-15.77-3.362A74.791,74.791,0,0,0,219.6,66.809a3.236,3.236,0,0,0-4.179-4.372c-4.345,1.767-9.76,2.363-15.969,2.229a74.829,74.829,0,0,0,7.359-25.89,3.234,3.234,0,0,0-5.42-2.68c-3.481,3.148-8.363,5.559-14.245,7.552A74.973,74.973,0,0,0,185.222,16.8a3.234,3.234,0,0,0-6.011-.666c-2.234,4.222-6.1,8.224-11.076,12.182A74.771,74.771,0,0,0,156.894,3.389a3.233,3.233,0,0,0-5.865,1.466c-.618,4.646-2.782,9.647-5.978,14.975A74.858,74.858,0,0,0,126.207.607,3.232,3.232,0,0,0,121.2,3.986c1.01,4.582.682,10.018-.5,16.119A75.016,75.016,0,0,0,96.423,8.476a3.232,3.232,0,0,0-3.556,4.888c2.514,3.959,4.066,9.185,5.038,15.319a74.877,74.877,0,0,0-26.787-2.632,3.235,3.235,0,0,0-1.67,5.812c3.717,2.863,6.956,7.241,9.969,12.676A74.9,74.9,0,0,0,53.34,51.216a3.234,3.234,0,0,0,.414,6.032c4.469,1.423,9.013,4.426,13.7,8.5A74.931,74.931,0,0,0,45.224,80.935a3.233,3.233,0,0,0,2.449,5.527c4.684-.193,9.985,1.08,15.781,3.314a74.946,74.946,0,0,0-15.7,21.867A3.233,3.233,0,0,0,51.943,116c4.34-1.783,9.754-2.4,15.964-2.277a74.877,74.877,0,0,0-7.284,25.911,3.235,3.235,0,0,0,5.43,2.664c3.47-3.158,8.347-5.581,14.223-7.6a74.825,74.825,0,0,0,2.014,26.841,3.234,3.234,0,0,0,6.011.65c2.181-4.152,5.935-8.1,10.77-12a74.846,74.846,0,0,0,11.065,24.542,3.234,3.234,0,0,0,5.871-1.445c.634-4.646,2.815-9.642,6.021-14.959a74.839,74.839,0,0,0,18.784,19.283,3.233,3.233,0,0,0,5.022-3.362c-.994-4.582-.65-10.023.548-16.114a74.935,74.935,0,0,0,24.241,11.7,3.233,3.233,0,0,0,3.572-4.877c-2.5-3.969-4.034-9.2-4.99-15.335a74.869,74.869,0,0,0,26.781,2.718,3.236,3.236,0,0,0,1.692-5.806c-3.706-2.874-6.934-7.262-9.932-12.7a74.919,74.919,0,0,0,26.094-6.6,3.233,3.233,0,0,0-.4-6.032c-4.464-1.434-9-4.458-13.675-8.546a74.8,74.8,0,0,0,22.27-15.12,3.232,3.232,0,0,0-2.433-5.532Z" transform="translate(452.749 1446)" fill="#fff"/>
      <g id="Group_2" data-name="Group 2" transform="translate(497 1446)">
        <path id="Path_2" data-name="Path 2" d="M202.085,90.81S182.716,61.5,197.96,42.694c11.054-13.638,20.126-25.75,21.507-36.128A3.234,3.234,0,0,1,225.332,5.1c14.857,21.324,15.029,45.544,11.65,56.764-3.9,12.94-18.5,27.824-34.892,28.941Z" transform="translate(-112.689 -1.716)" fill="#14a0b9" opacity="0.5"/>
        <path id="Path_3" data-name="Path 3" d="M191.967,89.094s-28.221-20.927-20.32-43.809c5.731-16.6,10.114-31.079,7.864-41.3A3.233,3.233,0,0,1,184.522.607c21.249,14.965,29.687,37.669,30.343,49.368.752,13.493-7.874,32.47-22.9,39.119Z" transform="translate(-102.571 0)" fill="#14a0b9" opacity="0.5"/>
        <path id="Path_4" data-name="Path 4" d="M175.079,96.293S141.406,86.27,141.014,62.067c-.285-17.559-1.112-32.668-6.72-41.5a3.232,3.232,0,0,1,3.556-4.888c25.084,6.805,40.774,25.256,45.388,36.026C188.555,64.124,186.928,84.906,175.079,96.293Z" transform="translate(-85.683 -7.199)" fill="#14a0b9" opacity="0.5"/>
        <path id="Path_5" data-name="Path 5" d="M154.234,111.315s-35.069,2.084-43.712-20.529c-6.268-16.4-12.209-30.321-20.5-36.708a3.235,3.235,0,0,1,1.67-5.812c25.9-2.175,46.951,9.8,54.965,18.348,9.244,9.862,14.814,29.945,7.574,44.695Z" transform="translate(-64.839 -22.221)" fill="#14a0b9" opacity="0.5"/>
        <path id="Path_6" data-name="Path 6" d="M139.85,127.3s-32.244,13.944-48.095-4.356c-11.495-13.273-21.834-24.321-31.8-27.5a3.234,3.234,0,0,1-.414-6.032c23.6-10.893,47.472-6.832,57.924-1.536C129.521,93.986,141.617,110.96,139.85,127.3Z" transform="translate(-50.455 -38.205)" fill="#14a0b9" opacity="0.5"/>
        <path id="Path_7" data-name="Path 7" d="M133.645,140.328S108.1,164.45,86.957,152.665c-15.341-8.546-28.833-15.4-39.286-14.97a3.232,3.232,0,0,1-2.449-5.527c18.451-18.3,42.283-22.64,53.912-21.238C112.551,112.547,129.724,124.364,133.645,140.328Z" transform="translate(-44.249 -51.233)" fill="#14a0b9" opacity="0.5"/>
        <path id="Path_8" data-name="Path 8" d="M136.388,151.5s-15.759,31.4-39.662,27.55c-17.333-2.793-32.357-4.619-42.036-.645a3.232,3.232,0,0,1-4.19-4.356c11.086-23.5,32-35.725,43.411-38.384C107.077,132.6,127.252,137.836,136.388,151.5Z" transform="translate(-46.993 -62.401)" fill="#14a0b9" opacity="0.5"/>
        <path id="Path_9" data-name="Path 9" d="M147.745,160.177s-4.082,34.892-27.861,39.447c-17.247,3.3-31.986,6.714-39.726,13.756a3.235,3.235,0,0,1-5.43-2.664c2.39-25.879,17.865-44.512,27.684-50.9C113.734,152.432,134.488,150.466,147.745,160.177Z" transform="translate(-58.349 -71.083)" fill="#14a0b9" opacity="0.5"/>
        <path id="Path_10" data-name="Path 10" d="M164.338,164.8s8.084,34.189-12.7,46.591c-15.077,9-27.77,17.242-32.636,26.5a3.232,3.232,0,0,1-6.011-.65c-6.6-25.138,1.585-47.934,8.621-57.3,8.121-10.8,26.948-19.745,42.729-15.147Z" transform="translate(-74.942 -75.707)" fill="#14a0b9" opacity="0.5"/>
        <path id="Path_11" data-name="Path 11" d="M178.956,165.87s19.283,29.37,3.98,48.127c-11.1,13.606-20.207,25.691-21.614,36.058a3.234,3.234,0,0,1-5.871,1.445c-14.793-21.367-14.895-45.592-11.473-56.8,3.943-12.929,18.579-27.764,34.983-28.833Z" transform="translate(-89.56 -76.776)" fill="#14a0b9" opacity="0.5"/>
        <path id="Path_12" data-name="Path 12" d="M190.806,165.865s28.157,21.013,20.185,43.868c-5.78,16.581-10.211,31.052-7.993,41.273a3.231,3.231,0,0,1-5.022,3.362c-21.2-15.029-29.575-37.76-30.192-49.459-.714-13.5,7.977-32.443,23.022-39.05Z" transform="translate(-101.411 -76.771)" fill="#14a0b9" opacity="0.5"/>
        <path id="Path_13" data-name="Path 13" d="M201.082,165.87s33.641,10.125,33.963,34.334c.231,17.559,1.015,32.668,6.591,41.52a3.233,3.233,0,0,1-3.572,4.877c-25.063-6.881-40.7-25.38-45.275-36.165C187.508,198,189.195,177.22,201.082,165.87Z" transform="translate(-111.686 -76.776)" fill="#14a0b9" opacity="0.5"/>
        <path id="Path_14" data-name="Path 14" d="M207.781,165.832s35.075-1.977,43.647,20.658c6.22,16.42,12.118,30.359,20.384,36.772a3.235,3.235,0,0,1-1.692,5.806c-25.9,2.1-46.919-9.948-54.906-18.515-9.217-9.889-14.723-29.988-7.434-44.722Z" transform="translate(-118.385 -76.738)" fill="#14a0b9" opacity="0.5"/>
        <path id="Path_15" data-name="Path 15" d="M210.523,161.553s32.287-13.847,48.079,4.5c11.457,13.31,21.759,24.391,31.723,27.593a3.233,3.233,0,0,1,.4,6.032c-23.629,10.823-47.493,6.687-57.93,1.359C220.755,194.893,208.707,177.887,210.523,161.553Z" transform="translate(-121.127 -72.459)" fill="#14a0b9" opacity="0.5"/>
        <path id="Path_16" data-name="Path 16" d="M210.68,152.532s25.616-24.042,46.725-12.2c15.314,8.594,28.785,15.486,39.238,15.093a3.232,3.232,0,0,1,2.433,5.532c-18.5,18.246-42.353,22.511-53.977,21.072C231.687,180.372,214.553,168.5,210.68,152.532Z" transform="translate(-121.284 -63.438)" fill="#14a0b9" opacity="0.5"/>
        <path id="Path_17" data-name="Path 17" d="M210.68,141.939s15.856-31.352,39.742-27.431c17.328,2.841,32.341,4.721,42.036.773a3.236,3.236,0,0,1,4.179,4.372c-11.156,23.473-32.11,35.628-43.529,38.249C239.932,160.927,219.774,155.625,210.68,141.939Z" transform="translate(-121.284 -52.845)" fill="#14a0b9" opacity="0.5"/>
        <path id="Path_18" data-name="Path 18" d="M210.68,119.453s4.19-34.881,27.979-39.361c17.258-3.25,32.008-6.617,39.769-13.638a3.233,3.233,0,0,1,5.42,2.68c-2.465,25.868-18,44.453-27.84,50.824C244.659,127.3,223.9,129.207,210.68,119.453Z" transform="translate(-121.284 -30.358)" fill="#14a0b9" opacity="0.5"/>
        <path id="Path_19" data-name="Path 19" d="M209.385,101.483S201.4,67.267,222.233,54.929c15.11-8.949,27.824-17.156,32.717-26.405a3.234,3.234,0,0,1,6.01.666c6.521,25.154-1.73,47.928-8.8,57.274-8.154,10.78-27.012,19.664-42.772,15.013Z" transform="translate(-119.99 -12.388)" fill="#14a0b9" opacity="0.5"/>
      </g>
    </g>
    <g id="Group_239" data-name="Group 239" transform="translate(-6011 274)">
      <path id="Path_1607" data-name="Path 1607" d="M63.083,54.192c-2.963,5.264-1.931,14.277-6.139,13.564-3.075-.516-1.425-14.883-4.714-14.883S50.585,67.24,47.51,67.756c-4.209.713-3.176-8.3-6.139-13.564S35.422,41.47,38.408,36.341c2.278-3.906,7.672-4.074,11.235-2.323.123.062.253.118.382.168a5.884,5.884,0,0,0,4.787-.168c3.564-1.751,8.957-1.583,11.235,2.323C69.032,41.472,66.046,48.93,63.083,54.192Z" transform="translate(6348.104 2021.982)" fill="#fff"/>
      <path id="Path_1608" data-name="Path 1608" d="M65.91,96.645a5.612,5.612,0,0,0,5.612-5.612V64.724a4.733,4.733,0,0,0-3.411-4.546,14.341,14.341,0,0,0-4.843-.682c-5.651.181-9.128,4.671-10.076,9.467-1.745,8.84-4.546,17.795-9.851,17.79-4.714,0-4.041-4.834-6.309-4.745-2.27-.089-1.594,4.74-6.309,4.745-5.308,0-8.106-8.95-9.851-17.79-.947-4.8-4.424-9.288-10.076-9.47a14.341,14.341,0,0,0-4.843.682,4.733,4.733,0,0,0-3.411,4.546V91.034a5.612,5.612,0,0,0,5.612,5.612Z" transform="translate(6363.3 2010.339)" fill="#fff"/>
      <path id="Path_1609" data-name="Path 1609" d="M65.251,96.828H7.5a6.461,6.461,0,0,1-6.454-6.454V64.065a5.6,5.6,0,0,1,4.017-5.357,15.162,15.162,0,0,1,5.107-.715c6.589.211,9.976,5.6,10.874,10.145,2.275,11.515,5.225,17.112,9.021,17.112h0c2.271,0,2.956-1.259,3.68-2.59.561-1.028,1.2-2.177,2.629-2.155,1.455-.026,2.069,1.127,2.629,2.155.724,1.331,1.409,2.588,3.68,2.59h0c3.8,0,6.747-5.6,9.021-17.112.9-4.546,4.285-9.933,10.874-10.145a15.123,15.123,0,0,1,5.1.714,5.6,5.6,0,0,1,4.019,5.357v26.31a6.461,6.461,0,0,1-6.455,6.454ZM9.633,59.669a13.749,13.749,0,0,0-4.1.657,3.907,3.907,0,0,0-2.8,3.739V90.375a4.776,4.776,0,0,0,4.77,4.77H65.251a4.776,4.776,0,0,0,4.77-4.77V64.065a3.907,3.907,0,0,0-2.8-3.739,13.566,13.566,0,0,0-4.582-.649c-5.6.18-8.5,4.847-9.276,8.789C51.8,76.4,48.984,86.935,42.688,86.936h-.005c-3.271,0-4.406-2.089-5.158-3.469-.537-.986-.755-1.291-1.117-1.277h-.066c-.346-.007-.58.291-1.117,1.277-.751,1.38-1.887,3.465-5.158,3.469H30.06c-6.3,0-9.107-10.54-10.673-18.469-.778-3.942-3.675-8.61-9.277-8.789q-.244-.008-.477-.008Z" transform="translate(6363.958 2010.997)" fill="#1ba2bb"/>
      <path id="Path_1610" data-name="Path 1610" d="M28.716,2.5a.561.561,0,0,1,.561.539s.549,17.043.888,22.717a16,16,0,0,0,2.532,7.71,11.826,11.826,0,0,0,5.072,4.516,1.4,1.4,0,0,1,.809,1.257,1.423,1.423,0,0,1-1.936,1.34l-.521-.2c-2.746-1.061-5.16-3.648-7.04-6.382a18.216,18.216,0,0,1-2.729-6.566c-.7-3.311-1.892-20.871-2.121-24.337a.561.561,0,0,1,.561-.594Z" transform="translate(6353.783 2035.345)" fill="#fff"/>
      <path id="Path_1611" data-name="Path 1611" d="M88.064,2.5a.561.561,0,0,0-.561.539s-.549,17.043-.888,22.717a16,16,0,0,1-2.532,7.71,11.826,11.826,0,0,1-5.072,4.516,1.4,1.4,0,0,0-.809,1.257,1.423,1.423,0,0,0,1.936,1.34l.521-.2c2.746-1.061,5.16-3.648,7.04-6.382a18.216,18.216,0,0,0,2.729-6.566c.7-3.311,1.892-20.871,2.121-24.337a.561.561,0,0,0-.561-.594Z" transform="translate(6330.1 2035.345)" fill="#fff"/>
      <path id="Path_1612" data-name="Path 1612" d="M68.272,1a.855.855,0,0,0-.895.786c-.014.212-1.384,21.232-2.144,24.81a17.359,17.359,0,0,1-2.6,6.263c-2.144,3.121-4.444,5.219-6.65,6.073l-.521.2a.576.576,0,0,1-.542-.065.569.569,0,0,1-.249-.477.579.579,0,0,1,.337-.513,12.623,12.623,0,0,0,5.41-4.817,16.867,16.867,0,0,0,2.666-8.134c.347-5.808.91-23.256.91-23.256A.842.842,0,1,0,62.311,1.8s-.528,16.414-.877,22.681a9.565,9.565,0,0,0-1.03-2.6c-2.469-4.238-8.212-4.678-12.335-2.653a5,5,0,0,1-4.419,0c-4.124-2.025-9.865-1.585-12.336,2.653a9.558,9.558,0,0,0-1.03,2.6c-.35-6.3-.877-22.679-.877-22.679a.842.842,0,1,0-1.684.066s.561,17.473.912,23.29a16.832,16.832,0,0,0,2.663,8.1,12.623,12.623,0,0,0,5.41,4.817.579.579,0,0,1,.337.513.569.569,0,0,1-.249.477.576.576,0,0,1-.542.065l-.521-.2c-2.207-.852-4.506-2.952-6.65-6.073a17.35,17.35,0,0,1-2.6-6.264c-.76-3.578-2.133-24.6-2.144-24.81A.855.855,0,0,0,23.448,1a.842.842,0,0,0-.786.895c.056.87,1.392,21.355,2.177,25.051A19.014,19.014,0,0,0,27.7,33.81a19.02,19.02,0,0,0,6.223,6.117c.116.215.231.437.348.645A24.885,24.885,0,0,1,36.4,47.527c.71,3.487,1.443,7.085,4.261,7.085a3.8,3.8,0,0,0,.629-.056c2.133-.36,2.512-3.967,2.95-8.143.228-2.184.7-6.727,1.627-6.727s1.4,4.546,1.627,6.727c.437,4.176.815,7.783,2.949,8.143,3.348.561,4.129-3.3,4.89-7.03a24.885,24.885,0,0,1,2.126-6.954c.118-.209.233-.43.351-.646a19.02,19.02,0,0,0,6.22-6.117,19.014,19.014,0,0,0,2.859-6.867C67.67,23.245,69,2.76,69.061,1.89A.842.842,0,0,0,68.272,1Zm-14.6,46.192c-.831,4.076-1.389,5.971-2.96,5.705-.873-.148-1.316-4.383-1.555-6.659C48.7,41.816,48.3,38,45.861,38s-2.838,3.816-3.3,8.236c-.239,2.276-.682,6.51-1.556,6.659-1.565.262-2.129-1.627-2.96-5.705a31.575,31.575,0,0,0-1.772-6.353c.065.006.13.018.2.018a2.266,2.266,0,0,0,2.06-3.211,2.336,2.336,0,0,0-1.149-1.116,11.087,11.087,0,0,1-2.541-2.016,10.366,10.366,0,0,1-3.1-8.718,8.28,8.28,0,0,1,1.028-3.062,6.542,6.542,0,0,1,5.881-2.968,9.806,9.806,0,0,1,4.224.961l.139.068a5.275,5.275,0,0,1,1.524,1.175,3.469,3.469,0,0,0,2.352,1.28c.028,0,.056,0,.083,0a.842.842,0,0,0,.081-1.68,1.506,1.506,0,0,1-.62-.183,6.678,6.678,0,0,0,2.381-.649C52.171,19.094,57,19.387,58.95,22.733a8.281,8.281,0,0,1,1.029,3.07,10.316,10.316,0,0,1-3.03,8.645,11.072,11.072,0,0,1-2.656,2.105,2.257,2.257,0,0,0,.959,4.3c.065,0,.13-.012.2-.018a31.575,31.575,0,0,0-1.771,6.353Z" transform="translate(6354.472 2036.006)" fill="#1ba2bb"/>
    </g>
  </g>
</svg>
